<svg width="168" height="149" viewBox="0 0 168 149" fill="none" xmlns="http://www.w3.org/2000/svg">
<path d="M18.18 140H24.48L15.912 114.8H8.568L0 140H6.3L7.56 136.04H16.92L18.18 140ZM9.288 130.64L12.24 121.388L15.192 130.64H9.288ZM39.3494 122V123.692C38.1614 122.324 36.3974 121.496 33.9854 121.496C29.2694 121.496 25.3814 125.636 25.3814 131C25.3814 136.364 29.2694 140.504 33.9854 140.504C36.3974 140.504 38.1614 139.676 39.3494 138.308V140H44.7494V122H39.3494ZM35.0654 135.392C32.5814 135.392 30.7814 133.7 30.7814 131C30.7814 128.3 32.5814 126.608 35.0654 126.608C37.5494 126.608 39.3494 128.3 39.3494 131C39.3494 133.7 37.5494 135.392 35.0654 135.392ZM59.8351 121.496C57.4231 121.496 55.6591 122.324 54.4711 123.692V114.8H49.0711V140H54.4711V138.308C55.6591 139.676 57.4231 140.504 59.8351 140.504C64.5511 140.504 68.4391 136.364 68.4391 131C68.4391 125.636 64.5511 121.496 59.8351 121.496ZM58.7551 135.392C56.2711 135.392 54.4711 133.7 54.4711 131C54.4711 128.3 56.2711 126.608 58.7551 126.608C61.2391 126.608 63.0391 128.3 63.0391 131C63.0391 133.7 61.2391 135.392 58.7551 135.392ZM84.9288 122V123.692C83.7408 122.324 81.9768 121.496 79.5648 121.496C74.8488 121.496 70.9608 125.636 70.9608 131C70.9608 136.364 74.8488 140.504 79.5648 140.504C81.9768 140.504 83.7408 139.676 84.9288 138.308V140H90.3288V122H84.9288ZM80.6448 135.392C78.1608 135.392 76.3608 133.7 76.3608 131C76.3608 128.3 78.1608 126.608 80.6448 126.608C83.1288 126.608 84.9288 128.3 84.9288 131C84.9288 133.7 83.1288 135.392 80.6448 135.392ZM113.73 114.8H104.19V140H109.95V132.08H113.73C118.698 132.08 122.55 128.228 122.55 123.44C122.55 118.652 118.698 114.8 113.73 114.8ZM113.73 126.68H109.95V120.2H113.73C115.494 120.2 116.79 121.604 116.79 123.44C116.79 125.276 115.494 126.68 113.73 126.68ZM137.583 122V123.692C136.395 122.324 134.631 121.496 132.219 121.496C127.503 121.496 123.615 125.636 123.615 131C123.615 136.364 127.503 140.504 132.219 140.504C134.631 140.504 136.395 139.676 137.583 138.308V140H142.983V122H137.583ZM133.299 135.392C130.815 135.392 129.015 133.7 129.015 131C129.015 128.3 130.815 126.608 133.299 126.608C135.783 126.608 137.583 128.3 137.583 131C137.583 133.7 135.783 135.392 133.299 135.392ZM158.645 122L155.261 133.016L151.265 122H145.325L152.489 139.172C151.697 141.368 150.509 142.16 147.989 142.16V147.2C153.029 147.452 156.233 145.184 158.249 139.46L164.405 122H158.645Z" fill="white"/>
<path d="M49.8528 76.3887L53.3335 79.9924C54.0027 80.6845 55.1067 80.7045 55.7988 80.0353L62.9747 73.1054C64.6392 71.498 64.685 68.8468 63.0777 67.1851C61.4245 65.4748 58.6961 65.4261 56.9857 67.0793L49.8985 73.9234C49.2035 74.5955 49.1864 75.6966 49.8528 76.3887Z" fill="url(#paint0_linear_522_1411)"/>
<path d="M59.9001 71.9614C60.8905 71.9614 61.6933 71.1585 61.6933 70.1681C61.6933 69.1777 60.8905 68.3748 59.9001 68.3748C58.9097 68.3748 58.1068 69.1777 58.1068 70.1681C58.1068 71.1585 58.9097 71.9614 59.9001 71.9614Z" fill="#010101"/>
<path d="M75.7248 27.5934L74.5407 28.7374C74.6751 28.7574 74.8124 28.7917 74.9468 28.8403C75.1385 28.9061 75.3272 29.0034 75.5074 29.1235L76.3854 28.2769L77.089 29.0062L76.251 29.8156C76.4569 30.0845 76.5914 30.3733 76.66 30.6851C76.7487 31.0912 76.7201 31.5002 76.5656 31.9149C76.557 31.9378 76.5485 31.9549 76.5427 31.9778L80.258 33.0446L79.2884 33.9798L75.9078 32.9474C75.8678 32.9931 75.822 33.0332 75.7763 33.0789L74.5836 34.2315L73.8715 33.4936L75.1385 32.2695C75.3329 32.0808 75.4616 31.872 75.5274 31.6403C75.5903 31.4058 75.5875 31.1713 75.516 30.9282C75.4845 30.8281 75.4445 30.7365 75.3901 30.645L73.1822 32.7758L72.4786 32.0465L74.678 29.9214C74.6008 29.8728 74.5207 29.8356 74.4377 29.807C74.2004 29.7241 73.9658 29.7127 73.7285 29.7699C73.5168 29.8213 73.3166 29.93 73.1364 30.0959C73.1193 30.1073 73.1021 30.1216 73.0849 30.1417L71.8179 31.3658L71.1086 30.6336L75.0155 26.8612L75.7248 27.5934Z" fill="url(#paint1_linear_522_1411)"/>
<path d="M47.7564 38.1327L50.2103 40.6724L84.1077 7.93338L81.6537 5.39079L47.7564 38.1327Z" fill="url(#paint2_linear_522_1411)"/>
<path d="M78.522 19.4765L81.8998 22.9744L88.7925 16.3162L85.4148 12.8183L78.522 19.4765Z" fill="url(#paint3_linear_522_1411)"/>
<path d="M94.1465 40.701L102.226 32.8988C105.836 29.4152 105.936 23.6665 102.449 20.0571L85.7523 2.77384C82.2687 -0.835543 76.52 -0.935644 72.9106 2.55076L45.231 29.2894C41.6217 32.7729 41.5216 38.5216 45.008 42.131L51.8492 49.2125L43.7696 57.0147C40.1659 60.5011 40.0658 66.2527 43.5465 69.8564L60.2435 87.1454C63.7299 90.749 69.4814 90.8491 73.0851 87.3685L100.77 60.6298C104.38 57.1434 104.48 51.3919 100.993 47.7882L94.1465 40.701ZM97.2811 57.7498L70.328 83.7848C68.4089 85.641 65.3601 85.5838 63.5039 83.6676L47.133 66.7189C45.2825 64.8055 45.3369 61.751 47.2502 59.8948L54.9609 52.4472L58.3873 49.1381L65.8749 41.9051V47.5136H70.0763V34.8836H57.4778V38.7705H62.6516L55.2641 45.9034L48.5859 38.9878C46.7354 37.0687 46.7898 34.0142 48.7031 32.1637L75.662 6.12868C77.5754 4.27823 80.6299 4.32971 82.4804 6.24595L98.8513 23.1946C100.707 25.1137 100.65 28.1682 98.734 30.0187L91.0233 37.4663L87.597 40.7754L79.8691 48.2458V42.5H75.9823V55.1014H88.6123V50.8999H83.5843L90.7173 44.0072L97.4012 50.9257C99.2546 52.8448 99.2002 55.8993 97.2811 57.7498Z" fill="url(#paint4_linear_522_1411)"/>
<path d="M68.3604 62.9295C68.7122 63.2841 69.35 63.2212 69.7847 62.7893C71.1546 60.9389 72.5246 59.0913 73.8946 57.2408C72.0985 58.6623 70.3024 60.0837 68.5062 61.5052C68.0715 61.937 68.0086 62.5748 68.3604 62.9295Z" fill="url(#paint5_linear_522_1411)"/>
<path d="M69.7775 62.7977C70.0663 62.3888 70.0435 62.0456 69.7432 61.7424C66.7773 59.1626 63.8143 56.5828 60.8484 54.0031C63.3853 57.009 65.8077 59.9005 68.3446 62.9064C68.6449 63.2782 69.3999 63.3269 69.7775 62.7977Z" fill="url(#paint6_linear_522_1411)"/>
<path d="M69.0009 62.5861C69.2315 62.5861 69.4184 62.3991 69.4184 62.1685C69.4184 61.9379 69.2315 61.751 69.0009 61.751C68.7703 61.751 68.5833 61.9379 68.5833 62.1685C68.5833 62.3991 68.7703 62.5861 69.0009 62.5861Z" fill="white"/>
<defs>
<linearGradient id="paint0_linear_522_1411" x1="50.597" y1="78.9843" x2="73.038" y2="57.9693" gradientUnits="userSpaceOnUse">
<stop offset="0.1353" stop-color="#1143FC"/>
<stop offset="0.2125" stop-color="#0B5AFD"/>
<stop offset="0.345" stop-color="#008AFF"/>
<stop offset="0.4064" stop-color="#0898DD"/>
<stop offset="0.5414" stop-color="#1BBA87"/>
<stop offset="0.5775" stop-color="#21C46F"/>
<stop offset="0.7788" stop-color="#2FDD45"/>
</linearGradient>
<linearGradient id="paint1_linear_522_1411" x1="74.2521" y1="37.2939" x2="77.7646" y2="23.8868" gradientUnits="userSpaceOnUse">
<stop offset="0.1074" stop-color="#1143FC"/>
<stop offset="0.125" stop-color="#0E51FD"/>
<stop offset="0.1625" stop-color="#086AFE"/>
<stop offset="0.2017" stop-color="#037CFE"/>
<stop offset="0.2433" stop-color="#0187FF"/>
<stop offset="0.2916" stop-color="#008AFF"/>
<stop offset="0.3043" stop-color="#028DF8"/>
<stop offset="0.4444" stop-color="#12AAAF"/>
<stop offset="0.5447" stop-color="#1DBD81"/>
<stop offset="0.595" stop-color="#21C46F"/>
<stop offset="0.6656" stop-color="#22C66B"/>
<stop offset="0.7361" stop-color="#26CE5F"/>
<stop offset="0.8064" stop-color="#2DD94B"/>
<stop offset="0.8235" stop-color="#2FDD45"/>
</linearGradient>
<linearGradient id="paint2_linear_522_1411" x1="23.0749" y1="67.0139" x2="80.3305" y2="8.25558" gradientUnits="userSpaceOnUse">
<stop offset="0.336898" stop-color="#1143FC"/>
<stop offset="0.614061" stop-color="#208FA2"/>
<stop offset="0.86672" stop-color="#2FDD45"/>
</linearGradient>
<linearGradient id="paint3_linear_522_1411" x1="76.5937" y1="32.9981" x2="87.4888" y2="9.70513" gradientUnits="userSpaceOnUse">
<stop offset="0.0298" stop-color="#1143FC"/>
<stop offset="0.1501" stop-color="#0A62FD"/>
<stop offset="0.2879" stop-color="#037FFF"/>
<stop offset="0.3665" stop-color="#008AFF"/>
<stop offset="0.3782" stop-color="#028DF8"/>
<stop offset="0.5078" stop-color="#12AAAF"/>
<stop offset="0.6007" stop-color="#1DBD81"/>
<stop offset="0.6472" stop-color="#21C46F"/>
<stop offset="0.8159" stop-color="#2FDD45"/>
</linearGradient>
<linearGradient id="paint4_linear_522_1411" x1="41.8678" y1="89.6717" x2="104.797" y2="-0.713242" gradientUnits="userSpaceOnUse">
<stop offset="0.0298" stop-color="#1143FC"/>
<stop offset="0.1707" stop-color="#0A62FD"/>
<stop offset="0.3321" stop-color="#037FFF"/>
<stop offset="0.4242" stop-color="#008AFF"/>
<stop offset="0.5415" stop-color="#15AEAB"/>
<stop offset="0.618" stop-color="#21C479"/>
<stop offset="0.8494" stop-color="#2FDD45"/>
</linearGradient>
<linearGradient id="paint5_linear_522_1411" x1="73.8295" y1="57.1649" x2="67.9171" y2="63.4533" gradientUnits="userSpaceOnUse">
<stop offset="0.0447" stop-color="#206EFF"/>
<stop offset="0.1467" stop-color="#1A80E0"/>
<stop offset="0.2865" stop-color="#1395BA"/>
<stop offset="0.3603" stop-color="#109DAC"/>
<stop offset="0.4776" stop-color="#1AB288"/>
<stop offset="0.6754" stop-color="#29D34F"/>
<stop offset="0.7709" stop-color="#2FE039"/>
</linearGradient>
<linearGradient id="paint6_linear_522_1411" x1="62.9448" y1="56.3547" x2="72.9925" y2="66.1974" gradientUnits="userSpaceOnUse">
<stop offset="0.0447" stop-color="#206EFF"/>
<stop offset="0.1467" stop-color="#1A80E0"/>
<stop offset="0.2865" stop-color="#1395BA"/>
<stop offset="0.3603" stop-color="#109DAC"/>
<stop offset="0.4776" stop-color="#1AB288"/>
<stop offset="0.6754" stop-color="#29D34F"/>
<stop offset="0.7709" stop-color="#2FE039"/>
</linearGradient>
</defs>
</svg>
