<svg width="18" height="18" viewBox="0 0 18 18" fill="none" xmlns="http://www.w3.org/2000/svg">
<path d="M9 0C4.02991 0 0 4.02991 0 9C0 13.9701 4.02991 18 9 18C13.9701 18 18 13.9701 18 9C18 4.02991 13.9701 0 9 0ZM9 16.4732C4.87366 16.4732 1.52679 13.1263 1.52679 9C1.52679 4.87366 4.87366 1.52679 9 1.52679C13.1263 1.52679 16.4732 4.87366 16.4732 9C16.4732 13.1263 13.1263 16.4732 9 16.4732Z" fill="#757575"/>
<path d="M8.03577 5.46429C8.03577 5.72003 8.13736 5.9653 8.3182 6.14614C8.49904 6.32698 8.74431 6.42857 9.00005 6.42857C9.2558 6.42857 9.50107 6.32698 9.6819 6.14614C9.86274 5.9653 9.96434 5.72003 9.96434 5.46429C9.96434 5.20854 9.86274 4.96327 9.6819 4.78243C9.50107 4.60159 9.2558 4.5 9.00005 4.5C8.74431 4.5 8.49904 4.60159 8.3182 4.78243C8.13736 4.96327 8.03577 5.20854 8.03577 5.46429ZM9.4822 7.71429H8.51791C8.42952 7.71429 8.3572 7.78661 8.3572 7.875V13.3393C8.3572 13.4277 8.42952 13.5 8.51791 13.5H9.4822C9.57059 13.5 9.64291 13.4277 9.64291 13.3393V7.875C9.64291 7.78661 9.57059 7.71429 9.4822 7.71429Z" fill="#757575"/>
</svg>
