<svg width="24" height="24" viewBox="0 0 24 24" fill="none" xmlns="http://www.w3.org/2000/svg">
<path d="M19.3101 16.9055L18.9021 14.991C18.7946 14.4875 18.5862 14.0111 18.2895 13.5903C17.9929 13.1696 17.614 12.8133 17.1759 12.543L14.7593 11.0365C15.1427 10.5378 15.3719 9.93775 15.4184 9.31038L15.6067 7.52145C15.6672 7.03897 15.6237 6.54913 15.4791 6.08486C15.3345 5.6206 15.0921 5.19269 14.7683 4.82993C14.4445 4.46717 14.0468 4.17796 13.6018 3.98177C13.1569 3.78558 12.6751 3.68696 12.1889 3.69253H11.8123C11.3217 3.69131 10.8363 3.79333 10.3877 3.99197C9.93909 4.19061 9.5373 4.48142 9.20845 4.8455C8.87959 5.20958 8.63102 5.63879 8.4789 6.10522C8.32677 6.57165 8.27449 7.06488 8.32546 7.55284L8.51377 9.34176C8.58584 9.96316 8.81243 10.5566 9.17284 11.0679L6.75623 12.5744C6.32925 12.8462 5.96006 13.1996 5.66979 13.6142C5.37952 14.0289 5.17387 14.4968 5.0646 14.991L4.6566 16.9055C4.59612 17.2043 4.60242 17.5128 4.67507 17.8089C4.74772 18.105 4.88492 18.3814 5.07684 18.6183C5.26876 18.8552 5.51067 19.0468 5.78526 19.1793C6.05985 19.3118 6.36033 19.382 6.66521 19.3848H17.3046C17.6109 19.3868 17.9138 19.3198 18.1907 19.1888C18.4676 19.0577 18.7114 18.866 18.9041 18.6278C19.0967 18.3896 19.2333 18.1111 19.3035 17.8129C19.3738 17.5148 19.3761 17.2046 19.3101 16.9055V16.9055ZM10.3655 5.88945C10.5486 5.68851 10.7722 5.52866 11.0216 5.42047C11.271 5.31227 11.5405 5.25818 11.8123 5.26176H12.1889C12.4602 5.25862 12.7291 5.31293 12.9779 5.42111C13.2267 5.5293 13.4499 5.68891 13.6326 5.88945C13.8138 6.08617 13.9498 6.32011 14.0312 6.57491C14.1125 6.82971 14.1371 7.09921 14.1034 7.36453L13.9151 9.15345C13.8661 9.62712 13.6433 10.0658 13.2897 10.3848C12.9361 10.7037 12.4768 10.8802 12.0006 10.8802C11.5244 10.8802 11.0651 10.7037 10.7115 10.3848C10.3579 10.0658 10.1351 9.62712 10.0861 9.15345L9.89469 7.36453C9.86093 7.09921 9.88557 6.82971 9.96689 6.57491C10.0482 6.32011 10.1842 6.08617 10.3655 5.88945V5.88945ZM17.6781 17.6273C17.634 17.6855 17.5771 17.7328 17.5118 17.7655C17.4465 17.7982 17.3745 17.8153 17.3015 17.8156H6.66521C6.59299 17.8112 6.52239 17.7923 6.45767 17.7599C6.39295 17.7276 6.33544 17.6825 6.2886 17.6273C6.24405 17.5703 6.21253 17.5042 6.19627 17.4337C6.18 17.3633 6.17938 17.2901 6.19444 17.2193L6.59931 15.3048C6.66355 15.0138 6.7859 14.7386 6.95901 14.4959C7.13212 14.2533 7.35243 14.048 7.60675 13.8925L10.4628 12.1036C10.9332 12.3285 11.4477 12.4464 11.9692 12.4488C12.4911 12.4499 13.0063 12.3319 13.4757 12.1036L16.3285 13.8925C16.8348 14.2141 17.1953 14.721 17.3328 15.3048L17.7408 17.2193C17.7776 17.2843 17.7916 17.3596 17.7808 17.4335C17.77 17.5074 17.735 17.5755 17.6812 17.6273H17.6781Z" fill="white"/>
<path d="M14.9829 16.5603H13.4137C13.3104 16.5613 13.2079 16.5417 13.1122 16.5027C13.0165 16.4636 12.9296 16.4059 12.8565 16.3328C12.7835 16.2597 12.7257 16.1728 12.6867 16.0772C12.6476 15.9815 12.628 15.879 12.6291 15.7757V15.7757C12.628 15.6723 12.6476 15.5698 12.6867 15.4742C12.7257 15.3785 12.7835 15.2916 12.8565 15.2185C12.9296 15.1454 13.0165 15.0877 13.1122 15.0486C13.2079 15.0096 13.3104 14.99 13.4137 14.991H14.9829C15.0862 14.99 15.1887 15.0096 15.2844 15.0486C15.3801 15.0877 15.467 15.1454 15.5401 15.2185C15.6131 15.2916 15.6709 15.3785 15.7099 15.4742C15.749 15.5698 15.7686 15.6723 15.7675 15.7757C15.7686 15.879 15.749 15.9815 15.7099 16.0772C15.6709 16.1728 15.6131 16.2597 15.5401 16.3328C15.467 16.4059 15.3801 16.4636 15.2844 16.5027C15.1887 16.5417 15.0862 16.5613 14.9829 16.5603V16.5603Z" fill="#00E5D3"/>
</svg>
