<svg width="28" height="20" viewBox="0 0 28 20" fill="none" xmlns="http://www.w3.org/2000/svg">
<path d="M10.3882 10C11.7647 10 13.0941 9.47059 14.0588 8.54118C15.0353 7.6 15.5765 6.32941 15.5765 5C15.5765 3.67059 15.0235 2.4 14.0588 1.45882C13.0824 0.517647 11.7647 0 10.3882 0C9.01177 0 7.68236 0.529412 6.71766 1.45882C5.75295 2.38824 5.20001 3.67059 5.20001 5C5.20001 6.32941 5.75295 7.6 6.71766 8.54118C7.69413 9.47059 9.01177 10 10.3882 10ZM1.72941 20C1.72941 20 0 20 0 18.3294C0 16.6588 1.72942 11.6588 10.4 11.6588C19.0588 11.6588 20.8 16.6588 20.8 18.3294C20.8 20 19.0706 20 19.0706 20H1.72941ZM19.0471 2.49412C19.0471 2.27059 19.1412 2.05882 19.3059 1.90588C19.4706 1.75294 19.6824 1.65882 19.9176 1.65882H26.8471C27.0706 1.65882 27.2941 1.74118 27.4588 1.90588C27.6235 2.07059 27.7059 2.27059 27.7059 2.49412C27.7059 2.71765 27.6118 2.92941 27.4588 3.08235C27.2941 3.23529 27.0706 3.32941 26.8471 3.32941H19.9176C19.6824 3.32941 19.4706 3.24706 19.3059 3.08235C19.1412 2.92941 19.0471 2.71765 19.0471 2.49412ZM19.9176 6.65882C19.6824 6.65882 19.4706 6.74118 19.3059 6.90588C19.1412 7.05882 19.0471 7.27059 19.0471 7.49412C19.0471 7.71765 19.1412 7.92941 19.3059 8.08235C19.4706 8.23529 19.6824 8.32941 19.9176 8.32941H26.8471C27.0706 8.32941 27.2941 8.24706 27.4588 8.08235C27.6235 7.92941 27.7059 7.71765 27.7059 7.49412C27.7059 7.27059 27.6118 7.05882 27.4588 6.90588C27.2941 6.75294 27.0706 6.65882 26.8471 6.65882H19.9176ZM23.3882 11.6588C23.1647 11.6588 22.9412 11.7412 22.7765 11.9059C22.6118 12.0588 22.5177 12.2706 22.5177 12.4941C22.5177 12.7176 22.6118 12.9294 22.7765 13.0824C22.9412 13.2353 23.1647 13.3294 23.3882 13.3294H26.8471C27.0706 13.3294 27.2941 13.2471 27.4588 13.0824C27.6235 12.9294 27.7059 12.7176 27.7059 12.4941C27.7059 12.2706 27.6118 12.0588 27.4588 11.9059C27.2941 11.7529 27.0706 11.6588 26.8471 11.6588H23.3882ZM23.3882 16.6588C23.1647 16.6588 22.9412 16.7412 22.7765 16.9059C22.6118 17.0588 22.5177 17.2706 22.5177 17.4941C22.5177 17.7176 22.6118 17.9294 22.7765 18.0824C22.9412 18.2353 23.1647 18.3294 23.3882 18.3294H26.8471C27.0706 18.3294 27.2941 18.2471 27.4588 18.0824C27.6235 17.9294 27.7059 17.7176 27.7059 17.4941C27.7059 17.2706 27.6118 17.0588 27.4588 16.9059C27.2941 16.7529 27.0706 16.6588 26.8471 16.6588H23.3882Z" fill="#00CEB1"/>
</svg>
