<svg width="22" height="20" viewBox="0 0 22 20" fill="none" xmlns="http://www.w3.org/2000/svg">
<path d="M21.0948 7.89876C21.2007 7.66333 21.2242 7.40435 21.1654 7.14538C21.1183 6.89817 20.9888 6.66274 20.8005 6.48617L14.1848 0L12.3131 1.83637L16.6686 6.10948H0V8.71101H19.8705C20.1295 8.71101 20.3885 8.64038 20.6004 8.48734C20.824 8.34609 20.9888 8.1342 21.0948 7.89876ZM0.10594 12.1012C-4.31511e-06 12.3367 -0.0235447 12.5956 0.0353135 12.8546C0.0824 13.1018 0.211885 13.3373 0.400231 13.5138L7.01588 20L8.88759 18.1636L4.53207 13.8905H21.2007V11.3008H1.3302C1.07122 11.3008 0.812236 11.3714 0.600347 11.5244C0.376686 11.6539 0.211885 11.8658 0.10594 12.1012Z" fill="url(#paint0_linear_1203_4838)"/>
<defs>
<linearGradient id="paint0_linear_1203_4838" x1="28.9172" y1="1.54197" x2="-1.59482" y2="15.6326" gradientUnits="userSpaceOnUse">
<stop offset="0.203695" stop-color="#BBBBBB"/>
<stop offset="0.5114" stop-color="#A2A2A2"/>
<stop offset="0.8624" stop-color="#717171"/>
</linearGradient>
</defs>
</svg>
