<svg width="24" height="23" viewBox="0 0 24 23" fill="none" xmlns="http://www.w3.org/2000/svg">
<path d="M19.4598 0H3.80079C1.70268 0 0 1.70268 0 3.80079V13.8773C0 15.9754 1.70268 17.6781 3.80079 17.6781H4.98708L3.41466 21.3765C3.19136 21.9766 3.4984 22.6465 4.10317 22.8698C4.7033 23.0931 5.3732 22.7861 5.59651 22.1813L7.81092 16.9803C7.81557 16.971 7.82022 16.9616 7.82487 16.9477L7.83883 16.9151C7.84814 16.8919 7.85279 16.864 7.85744 16.8407C7.8714 16.7988 7.8807 16.7616 7.89 16.7197C7.89931 16.6779 7.89931 16.636 7.90396 16.5941C7.90396 16.5662 7.91327 16.543 7.91327 16.515C7.91327 16.5057 7.91327 16.5011 7.90861 16.4918C7.90861 16.4453 7.89931 16.4034 7.89466 16.3615C7.89 16.329 7.88535 16.2964 7.8807 16.2638C7.8714 16.2266 7.85744 16.1894 7.84814 16.1568C7.83418 16.1196 7.82487 16.0824 7.81092 16.0498C7.79696 16.0173 7.77835 15.9847 7.75975 15.9568C7.74114 15.9242 7.72253 15.8917 7.70392 15.8591C7.68066 15.8265 7.6574 15.7986 7.62949 15.7707C7.60622 15.7428 7.58296 15.7149 7.5597 15.6916C7.53179 15.6637 7.50388 15.6451 7.47131 15.6218C7.4434 15.5986 7.41084 15.5753 7.38292 15.5521C7.35501 15.5334 7.32245 15.5195 7.29453 15.5055C7.25732 15.4869 7.21545 15.4637 7.17823 15.4497C7.16893 15.4451 7.16427 15.4404 7.15497 15.4404C7.13171 15.4311 7.1038 15.4264 7.08053 15.4218C7.03867 15.4078 7.00145 15.3985 6.95958 15.3892C6.91771 15.3799 6.87584 15.3799 6.83397 15.3753C6.80606 15.3753 6.7828 15.366 6.75489 15.366H3.80079C2.98666 15.352 2.32606 14.6914 2.32606 13.8773V3.80079C2.32606 2.98666 2.98666 2.32606 3.80079 2.32606H19.4598C20.274 2.32606 20.9346 2.98666 20.9346 3.80079V13.8773C20.9346 14.6914 20.274 15.352 19.4598 15.352H11.3977C10.7557 15.352 10.2347 15.8731 10.2347 16.515C10.2347 17.157 10.7557 17.6781 11.3977 17.6781H19.4598C21.5579 17.6781 23.2606 15.9754 23.2606 13.8773V3.80079C23.2606 1.70268 21.5579 0 19.4598 0Z" fill="white"/>
<path d="M17.0437 6.74587C17.0437 6.10388 16.5227 5.58284 15.8807 5.58284H7.50684C6.86485 5.58284 6.34381 6.10388 6.34381 6.74587C6.34381 7.38786 6.86485 7.9089 7.50684 7.9089H15.8807C16.5227 7.9089 17.0437 7.38786 17.0437 6.74587Z" fill="#00E5D3"/>
<path d="M14.6119 12.0958H8.56415C7.92216 12.0958 7.40112 11.5747 7.40112 10.9327C7.40112 10.2908 7.92216 9.76971 8.56415 9.76971H14.6119C15.2539 9.76971 15.7749 10.2908 15.7749 10.9327C15.7749 11.5747 15.2539 12.0958 14.6119 12.0958Z" fill="#00E5D3"/>
</svg>
