<svg width="36" height="25" viewBox="0 0 36 25" fill="none" xmlns="http://www.w3.org/2000/svg">
<path d="M19.6075 14.4904C23.5683 14.5093 27.1842 11.2613 27.1842 7.30848C27.1842 2.99007 23.5683 2.124e-05 19.6075 0.00184592H16.2014C15.2359 -0.0201045 14.276 0.153908 13.3796 0.51333C12.4832 0.872752 11.6689 1.41013 10.986 2.09303C10.3031 2.77594 9.76562 3.59019 9.4062 4.48659C9.04678 5.383 8.87284 6.34295 8.89479 7.30848C8.91518 9.22856 9.69545 11.0623 11.0649 12.4084C12.4343 13.7544 14.2812 14.5031 16.2014 14.4904H19.6075Z" fill="#004A98"/>
<path d="M17.7188 11.1561V3.30997C18.5126 3.61468 19.1954 4.15264 19.6774 4.85303C20.1595 5.55342 20.4182 6.38339 20.4193 7.23363C20.4181 8.08386 20.1595 8.91379 19.6774 9.61416C19.1954 10.3145 18.5125 10.8526 17.7188 11.1573V11.1561ZM12.0112 7.23363C12.0126 6.3837 12.2711 5.5541 12.7528 4.85381C13.2344 4.15353 13.9167 3.61533 14.7099 3.30997V11.1561C13.9168 10.851 13.2346 10.313 12.7529 9.61293C12.2713 8.91286 12.0127 8.0834 12.0112 7.23363ZM16.2153 0.600342C14.4567 0.60147 12.7706 1.30078 11.5274 2.54463C10.2842 3.78848 9.58573 5.47505 9.58557 7.23363C9.58654 8.99163 10.2854 10.6774 11.5285 11.9205C12.7715 13.1636 14.4573 13.8624 16.2153 13.8633C17.9734 13.8625 19.6591 13.1638 20.9022 11.9207C22.1453 10.6775 22.8441 8.99168 22.8449 7.23363C22.8448 5.47505 22.1464 3.78848 20.9033 2.54463C19.6601 1.30078 17.9739 0.60147 16.2153 0.600342Z" fill="white"/>
<path d="M1.48228 19.4345C1.48228 20.0251 1.90442 20.0933 2.27909 20.0933C3.93408 20.0933 4.47723 18.8452 4.47723 17.7035C4.50081 17.3795 4.4555 17.0542 4.34433 16.7489C4.23316 16.4436 4.0586 16.1654 3.83218 15.9324C3.60575 15.6994 3.33258 15.517 3.03061 15.3972C2.72864 15.2774 2.40467 15.2228 2.08011 15.2372C1.76505 15.2372 1.62095 15.2597 1.48228 15.2682V19.4345ZM0.731052 15.8418C0.731052 15.1526 0.3716 15.1989 0.0273438 15.191V14.9915C0.325375 15.0067 0.631958 15.0067 0.931814 15.0067C1.25235 15.0067 1.68904 14.9915 2.25652 14.9915C4.23995 14.9915 5.32082 16.3162 5.32082 17.6731C5.32082 18.431 4.87623 20.3384 2.16475 20.3384C1.77427 20.3384 1.41349 20.3232 1.05402 20.3232C0.709159 20.3232 0.370992 20.3305 0.0273438 20.3384V20.1395C0.486555 20.0933 0.709156 20.0787 0.731052 19.5574V15.8418Z" fill="#004A98"/>
<path d="M6.41049 15.6583C6.31086 15.654 6.21665 15.612 6.14677 15.5409C6.07688 15.4698 6.03659 15.3748 6.03406 15.2751C6.0396 15.1778 6.08128 15.086 6.15092 15.0179C6.22056 14.9497 6.31309 14.91 6.41049 14.9065C6.50876 14.9066 6.60311 14.9453 6.67317 15.0143C6.74323 15.0832 6.78338 15.1768 6.78514 15.2751C6.78516 15.3753 6.74602 15.4715 6.67599 15.5431C6.60596 15.6147 6.51063 15.6561 6.41049 15.6583ZM5.59007 20.1397H5.73603C5.95074 20.1397 6.10088 20.1397 6.10088 19.8861V17.8102C6.10088 17.4738 5.98652 17.427 5.70247 17.2743V17.1527C6.06254 17.0444 6.49326 16.8997 6.52245 16.8778C6.5639 16.852 6.61175 16.8383 6.66055 16.8382C6.69826 16.8382 6.71401 16.8845 6.71401 16.9459V19.8867C6.71401 20.1403 6.88256 20.1403 7.09727 20.1403H7.22735V20.3392C6.96642 20.3392 6.69818 20.324 6.42326 20.324C6.14834 20.324 5.87157 20.3313 5.58813 20.3392L5.59007 20.1397Z" fill="#004A98"/>
<path d="M7.95562 17.8558C7.95562 17.573 7.87107 17.497 7.51222 17.3516V17.2056C7.85513 17.1018 8.19243 16.98 8.52256 16.8407C8.54567 16.8407 8.56756 16.8565 8.56756 16.9173V17.4148C8.93473 17.0827 9.40114 16.8809 9.89464 16.8407C10.5454 16.8407 10.7748 17.3157 10.7748 17.913V19.8891C10.7748 20.1428 10.9433 20.1428 11.158 20.1428H11.296V20.3416C11.0277 20.3416 10.7595 20.3265 10.484 20.3265C10.2085 20.3265 9.93305 20.3337 9.65631 20.3416V20.1428H9.795C10.0091 20.1428 10.1598 20.1428 10.1598 19.8891V17.9063C10.1598 17.469 9.89345 17.2549 9.45614 17.2549C9.13436 17.305 8.82932 17.4314 8.56637 17.6235V19.8897C8.56637 20.1434 8.73596 20.1434 8.95067 20.1434H9.08936V20.3423C8.82052 20.3423 8.55233 20.3271 8.27681 20.3271C8.00128 20.3271 7.72511 20.3344 7.44836 20.3423V20.1434H7.58765C7.80114 20.1434 7.95265 20.1434 7.95265 19.8897L7.95562 17.8558Z" fill="#004A98"/>
<path d="M13.2339 17.9798C13.4261 17.9798 13.448 17.8801 13.448 17.7876C13.456 17.6961 13.4444 17.6039 13.4141 17.5172C13.3838 17.4305 13.3354 17.3512 13.2722 17.2845C13.2089 17.2179 13.1322 17.1654 13.0472 17.1306C12.9622 17.0958 12.8707 17.0795 12.7789 17.0827C12.3118 17.0827 11.9882 17.4275 11.8988 17.9798H13.2339ZM11.8781 18.2231C11.8612 18.3706 11.8612 18.5196 11.8781 18.6671C11.8645 18.9893 11.973 19.3047 12.1818 19.5504C12.3906 19.7961 12.6844 19.954 13.0046 19.9924C13.2026 19.9811 13.3962 19.9298 13.5739 19.8417C13.7516 19.7536 13.9097 19.6304 14.0385 19.4797L14.1444 19.5861C13.9957 19.8339 13.7891 20.042 13.5426 20.1927C13.296 20.3434 13.0167 20.4323 12.7284 20.4517C11.5119 20.4517 11.2644 19.2723 11.2644 18.7821C11.2644 17.2804 12.2753 16.8357 12.8111 16.8357C12.9762 16.8252 13.1416 16.8483 13.2974 16.9039C13.4532 16.9594 13.5961 17.0461 13.7172 17.1587C13.8384 17.2713 13.9353 17.4074 14.002 17.5588C14.0688 17.7101 14.1039 17.8734 14.1054 18.0388C14.1064 18.0849 14.1042 18.1311 14.0987 18.1769L14.0293 18.2231H11.8781Z" fill="#004A98"/>
<path d="M14.2829 20.1395H14.4897C14.7044 20.1395 14.8547 20.1396 14.8547 19.8859V17.734C14.8547 17.4968 14.5719 17.45 14.4563 17.3885V17.2742C15.0153 17.0364 15.3223 16.8375 15.3923 16.8375C15.4379 16.8375 15.4598 16.8606 15.4598 16.9378V17.6269H15.4769C15.6673 17.3283 15.9896 16.8362 16.4567 16.8362C16.5121 16.8337 16.5675 16.8423 16.6196 16.8614C16.6716 16.8805 16.7193 16.9098 16.7599 16.9476C16.8005 16.9854 16.8332 17.0308 16.856 17.0814C16.8788 17.1319 16.8913 17.1865 16.8928 17.2419C16.8954 17.2914 16.8881 17.341 16.8713 17.3876C16.8545 17.4342 16.8286 17.477 16.7949 17.5135C16.7613 17.5499 16.7207 17.5793 16.6756 17.5998C16.6304 17.6204 16.5817 17.6316 16.5321 17.633C16.2949 17.633 16.295 17.4506 16.0274 17.4506C15.8733 17.4716 15.7318 17.5476 15.6291 17.6644C15.5265 17.7813 15.4694 17.9312 15.4683 18.0868V19.8865C15.4683 20.1401 15.6204 20.1401 15.8333 20.1401H16.259V20.339C15.8381 20.3317 15.517 20.3238 15.1874 20.3238C14.8723 20.3238 14.5524 20.3311 14.275 20.339L14.2829 20.1395Z" fill="#004A98"/>
<path d="M17.2323 19.2736C17.2505 19.5207 17.3589 19.7525 17.5369 19.9249C17.7149 20.0973 17.9501 20.1982 18.1977 20.2084C18.2753 20.2199 18.3545 20.2144 18.4298 20.1922C18.505 20.1699 18.5747 20.1316 18.6336 20.0798C18.6926 20.028 18.7395 19.964 18.7713 19.8922C18.803 19.8204 18.8188 19.7426 18.8175 19.6641C18.8175 18.7603 17.1478 19.051 17.1478 17.8175C17.1566 17.6734 17.195 17.5326 17.2605 17.4039C17.326 17.2752 17.4172 17.1614 17.5285 17.0694C17.6399 16.9775 17.7689 16.9094 17.9076 16.8694C18.0464 16.8294 18.192 16.8184 18.3352 16.837C18.6394 16.8443 18.9379 16.9204 19.2084 17.0596L19.2626 17.84H19.0856C19.082 17.7349 19.0574 17.6317 19.0132 17.5363C18.969 17.441 18.906 17.3555 18.8282 17.2849C18.7503 17.2142 18.659 17.16 18.5598 17.1253C18.4606 17.0905 18.3554 17.0761 18.2505 17.0828C18.1777 17.0746 18.1041 17.0814 18.034 17.1027C17.9639 17.1241 17.899 17.1595 17.8431 17.2068C17.7871 17.2541 17.7414 17.3123 17.7088 17.3779C17.6762 17.4435 17.6573 17.5151 17.6533 17.5882C17.6533 18.4847 19.4304 18.208 19.4304 19.4129C19.4304 19.9189 19.0248 20.4548 18.1124 20.4548C17.7845 20.4457 17.4638 20.3565 17.1783 20.1951L17.093 19.3143L17.2323 19.2736Z" fill="#004A98"/>
<path d="M26.3477 16.3778H26.1561C26.1052 15.9941 25.904 15.6462 25.5967 15.4108C25.2894 15.1754 24.9012 15.0717 24.5175 15.1224C23.6355 15.1224 22.3565 15.7118 22.3565 17.5511C22.3109 18.2053 22.5248 18.8511 22.9519 19.3487C23.379 19.8463 23.985 20.1556 24.6385 20.2097C25.0116 20.2098 25.3723 20.0762 25.6552 19.833C25.9381 19.5898 26.1246 19.2532 26.1805 18.8843L26.3561 18.93L26.1805 20.0485C25.6492 20.298 25.0725 20.4361 24.4858 20.4542C24.0981 20.4833 23.7087 20.4292 23.3436 20.2954C22.9786 20.1616 22.6464 19.9513 22.3694 19.6785C22.0923 19.4057 21.8768 19.0768 21.7374 18.7138C21.598 18.3509 21.5379 17.9623 21.561 17.5742C21.592 16.8331 21.9141 16.1342 22.4574 15.6293C23.0008 15.1243 23.7215 14.8541 24.4628 14.8774C25.0841 14.9101 25.6954 15.0475 26.271 15.2836L26.3477 16.3778Z" fill="#004A98"/>
<path d="M26.6245 20.1397H26.7698C26.9852 20.1397 27.1347 20.1397 27.1347 19.8861V15.6206C27.1347 15.1218 27.0204 15.1072 26.729 15.0227V14.901C27.0018 14.8148 27.2665 14.7045 27.5197 14.5714C27.5721 14.5365 27.6284 14.5081 27.6875 14.4868C27.735 14.4868 27.7484 14.533 27.7484 14.5945V19.8861C27.7484 20.1397 27.9164 20.1397 28.1317 20.1397H28.26V20.3386C28.0003 20.3386 27.7332 20.324 27.4565 20.324C27.1797 20.324 26.9048 20.3313 26.6219 20.3386L26.6245 20.1397Z" fill="#004A98"/>
<path d="M31.5425 19.9172C31.5425 20.0558 31.6259 20.0625 31.7573 20.0625C31.8485 20.0625 31.9634 20.0558 32.0614 20.0558V20.217C31.6884 20.2695 31.3197 20.3486 30.9581 20.4536L30.9198 20.4311V19.8107C30.5641 20.1873 30.0801 20.4167 29.5634 20.4536C29.4459 20.4567 29.329 20.4346 29.2207 20.3889C29.1124 20.3432 29.0151 20.2748 28.9353 20.1884C28.8555 20.102 28.7951 19.9996 28.7581 19.888C28.7212 19.7764 28.7086 19.6582 28.721 19.5413V17.5797C28.721 17.3808 28.6905 17.1886 28.2623 17.154V17.0086C28.5379 17.0007 29.1504 16.9545 29.2501 16.9545C29.3353 16.9545 29.3353 17.0086 29.3353 17.1765V19.1526C29.3353 19.3825 29.3352 20.0412 30.0043 20.0412C30.3539 19.9852 30.6775 19.8223 30.9306 19.5747V17.5134C30.9306 17.3608 30.5657 17.2762 30.2872 17.2002V17.0621C30.9763 17.0165 31.405 16.9551 31.4817 16.9551C31.5425 16.9551 31.5425 17.0092 31.5425 17.0938V19.9172Z" fill="#004A98"/>
<path d="M33.0669 19.4731C33.077 19.6787 33.1639 19.873 33.3102 20.0178C33.4566 20.1626 33.6517 20.2473 33.8574 20.2552C34.6779 20.2552 35.0216 19.45 35.0216 18.7682C35.0402 18.409 34.9255 18.0556 34.6995 17.7757C34.4736 17.4959 34.1523 17.3093 33.7973 17.2518C33.5189 17.2815 33.2602 17.4094 33.0675 17.6125L33.0669 19.4731ZM33.0669 17.3893C33.3744 17.0824 33.7764 16.8881 34.2079 16.8376C34.4083 16.8461 34.6048 16.8949 34.786 16.981C34.9671 17.0672 35.1291 17.189 35.262 17.3392C35.395 17.4894 35.4963 17.6648 35.5599 17.8551C35.6235 18.0453 35.6482 18.2464 35.6324 18.4464C35.6521 18.9545 35.471 19.4499 35.1282 19.8255C34.7855 20.2012 34.3088 20.4268 33.801 20.4536C33.4298 20.4534 33.0645 20.3616 32.7372 20.1865L32.506 20.3623L32.3455 20.2784C32.416 19.8272 32.452 19.3713 32.4531 18.9147V15.6212C32.4531 15.1224 32.3376 15.1078 32.0463 15.0233V14.9017C32.3191 14.8155 32.5836 14.7051 32.8368 14.572C32.8898 14.5372 32.9468 14.509 33.0066 14.488C33.0522 14.488 33.0675 14.5337 33.0675 14.5951L33.0669 17.3893Z" fill="#004A98"/>
<path d="M0.0182942 24.7933H0.0791763C0.229408 24.7933 0.386854 24.772 0.386854 24.5548V22.3725C0.386854 22.1548 0.2288 22.1341 0.0791763 22.1341H0.0182942V22.0088C0.181299 22.0088 0.431957 22.0252 0.636322 22.0252C0.840686 22.0252 1.0943 22.0088 1.28954 22.0088V22.1341H1.22866C1.08025 22.1341 0.920834 22.1548 0.920834 22.3725V24.5548C0.920834 24.772 1.08025 24.7933 1.22866 24.7933H1.28954V24.9186C1.09004 24.9186 0.838841 24.9015 0.630827 24.9015C0.422814 24.9015 0.180705 24.9186 0.0177002 24.9186L0.0182942 24.7933Z" fill="#004A98"/>
<path d="M1.27125 24.8996V24.8108H1.23101C1.08199 24.8108 0.905079 24.7859 0.90447 24.5548V22.3724C0.90447 22.1419 1.08199 22.1158 1.23101 22.1158H1.27125V22.027C1.07966 22.027 0.837467 22.044 0.636144 22.044C0.434821 22.044 0.198303 22.0276 0.0371232 22.027V22.1158H0.0766224C0.225638 22.1158 0.403307 22.1419 0.403307 22.3724V24.5548C0.403307 24.7859 0.225638 24.8108 0.0766224 24.8108H0.0371232V24.8996C0.198303 24.8996 0.434326 24.8832 0.631392 24.8832C0.828457 24.8832 1.07479 24.899 1.27125 24.8996ZM1.28877 24.9349C1.08806 24.9349 0.838203 24.9185 0.630798 24.9185C0.423393 24.9185 0.1825 24.9349 0.0176707 24.9349H0V24.7737H0.0760284C0.227477 24.7701 0.364939 24.7585 0.367371 24.5542V22.3718C0.367371 22.1669 0.227477 22.1541 0.0760284 22.151H0V21.9893H0.0176707C0.1825 21.9893 0.430577 22.0057 0.63555 22.0057C0.840522 22.0057 1.09231 21.9893 1.28877 21.9893H1.30837V22.151H1.23101C1.08017 22.151 0.941594 22.1669 0.941594 22.3718V24.5542C0.941594 24.7585 1.08017 24.7707 1.23101 24.7737H1.30837V24.9349H1.28877Z" fill="#004A98"/>
<path d="M4.15433 24.0968L4.1622 24.0877V22.5251C4.1694 22.4743 4.16512 22.4226 4.14972 22.3736C4.13433 22.3247 4.10824 22.2797 4.07325 22.2422C4.03827 22.2046 3.99523 22.1754 3.94748 22.1566C3.89973 22.1378 3.8484 22.1299 3.7972 22.1335H3.70543V22.0082C3.90128 22.0082 4.09347 22.0246 4.28871 22.0246C4.45963 22.0246 4.63116 22.0082 4.80146 22.0082V22.1335H4.74058C4.5648 22.1335 4.36831 22.1669 4.36831 22.6626V24.5597C4.36588 24.7004 4.37423 24.8411 4.39325 24.9806H4.2357L2.08879 22.5878V24.3048C2.08879 24.6698 2.15862 24.7914 2.48037 24.7914H2.55164V24.9167C2.37222 24.9167 2.19278 24.8997 2.01336 24.8997C1.83393 24.8997 1.63375 24.9167 1.44641 24.9167V24.7914H1.50729C1.79559 24.7914 1.88253 24.595 1.88253 24.2617V22.5063C1.88262 22.4567 1.87279 22.4076 1.85373 22.3618C1.83466 22.3161 1.80672 22.2745 1.77146 22.2397C1.7362 22.2048 1.69435 22.1773 1.64836 22.1588C1.60238 22.1402 1.55316 22.131 1.50358 22.1316H1.44953V22.0063C1.60767 22.0063 1.76998 22.0228 1.92812 22.0228C2.05403 22.0228 2.17146 22.0063 2.2998 22.0063L4.15433 24.0968Z" fill="#004A98"/>
<path d="M4.14443 24.0896L4.14013 24.0859L4.14443 24.0896ZM4.15349 24.0987L4.16626 24.0865L4.15349 24.0987ZM4.23739 24.9636H4.37489C4.35728 24.8303 4.34969 24.6959 4.35232 24.5616V22.6645C4.35232 22.1652 4.56162 22.1171 4.74227 22.1171H4.78607V22.0283C4.62124 22.0283 4.45704 22.0453 4.291 22.0453C4.10062 22.0453 3.91512 22.0289 3.72657 22.0283V22.1171H3.79948C3.85281 22.1144 3.90608 22.1234 3.95555 22.1435C4.00502 22.1636 4.04947 22.1943 4.08578 22.2334C4.12209 22.2726 4.14935 22.3192 4.16567 22.3701C4.18198 22.4209 4.18696 22.4747 4.18022 22.5276L4.17547 24.103L4.16686 24.1109L4.15349 24.1236L2.29956 22.0277C2.17487 22.0277 2.05636 22.0447 1.92803 22.0447C1.77536 22.0447 1.61841 22.0283 1.46696 22.0277V22.1165H1.50349C1.55551 22.1158 1.60712 22.1254 1.65539 22.1448C1.70366 22.1643 1.74756 22.1931 1.78458 22.2297C1.8216 22.2662 1.85099 22.3098 1.87101 22.3578C1.89103 22.4058 1.90138 22.4574 1.9013 22.5094V24.2648C1.9013 24.5981 1.80811 24.8122 1.50764 24.8122H1.46696V24.9016C1.64942 24.9016 1.83183 24.8852 2.0143 24.8852C2.19677 24.8852 2.36162 24.9003 2.53314 24.9016V24.8134H2.48146C2.15241 24.8134 2.07147 24.6704 2.07147 24.3067V22.5429L4.23739 24.9636ZM4.39553 24.9995L4.22284 24.9934L2.108 22.6359V24.3067C2.11287 24.6716 2.16882 24.772 2.48205 24.7757H2.57085V24.9368H2.55318C2.37071 24.9368 2.19265 24.9204 2.01504 24.9204C1.82771 24.9204 1.63604 24.9368 1.4481 24.9368H1.42983V24.7757H1.50586C1.782 24.7757 1.85993 24.5974 1.86358 24.2653V22.5082C1.86351 22.4607 1.85398 22.4136 1.83552 22.3698C1.81705 22.326 1.7899 22.2863 1.75592 22.2531C1.72195 22.2198 1.68177 22.1937 1.63757 22.1762C1.59338 22.1587 1.54611 22.1502 1.49859 22.1512H1.42627V21.9906H1.44439C1.60313 21.9906 1.7662 22.0058 1.92313 22.0058C2.04477 22.0058 2.16645 21.9906 2.30817 21.9961L4.14072 24.0586V22.5252C4.14072 22.1931 3.91636 22.1536 3.79533 22.1505H3.68514V21.99H3.70341C3.89987 21.99 4.09268 22.0052 4.2861 22.0052C4.4564 22.0052 4.62792 21.99 4.79944 21.99H4.81829V22.1505H4.73796C4.56522 22.156 4.38882 22.17 4.38395 22.6615V24.5585C4.38142 24.698 4.38957 24.8375 4.4083 24.9758L4.41261 24.997L4.39553 24.9995Z" fill="#004A98"/>
<path d="M5.42827 22.2166C5.11564 22.2166 5.10291 22.2908 5.04026 22.5955H4.91553C4.93134 22.4794 4.95324 22.3626 4.96601 22.2416C4.98207 22.1243 4.99022 22.006 4.99037 21.8876H5.09016C5.12361 22.0129 5.22829 22.0092 5.34081 22.0092H7.49203C7.60455 22.0092 7.70789 22.0055 7.7164 21.8802L7.81678 21.8973C7.80036 22.0092 7.78275 22.1223 7.77119 22.2343C7.75964 22.3462 7.76273 22.4599 7.76273 22.5718L7.6374 22.6187C7.62889 22.4648 7.60755 22.2178 7.32898 22.2178H6.64606V24.436C6.64606 24.7572 6.79196 24.7943 6.99146 24.7943H7.0712V24.9196C6.9088 24.9196 6.61613 24.9026 6.3917 24.9026C6.14171 24.9026 5.84921 24.9196 5.68621 24.9196V24.7943H5.76535C5.99587 24.7943 6.11075 24.773 6.11075 24.4439V22.2178L5.42827 22.2166Z" fill="#004A98"/>
<path d="M7.0719 24.9354C6.90768 24.9354 6.61698 24.919 6.39254 24.919C6.14256 24.919 5.85128 24.9354 5.68705 24.9354H5.66998V24.7743H5.76605C5.99718 24.7694 6.08967 24.7663 6.09392 24.4434V22.2355H5.42912V22.199H6.13045V24.444C6.13045 24.7785 5.99537 24.8089 5.76546 24.8126H5.70458V24.9001C5.8688 24.9001 6.14869 24.8843 6.39076 24.8843C6.6079 24.8843 6.88582 24.8995 7.05126 24.9001V24.8126H6.99038C6.78905 24.8126 6.62553 24.7627 6.62553 24.4361V22.1996H7.32686C7.60604 22.1996 7.64368 22.4381 7.6528 22.5932L7.7422 22.5603C7.7422 22.4514 7.74216 22.3425 7.75007 22.2331C7.75797 22.1236 7.77746 22.0196 7.79328 21.9138L7.73254 21.9034C7.71247 22.0251 7.59621 22.0305 7.48916 22.0287H5.31849C5.21935 22.0287 5.11283 22.025 5.07512 21.907H5.00636C5.00516 22.02 4.99682 22.1328 4.98142 22.2446C4.96925 22.3596 4.94983 22.4691 4.93523 22.5798H5.02344C5.07879 22.289 5.11474 22.1948 5.42615 22.199V22.2355C5.11778 22.2416 5.12194 22.2927 5.05626 22.6004V22.615H4.89514L4.89811 22.5938C4.91453 22.4764 4.93643 22.3602 4.9486 22.2392C4.96565 22.1229 4.97419 22.0056 4.97414 21.8882V21.8706H5.10615V21.8827C5.13413 21.9886 5.21265 21.9886 5.31909 21.9904H7.48976C7.60532 21.9904 7.6905 21.9873 7.6978 21.8779V21.859L7.71725 21.8626L7.83337 21.8815V21.8991C7.81756 22.0111 7.80114 22.1236 7.78897 22.2355C7.77681 22.3474 7.78051 22.4587 7.78051 22.5713V22.584L7.76833 22.5895L7.62177 22.6424V22.6181C7.6096 22.4624 7.59379 22.2355 7.33043 22.2355H6.66562V24.4355C6.66866 24.7493 6.7934 24.7712 6.9929 24.7749H7.09016V24.936L7.0719 24.9354Z" fill="#004A98"/>
<path d="M7.94958 24.7933H8.01032C8.16055 24.7933 8.31933 24.772 8.31933 24.5548V22.3725C8.31933 22.1548 8.16055 22.1341 8.01032 22.1341H7.94958V22.0088C8.20322 22.0088 8.63746 22.0252 8.98354 22.0252C9.32962 22.0252 9.76808 22.0088 10.0509 22.0088C10.0442 22.1876 10.051 22.4644 10.0595 22.6468L9.93791 22.6803C9.91723 22.4096 9.86785 22.1937 9.42932 22.1937H8.85094V23.2849H9.34601C9.5966 23.2849 9.65012 23.1438 9.67567 22.9199H9.8004C9.79249 23.0829 9.78822 23.2453 9.78822 23.4065C9.78822 23.5677 9.79249 23.7234 9.8004 23.8821L9.67567 23.9065C9.65073 23.6571 9.63801 23.4947 9.35032 23.4947H8.85094V24.4648C8.85094 24.7361 9.09422 24.7361 9.35819 24.7361C9.85815 24.7361 10.0796 24.7027 10.2049 24.2282L10.321 24.2568C10.2669 24.4782 10.217 24.699 10.1805 24.921C9.91353 24.921 9.43366 24.904 9.05838 24.904C8.68311 24.904 8.18798 24.921 7.95077 24.921L7.94958 24.7933Z" fill="#004A98"/>
<path d="M10.1636 24.8998C10.2007 24.6899 10.2487 24.4789 10.2991 24.269L10.217 24.2483C10.0917 24.7155 9.85216 24.7568 9.35889 24.7532C9.09613 24.7532 8.83338 24.7532 8.83277 24.4637V23.4753H9.35027C9.64101 23.4723 9.67024 23.6474 9.69092 23.8846L9.7809 23.8652C9.773 23.7125 9.76873 23.561 9.76873 23.4053C9.76873 23.2496 9.773 23.0927 9.7809 22.9352H9.69092C9.6678 23.1529 9.60035 23.305 9.34611 23.3001H8.83277V22.1719H9.42942C9.86309 22.1719 9.93489 22.3926 9.95375 22.6542L10.0443 22.6304C10.0364 22.5131 10.0316 22.3616 10.0316 22.2223C10.0316 22.1512 10.0315 22.0837 10.0351 22.0247C9.7523 22.0247 9.32967 22.0417 8.98602 22.0417C8.64237 22.0417 8.22268 22.0253 7.96662 22.0247V22.1135H8.0073C8.15632 22.1135 8.33338 22.1396 8.33399 22.3701V24.5525C8.33399 24.7836 8.15632 24.8085 8.0073 24.8091H7.96662V24.8967C8.20991 24.8967 8.6916 24.8809 9.05715 24.8809C9.42269 24.8809 9.89414 24.8967 10.163 24.8967L10.1636 24.8998ZM10.1787 24.9332C9.91049 24.9332 9.43182 24.9168 9.05715 24.9168C8.68248 24.9168 8.18675 24.9332 7.94954 24.9332H7.93127V24.772H8.0073C8.15814 24.772 8.29503 24.7568 8.29746 24.5525V22.3701C8.29746 22.1664 8.15814 22.153 8.0073 22.1493H7.93127V21.9888H7.94954C8.20317 21.9888 8.63681 22.004 8.9835 22.004C9.33018 22.004 9.76758 21.9888 10.051 21.9888H10.0705V22.007C10.0668 22.0679 10.0656 22.1439 10.0656 22.2223C10.0656 22.3671 10.0704 22.5264 10.0789 22.6426V22.6584L10.0656 22.6621L9.91959 22.7004V22.6791C9.89466 22.4091 9.85881 22.212 9.43001 22.2089H8.86856V23.2636H9.3473C9.58755 23.2636 9.63012 23.1389 9.6581 22.9139V22.8968H9.81803V22.9163C9.81012 23.0781 9.80526 23.2405 9.80526 23.4029C9.80526 23.5653 9.81012 23.7186 9.81803 23.8773V23.8931H9.80288L9.6581 23.9229V23.9029C9.63012 23.648 9.6283 23.5093 9.35399 23.5063H8.87168V24.4594C8.87168 24.713 9.09118 24.7112 9.36245 24.713C9.86363 24.7094 10.0662 24.6857 10.1903 24.2167L10.1952 24.2003L10.2127 24.2033L10.3459 24.2374L10.3429 24.255C10.2882 24.4746 10.2384 24.696 10.2019 24.9174L10.1982 24.9307L10.1787 24.9332Z" fill="#004A98"/>
<path d="M11.417 23.4168H11.6207C12.038 23.4168 12.2618 23.2593 12.2618 22.7672C12.2678 22.6858 12.2561 22.6041 12.2276 22.5276C12.1992 22.4511 12.1547 22.3816 12.0969 22.3239C12.0392 22.2662 11.9697 22.2216 11.8932 22.1931C11.8167 22.1647 11.735 22.153 11.6535 22.159C11.5742 22.1599 11.4951 22.1652 11.4164 22.1748L11.417 23.4168ZM10.8835 22.4504C10.8835 22.1462 10.7169 22.1335 10.5874 22.1335H10.5125V22.0082C10.6457 22.0082 10.9036 22.0246 11.1591 22.0246C11.4145 22.0246 11.6086 22.0082 11.8282 22.0082C12.3531 22.0082 12.8201 22.1493 12.8201 22.7423C12.8148 22.9105 12.7556 23.0726 12.6513 23.2047C12.5469 23.3367 12.403 23.4318 12.2405 23.4758L12.9527 24.5421C12.9914 24.6164 13.0495 24.6789 13.1208 24.723C13.1921 24.7671 13.274 24.7912 13.3578 24.7926V24.9179C13.2197 24.9179 13.0853 24.9009 12.9484 24.9009C12.8116 24.9009 12.6864 24.9179 12.558 24.9179C12.2379 24.4881 11.9481 24.0365 11.6907 23.5665H11.4157V24.4594C11.4157 24.7805 11.5653 24.7926 11.7563 24.7926H11.8317V24.9179C11.5939 24.9179 11.3531 24.9009 11.1147 24.9009C10.9139 24.9009 10.7194 24.9179 10.5107 24.9179V24.7926H10.5854C10.7405 24.7926 10.8817 24.7215 10.8817 24.567L10.8835 22.4504Z" fill="#004A98"/>
<path d="M11.6201 23.3992C12.0331 23.3956 12.2412 23.2521 12.2448 22.7679C12.2507 22.6888 12.2395 22.6093 12.2118 22.5349C12.1842 22.4604 12.1409 22.3929 12.0847 22.3368C12.0286 22.2806 11.9611 22.2373 11.8866 22.2097C11.8122 22.182 11.7327 22.1708 11.6535 22.1767C11.5799 22.1772 11.5065 22.1823 11.4334 22.1919V23.3999L11.6201 23.3992ZM11.417 23.4351H11.3981V22.1579H11.414C11.4937 22.1476 11.5739 22.1424 11.6543 22.1421C11.738 22.1363 11.822 22.1485 11.9006 22.178C11.9793 22.2074 12.0507 22.2534 12.1101 22.3127C12.1695 22.3721 12.2156 22.4435 12.2451 22.5221C12.2746 22.6007 12.287 22.6847 12.2813 22.7685C12.2813 23.266 12.041 23.4376 11.6207 23.4376L11.417 23.4351ZM11.417 23.5489H11.7016L11.7059 23.5586C11.9617 24.0231 12.246 24.4712 12.5574 24.9003C12.6839 24.9003 12.8178 24.8839 12.9485 24.8839C13.0793 24.8839 13.2106 24.8979 13.3389 24.8998V24.8085C13.2556 24.8046 13.1749 24.7789 13.1046 24.7341C13.0343 24.6893 12.9769 24.6269 12.9381 24.5531L12.2126 23.468L12.2332 23.4588C12.3922 23.4163 12.5332 23.3237 12.6355 23.1948C12.7378 23.0658 12.796 22.9074 12.8014 22.743C12.8014 22.1639 12.3512 22.0295 11.8281 22.0271C11.6086 22.0271 11.4084 22.0441 11.159 22.0441C10.9097 22.0441 10.6664 22.0277 10.5302 22.0271V22.1159H10.5873C10.7169 22.1159 10.9012 22.1372 10.9012 22.4504V24.5682C10.9012 24.7355 10.7449 24.8115 10.5873 24.8115H10.5302V24.8991C10.7309 24.8991 10.9207 24.8833 11.116 24.8833C11.3501 24.8833 11.5848 24.8991 11.816 24.8991V24.8115H11.7582C11.5678 24.8115 11.3987 24.7884 11.3987 24.4594V23.5471L11.417 23.5489ZM13.3585 24.9356C13.2192 24.9356 13.086 24.9192 12.9497 24.9192C12.8226 24.9192 12.6894 24.9356 12.5434 24.9289C12.2256 24.5016 11.9376 24.0529 11.6816 23.586H11.434V24.4594C11.4395 24.7726 11.5654 24.7702 11.7582 24.7745H11.8519V24.9356H11.8324C11.5946 24.9356 11.3512 24.9192 11.1152 24.9192C10.9169 24.9192 10.7211 24.9356 10.5119 24.9356H10.493V24.7745H10.5861C10.737 24.7745 10.8635 24.7093 10.8641 24.5682V22.4492C10.8605 22.1542 10.7157 22.1554 10.5861 22.1506H10.493V21.9888H10.5119C10.6469 21.9888 10.903 22.0052 11.1584 22.0052C11.4139 22.0052 11.6062 21.9888 11.8275 21.9888C12.3531 21.9888 12.8365 22.1354 12.8377 22.7411C12.8328 22.909 12.7751 23.071 12.6728 23.2041C12.5704 23.3372 12.4287 23.4347 12.2678 23.4826L12.968 24.5312C13.0047 24.6037 13.0606 24.6647 13.1297 24.7076C13.1988 24.7505 13.2784 24.7737 13.3597 24.7745H13.3748V24.9332L13.3585 24.9356Z" fill="#004A98"/>
<path d="M16.1898 24.0968L16.1971 24.0877V22.5251C16.2043 22.4743 16.2 22.4226 16.1846 22.3736C16.1692 22.3247 16.1431 22.2797 16.1081 22.2422C16.0732 22.2046 16.0301 22.1754 15.9824 22.1566C15.9346 22.1378 15.8833 22.1299 15.8321 22.1335H15.7415V22.0082C15.9368 22.0082 16.1283 22.0246 16.3248 22.0246C16.4963 22.0246 16.6654 22.0082 16.8381 22.0082V22.1335H16.7774C16.6035 22.1335 16.4063 22.1669 16.4063 22.6626V24.5597C16.4044 24.7004 16.4129 24.8411 16.4319 24.9806H16.2731L14.1273 22.5878V24.3048C14.1273 24.6698 14.1978 24.7914 14.519 24.7914H14.5901V24.9167C14.4113 24.9167 14.2314 24.8997 14.0532 24.8997C13.8646 24.8997 13.6729 24.9167 13.4862 24.9167V24.7914H13.5434C13.8323 24.7914 13.92 24.595 13.92 24.2617V22.5063C13.92 22.4567 13.9102 22.4076 13.8911 22.3618C13.8721 22.3161 13.8441 22.2745 13.8089 22.2397C13.7736 22.2048 13.7318 22.1773 13.6858 22.1588C13.6398 22.1402 13.5906 22.131 13.541 22.1316H13.4862V22.0063C13.6431 22.0063 13.8068 22.0228 13.9644 22.0228C14.086 22.0228 14.2112 22.0063 14.3359 22.0063L16.1898 24.0968Z" fill="#004A98"/>
<path d="M16.1783 24.0881V24.0845V24.0881ZM16.1893 24.0973L16.2021 24.0851L16.1893 24.0973ZM16.272 24.9628H16.4089C16.392 24.8295 16.3844 24.6951 16.3863 24.5607V22.6631C16.3863 22.1637 16.5981 22.1157 16.7763 22.1157H16.8199V22.0269C16.6557 22.0269 16.4915 22.0439 16.326 22.0439C16.1345 22.0439 15.9484 22.0275 15.7604 22.0269V22.1157H15.8335C15.8868 22.1128 15.9401 22.1218 15.9896 22.1418C16.0391 22.1618 16.0836 22.1924 16.1199 22.2315C16.1563 22.2706 16.1836 22.3172 16.2 22.368C16.2164 22.4188 16.2215 22.4726 16.2148 22.5256L16.2081 24.1015L16.2009 24.1094L16.1881 24.1222L14.3336 22.0263C14.2119 22.0263 14.0902 22.0433 13.9625 22.0433C13.808 22.0433 13.6523 22.0269 13.5002 22.0263V22.1151H13.5385C13.5904 22.1147 13.6419 22.1245 13.6898 22.1441C13.7378 22.1637 13.7814 22.1926 13.8181 22.2291C13.8549 22.2656 13.8841 22.3091 13.904 22.357C13.9238 22.4048 13.9341 22.4562 13.934 22.508V24.2627C13.934 24.5972 13.8397 24.8101 13.5411 24.8101H13.5002V24.8983C13.6827 24.8983 13.8652 24.8825 14.0477 24.8825C14.2302 24.8825 14.3962 24.8977 14.5683 24.8983V24.8107H14.5155C14.1876 24.8107 14.1061 24.6678 14.1043 24.3041V22.5402L16.272 24.9628ZM16.4301 24.9987L16.258 24.9926L14.1462 22.6315V24.3023C14.1516 24.6672 14.207 24.7676 14.5202 24.7712H14.609V24.9324H14.5902C14.4077 24.9324 14.2308 24.9159 14.0526 24.9159C13.8744 24.9159 13.6736 24.9324 13.4875 24.9324H13.4674V24.7712H13.544C13.8189 24.7712 13.8987 24.593 13.9012 24.2597V22.5098C13.9012 22.4627 13.8919 22.4161 13.8738 22.3726C13.8558 22.3291 13.8293 22.2897 13.7959 22.2565C13.7624 22.2234 13.7226 22.1972 13.679 22.1795C13.6354 22.1618 13.5887 22.1529 13.5417 22.1534H13.4674V21.9916H13.4875C13.6456 21.9916 13.8093 22.008 13.9656 22.008C14.0872 22.008 14.2088 21.9916 14.3481 21.9971L16.1814 24.0608V22.5268C16.1814 22.1954 15.9581 22.1546 15.8371 22.1528H15.727V21.991H15.7453C15.9424 21.991 16.1345 22.0074 16.3292 22.0074C16.4989 22.0074 16.6698 21.991 16.8419 21.991H16.8602V22.1528H16.7792C16.6077 22.1577 16.4307 22.1722 16.4264 22.6637V24.5613C16.4241 24.701 16.4323 24.8407 16.4508 24.9792V24.9999L16.4301 24.9987Z" fill="#004A98"/>
<path d="M18.1185 22.4753H18.1095L17.7225 23.6559H18.5005L18.1185 22.4753ZM17.5103 24.3219C17.4677 24.4268 17.4363 24.5358 17.4166 24.6473C17.4166 24.7726 17.5925 24.7939 17.7299 24.7939H17.7761V24.9192C17.6089 24.9094 17.4385 24.9021 17.2712 24.9021C17.121 24.9021 16.972 24.9094 16.8212 24.9192V24.7939H16.8467C16.9283 24.7937 17.0076 24.7672 17.0729 24.7182C17.1381 24.6691 17.1857 24.6003 17.2086 24.522L17.8777 22.6097C17.9432 22.4416 17.9954 22.2685 18.0335 22.0921C18.1654 22.0455 18.2922 21.9858 18.4123 21.9139C18.4227 21.9094 18.4338 21.9065 18.4451 21.9054C18.4508 21.9043 18.4567 21.905 18.462 21.9073C18.4673 21.9095 18.4718 21.9133 18.4749 21.9182C18.4877 21.951 18.4999 21.9887 18.5132 22.0222L19.2796 24.2021C19.3301 24.348 19.3793 24.5013 19.4335 24.6278C19.4548 24.682 19.4936 24.7277 19.5435 24.7578C19.5934 24.788 19.6517 24.8008 19.7097 24.7945H19.734V24.9198C19.5467 24.91 19.3593 24.9028 19.1598 24.9028C18.9603 24.9028 18.7463 24.91 18.5346 24.9198V24.7945H18.5802C18.6751 24.7945 18.8387 24.7774 18.8387 24.6728C18.8229 24.5684 18.7942 24.4662 18.7535 24.3687L18.5924 23.8858H17.6453L17.5103 24.3219Z" fill="#004A98"/>
<path d="M18.0997 22.4807L18.1093 22.4777L18.0997 22.4807ZM17.7457 23.6364H18.4755L18.1105 22.5203L17.7457 23.6364ZM17.6958 23.6722L18.0948 22.4558H18.1178V22.4741H18.1136H18.1178V22.4558H18.13L18.526 23.6722H17.6958ZM18.5472 24.8985C18.7522 24.8912 18.9553 24.8832 19.1554 24.8832C19.3556 24.8832 19.5289 24.8912 19.7108 24.8985V24.8109H19.7053C19.6438 24.8174 19.5819 24.8036 19.5291 24.7715C19.4762 24.7394 19.4354 24.6908 19.4128 24.6333C19.3587 24.5074 19.3076 24.3529 19.2589 24.2075L18.4912 22.0276C18.4785 21.9948 18.4658 21.9571 18.4555 21.9273C18.4518 21.9236 18.4554 21.9236 18.45 21.9236H18.4415C18.4332 21.9241 18.425 21.9258 18.4171 21.9285C18.3016 22.0003 18.177 22.0566 18.0466 22.0957C18.0082 22.2728 17.9562 22.4467 17.891 22.6158L17.2219 24.5292C17.1978 24.611 17.1478 24.6828 17.0795 24.7338C17.0112 24.7848 16.9282 24.8123 16.843 24.8121H16.8363V24.8996C16.9786 24.8924 17.1234 24.8845 17.2675 24.8845C17.4293 24.8845 17.5942 24.8924 17.7541 24.8996V24.8121H17.7274C17.5911 24.8121 17.4014 24.7957 17.3965 24.6485C17.416 24.5355 17.4471 24.4248 17.4895 24.3182L17.5084 24.3231L17.4895 24.3176L17.6264 23.8717H18.5996L18.7668 24.3675C18.807 24.4651 18.8351 24.5672 18.8507 24.6716C18.8447 24.7993 18.6682 24.8078 18.5739 24.8096H18.5472V24.8985ZM19.7271 24.9355C19.5398 24.9282 19.3525 24.9191 19.1543 24.9191C18.956 24.9191 18.7424 24.9282 18.529 24.9355H18.5095V24.7719H18.5739C18.67 24.7719 18.8137 24.7506 18.8173 24.6716C18.8007 24.5705 18.773 24.4716 18.7346 24.3766L18.5753 23.9046H17.6557L17.5266 24.3261C17.486 24.4296 17.4553 24.5367 17.4349 24.646C17.4349 24.7482 17.5923 24.7719 17.7304 24.7719H17.7942V24.9355H17.7748C17.6081 24.9282 17.4379 24.9191 17.2718 24.9191C17.1228 24.9191 16.9719 24.9282 16.8235 24.9355H16.8035V24.7719H16.8473C16.9248 24.7727 17.0004 24.748 17.0626 24.7016C17.1248 24.6553 17.1701 24.5898 17.1915 24.5153L17.8606 22.6018C17.9259 22.4289 17.9813 22.2524 18.0266 22.0732C18.158 22.0256 18.2847 21.9658 18.405 21.8944C18.4174 21.8887 18.4308 21.8854 18.4445 21.8847C18.4537 21.8839 18.463 21.8858 18.4712 21.8901C18.4794 21.8944 18.486 21.901 18.4906 21.909C18.5028 21.9431 18.5162 21.9802 18.529 22.0136L19.2967 24.1941C19.3459 24.3395 19.3958 24.4946 19.4499 24.6199C19.4694 24.6709 19.5055 24.7139 19.5524 24.7419C19.5993 24.7699 19.6543 24.7814 19.7084 24.7744H19.7509V24.938L19.7271 24.9355Z" fill="#004A98"/>
<path d="M19.9151 22.2166C19.6024 22.2166 19.5897 22.2908 19.5265 22.5955H19.4011C19.4175 22.4794 19.4394 22.3626 19.4516 22.2416C19.468 22.1243 19.4761 22.006 19.476 21.8876H19.5769C19.6098 22.0129 19.715 22.0092 19.8263 22.0092H21.9776C22.0895 22.0092 22.1935 22.0055 22.2026 21.8802L22.3024 21.8973C22.2866 22.0092 22.2696 22.1223 22.2568 22.2343C22.244 22.3462 22.2476 22.4599 22.2476 22.5718L22.123 22.6187C22.1145 22.4648 22.095 22.2178 21.8146 22.2178H21.1315V24.436C21.1315 24.7572 21.2776 24.7943 21.4765 24.7943H21.5555V24.9196C21.3931 24.9196 21.1011 24.9026 20.8767 24.9026C20.6273 24.9026 20.3342 24.9196 20.1718 24.9196V24.7943H20.2508C20.4807 24.7943 20.5969 24.773 20.5969 24.4439V22.2178L19.9151 22.2166Z" fill="#004A98"/>
<path d="M21.5561 24.9355C21.3924 24.9355 21.1005 24.9191 20.8773 24.9191C20.6279 24.9191 20.3354 24.9355 20.1724 24.9355H20.1535V24.7744H20.2514C20.4813 24.7695 20.5744 24.7664 20.5793 24.4435V22.2356H19.9145V22.1991H20.6164V24.4441C20.6164 24.7786 20.4801 24.809 20.2514 24.809H20.1907V24.8978C20.3555 24.8978 20.6352 24.8814 20.8779 24.8814C21.0944 24.8814 21.3742 24.8966 21.5384 24.8978V24.809H21.4777C21.2769 24.809 21.1127 24.7603 21.1127 24.4331V22.1967H21.8146C22.095 22.1967 22.1314 22.4351 22.1399 22.5902L22.2307 22.5574C22.2307 22.4485 22.2306 22.3396 22.2391 22.2301C22.2476 22.1206 22.2659 22.0166 22.2811 21.9102L22.2203 21.8999C22.202 22.0215 22.0846 22.027 21.98 22.0252H19.8086C19.7101 22.0252 19.6037 22.0215 19.5654 21.9035H19.4966C19.4966 22.0167 19.488 22.1298 19.4711 22.2417C19.4601 22.3567 19.4407 22.4667 19.4237 22.5768H19.5131C19.5678 22.2861 19.6042 22.1918 19.9157 22.1961V22.2326C19.6067 22.238 19.6116 22.2897 19.5459 22.5975V22.6121H19.3846V22.5914C19.4023 22.4734 19.4224 22.3573 19.4351 22.2368C19.4522 22.1204 19.4607 22.0029 19.4607 21.8853V21.8676H19.5927V21.8798C19.6225 21.9856 19.6986 21.9856 19.8056 21.9874H19.8257H21.977C22.092 21.9874 22.1764 21.9832 22.1837 21.8749V21.8555L22.2038 21.8591L22.3255 21.878L22.3218 21.8956C22.3042 22.0075 22.289 22.12 22.2762 22.2319C22.2635 22.3438 22.2676 22.4558 22.2676 22.5677V22.5804L22.2556 22.5859L22.1083 22.6388V22.6145C22.0974 22.4588 22.0809 22.2319 21.817 22.2319H21.1486V24.4319C21.1528 24.7457 21.2768 24.7677 21.4757 24.7713H21.5743V24.9325L21.5561 24.9355Z" fill="#004A98"/>
<path d="M22.4563 24.7933H22.5141C22.6655 24.7933 22.8219 24.772 22.8219 24.5548V22.3725C22.8219 22.1548 22.6655 22.1341 22.5141 22.1341H22.4563V22.0088C22.6181 22.0088 22.8687 22.0252 23.0718 22.0252C23.2749 22.0252 23.5317 22.0088 23.7275 22.0088V22.1341H23.6704C23.5189 22.1341 23.3602 22.1548 23.3602 22.3725V24.5548C23.3602 24.772 23.5189 24.7933 23.6704 24.7933H23.7275V24.9186C23.5268 24.9186 23.2775 24.9015 23.0688 24.9015C22.8602 24.9015 22.6181 24.9186 22.4563 24.9186V24.7933Z" fill="#004A98"/>
<path d="M23.7087 24.8998V24.8116H23.6704C23.5208 24.8116 23.3433 24.7866 23.3433 24.5555V22.3732C23.3433 22.1421 23.5208 22.1165 23.6704 22.1165H23.7087V22.0277C23.5171 22.0277 23.2758 22.0447 23.072 22.0447C22.8682 22.0447 22.6358 22.0283 22.474 22.0277V22.1165H22.5137C22.6633 22.1165 22.8408 22.1427 22.8408 22.3732V24.5555C22.8408 24.7866 22.6633 24.8116 22.5137 24.8116H22.474V24.8998C22.6352 24.8998 22.8706 24.8839 23.0689 24.8839C23.2672 24.8839 23.5123 24.8991 23.7087 24.8998ZM23.7276 24.9363C23.5251 24.9363 23.2769 24.9198 23.0689 24.9198C22.8609 24.9198 22.6189 24.9363 22.4565 24.9363H22.4382V24.7751H22.5137C22.6651 24.7751 22.8037 24.7599 22.8037 24.5555V22.3732C22.8037 22.1694 22.6645 22.1554 22.5137 22.1524H22.4382V21.9918H22.4565C22.6189 21.9918 22.8695 22.007 23.072 22.007C23.2745 22.007 23.5299 21.9918 23.7276 21.9918H23.7453V22.1524H23.6704C23.5178 22.1524 23.3797 22.1694 23.3785 22.3732V24.5555C23.3785 24.7599 23.5178 24.7726 23.6704 24.7751H23.7453V24.9363H23.7276Z" fill="#004A98"/>
<path d="M25.453 24.7969C26.2619 24.7969 26.4018 24.084 26.4018 23.4764C26.4018 22.8688 26.0746 22.1298 25.3818 22.1298C24.652 22.1298 24.4355 22.7799 24.4355 23.3377C24.4355 24.084 24.7772 24.7974 25.453 24.7974V24.7969ZM25.3922 21.9467C25.5934 21.9276 25.7963 21.9506 25.9881 22.014C26.18 22.0775 26.3565 22.18 26.5067 22.3152C26.6568 22.4505 26.7771 22.6154 26.8602 22.7995C26.9433 22.9837 26.9874 23.1831 26.9894 23.3851C26.9988 23.5954 26.9647 23.8054 26.8892 24.0019C26.8137 24.1983 26.6983 24.3771 26.5505 24.5269C26.4026 24.6768 26.2255 24.7944 26.03 24.8726C25.8346 24.9507 25.625 24.9877 25.4147 24.9811C25.2121 24.9931 25.0092 24.9632 24.8188 24.8931C24.6283 24.823 24.4543 24.7143 24.3078 24.5738C24.1613 24.4333 24.0454 24.264 23.9674 24.0767C23.8895 23.8893 23.8511 23.6878 23.8546 23.4849C23.8517 23.2821 23.8896 23.0809 23.9658 22.893C24.0421 22.7051 24.1552 22.5344 24.2986 22.391C24.4419 22.2476 24.6125 22.1344 24.8003 22.0581C24.9882 21.9818 25.1895 21.9439 25.3922 21.9467Z" fill="#004A98"/>
<path d="M24.4161 23.3378C24.4161 22.7764 24.6369 22.111 25.3814 22.111C26.0893 22.111 26.419 22.8634 26.4202 23.4765C26.4214 24.0896 26.2766 24.8145 25.4525 24.8145V24.7799C26.2432 24.7799 26.3825 24.0847 26.3837 23.4771C26.3849 22.8694 26.0583 22.1493 25.3814 22.1475C24.6667 22.1475 24.4549 22.7831 24.4531 23.3384C24.4531 24.0804 24.7926 24.7781 25.4525 24.7799V24.8145C24.7603 24.8145 24.4185 24.0884 24.4185 23.3384L24.4161 23.3378ZM23.8358 23.485C23.8332 23.2799 23.8717 23.0764 23.949 22.8864C24.0262 22.6964 24.1406 22.5238 24.2856 22.3788C24.4306 22.2337 24.6032 22.1192 24.7932 22.0418C24.9831 21.9645 25.1867 21.926 25.3917 21.9285V21.9656C25.1912 21.9627 24.9921 22 24.8062 22.0754C24.6204 22.1507 24.4516 22.2626 24.3098 22.4044C24.168 22.5462 24.0563 22.715 23.9809 22.9008C23.9055 23.0867 23.8682 23.2857 23.8712 23.4862C23.8678 23.6867 23.9058 23.8858 23.983 24.0709C24.0602 24.2561 24.1748 24.4233 24.3196 24.562C24.4644 24.7008 24.6364 24.8081 24.8247 24.8774C25.0129 24.9466 25.2134 24.9761 25.4136 24.9642C25.622 24.9708 25.8294 24.9342 26.023 24.8567C26.2166 24.7793 26.3921 24.6627 26.5384 24.5142C26.6848 24.3657 26.7988 24.1885 26.8734 23.9938C26.948 23.7991 26.9815 23.5911 26.9719 23.3828C26.9693 23.1832 26.9253 22.9862 26.8428 22.8044C26.7603 22.6225 26.641 22.4598 26.4924 22.3265C26.3438 22.1931 26.1691 22.092 25.9795 22.0296C25.7898 21.9672 25.5892 21.9448 25.3904 21.9638V21.9267C25.5936 21.9087 25.7985 21.9328 25.992 21.9975C26.1854 22.0622 26.3634 22.1662 26.5149 22.3028C26.6664 22.4395 26.7883 22.6059 26.8725 22.7918C26.9568 22.9776 27.0017 23.1788 27.0047 23.3828C27.0138 23.5954 26.9791 23.8076 26.9025 24.0062C26.826 24.2047 26.7093 24.3854 26.5598 24.5369C26.4103 24.6883 26.2312 24.8073 26.0337 24.8865C25.8362 24.9657 25.6245 25.0033 25.4118 24.997C25.207 25.0086 25.002 24.9778 24.8097 24.9066C24.6173 24.8355 24.4416 24.7255 24.2936 24.5834C24.1457 24.4414 24.0286 24.2704 23.9496 24.0811C23.8706 23.8918 23.8315 23.6882 23.8347 23.4832" fill="#004A98"/>
<path d="M29.7957 24.0968L29.8048 24.0877V22.5251C29.812 22.4743 29.8079 22.4226 29.7925 22.3736C29.7771 22.3247 29.7508 22.2797 29.7159 22.2422C29.6809 22.2046 29.638 22.1754 29.5902 22.1566C29.5425 22.1378 29.4911 22.1299 29.44 22.1335H29.35V22.0082C29.5452 22.0082 29.7367 22.0246 29.9319 22.0246C30.1034 22.0246 30.2745 22.0082 30.446 22.0082V22.1335H30.3851C30.2093 22.1335 30.0134 22.1669 30.0134 22.6626V24.5597C30.0107 24.7005 30.0194 24.8412 30.0396 24.9806H29.8808L27.7339 22.5878V24.3048C27.7339 24.6698 27.8043 24.7914 28.1255 24.7914H28.1968V24.9167C28.0173 24.9167 27.8385 24.8997 27.6597 24.8997C27.4711 24.8997 27.2795 24.9167 27.0909 24.9167V24.7914H27.1518C27.4407 24.7914 27.5271 24.595 27.5271 24.2617V22.5063C27.5272 22.4567 27.5174 22.4075 27.4983 22.3617C27.4792 22.3159 27.4512 22.2743 27.4158 22.2394C27.3805 22.2046 27.3385 22.1771 27.2924 22.1586C27.2464 22.1401 27.1972 22.1309 27.1475 22.1316H27.0921V22.0063C27.2509 22.0063 27.4139 22.0228 27.5721 22.0228C27.6974 22.0228 27.8153 22.0063 27.9424 22.0063L29.7957 24.0968Z" fill="#004A98"/>
<path d="M29.7861 24.0893V24.0857V24.0893ZM29.7953 24.0985L29.8093 24.0863L29.7953 24.0985ZM29.8798 24.9634H30.0161C29.9999 24.83 29.9927 24.6957 29.9947 24.5613V22.6643C29.9947 22.1637 30.2058 22.1169 30.3847 22.1169H30.4291V22.0281C30.2642 22.0281 30.0999 22.0451 29.9332 22.0451C29.7435 22.0451 29.5575 22.0287 29.3696 22.0281V22.1169H29.4419C29.4952 22.1141 29.5485 22.1231 29.5979 22.1432C29.6474 22.1633 29.6919 22.194 29.7282 22.2332C29.7645 22.2723 29.7917 22.319 29.8081 22.3698C29.8244 22.4207 29.8294 22.4744 29.8226 22.5274L29.8183 24.1027L29.8104 24.1106L29.7965 24.1234L27.9414 22.0275C27.8197 22.0275 27.6982 22.0445 27.5704 22.0445C27.4172 22.0445 27.2608 22.0281 27.1088 22.0275V22.1163H27.1465C27.1984 22.1159 27.2497 22.1257 27.2978 22.1453C27.3458 22.1648 27.3895 22.1937 27.4264 22.2302C27.4632 22.2668 27.4925 22.3102 27.5125 22.3581C27.5325 22.4059 27.5429 22.4573 27.543 22.5092V24.2645C27.543 24.5978 27.4493 24.8119 27.15 24.8119H27.1088V24.9001C27.2912 24.9001 27.4736 24.8843 27.6561 24.8843C27.8386 24.8843 28.0034 24.8995 28.1755 24.9001V24.8125H28.1221C27.7949 24.8125 27.7133 24.6696 27.7133 24.3059V22.542L29.8798 24.9634ZM30.0379 24.9993L29.8652 24.9932L27.7498 22.6357V24.3065C27.7553 24.6714 27.8106 24.7718 28.1239 24.7748H28.2138V24.9372H28.1956C28.0131 24.9372 27.8361 24.9208 27.6573 24.9208C27.4785 24.9208 27.2791 24.9372 27.0899 24.9372H27.0716V24.7748H27.1489C27.4238 24.7748 27.5028 24.5978 27.5052 24.2651V22.508C27.5053 22.4608 27.4961 22.4141 27.4779 22.3705C27.4598 22.3269 27.4331 22.2874 27.3995 22.2542C27.3659 22.2211 27.3261 22.1949 27.2824 22.1773C27.2386 22.1596 27.1917 22.1509 27.1445 22.1515H27.071V21.991H27.0893C27.2493 21.991 27.4116 22.0062 27.5685 22.0062C27.6901 22.0062 27.8118 21.991 27.9541 21.9964L29.7849 24.0589V22.5256C29.7849 22.1935 29.5618 22.154 29.4395 22.151H29.3299V21.9904H29.3488C29.5446 21.9904 29.7375 22.0056 29.9309 22.0056C30.1018 22.0056 30.2721 21.9904 30.4454 21.9904H30.4625V22.151H30.3827C30.2106 22.1564 30.0331 22.171 30.0301 22.6618V24.5589C30.0274 24.6986 30.0354 24.8383 30.0538 24.9768L30.0574 24.9968L30.0379 24.9993Z" fill="#004A98"/>
<path d="M31.7252 22.4753H31.7173L31.3285 23.6559H32.1096L31.7252 22.4753ZM31.1169 24.3219C31.076 24.4271 31.0455 24.5361 31.0258 24.6473C31.0258 24.7726 31.2015 24.7939 31.3389 24.7939H31.3851V24.9192C31.2179 24.9094 31.0464 24.9021 30.8804 24.9021C30.7302 24.9021 30.5799 24.9094 30.4309 24.9192V24.7939H30.4539C30.536 24.7944 30.6162 24.7681 30.682 24.7191C30.7479 24.67 30.7959 24.6008 30.8189 24.522L31.488 22.6097C31.5529 22.4416 31.6042 22.2685 31.6413 22.0921C31.7735 22.0453 31.9008 21.9856 32.0214 21.9139C32.0322 21.9092 32.0437 21.9063 32.0554 21.9054C32.0609 21.9043 32.0666 21.905 32.0718 21.9073C32.0769 21.9096 32.0812 21.9134 32.0841 21.9182L32.1218 22.0222L32.8874 24.2021C32.9379 24.348 32.9885 24.5013 33.0432 24.6278C33.0641 24.682 33.1023 24.7278 33.1519 24.7579C33.2015 24.7881 33.2598 24.8009 33.3175 24.7945H33.343V24.9198C33.1557 24.91 32.9678 24.9028 32.7677 24.9028C32.5676 24.9028 32.3547 24.91 32.1424 24.9198V24.7945H32.1886C32.2841 24.7945 32.4477 24.7774 32.4477 24.6728C32.4318 24.5684 32.4032 24.4663 32.3627 24.3687L32.2014 23.8858H31.2544L31.1169 24.3219Z" fill="#004A98"/>
<path d="M31.7087 22.4807L31.7166 22.4776L31.7087 22.4807ZM31.3547 23.6363H32.0845L31.7197 22.5208L31.3547 23.6363ZM31.3042 23.6722L31.7044 22.4557H31.7252V22.474H31.7215H31.7252V22.4557H31.7386L32.1321 23.6722H31.3042ZM32.1558 24.899C32.3626 24.8911 32.5652 24.8831 32.764 24.8831C32.9629 24.8831 33.1399 24.8917 33.3218 24.8984V24.8108H33.3151C33.2539 24.8167 33.1923 24.8026 33.1397 24.7706C33.0872 24.7386 33.0465 24.6904 33.0238 24.6332C32.9684 24.5073 32.9197 24.3528 32.8692 24.2074L32.1016 22.0269C32.0901 21.9941 32.0761 21.9563 32.067 21.9278C32.0634 21.9229 32.0634 21.9229 32.0609 21.9229H32.0523C32.0442 21.9234 32.0364 21.9251 32.0287 21.9278C31.9129 21.9996 31.7881 22.0559 31.6576 22.095C31.6192 22.2721 31.5673 22.4459 31.5025 22.6151L30.8335 24.5285C30.809 24.6104 30.7587 24.6822 30.69 24.7332C30.6214 24.7841 30.5382 24.8116 30.4528 24.8114H30.4467V24.899C30.5902 24.8917 30.7337 24.8838 30.8785 24.8838C31.0397 24.8838 31.2051 24.8923 31.3651 24.899V24.8114H31.3384C31.2027 24.8114 31.0123 24.7956 31.0062 24.6472C31.0266 24.5343 31.058 24.4237 31.0999 24.3169L31.117 24.3218L31.0999 24.3163L31.2374 23.8705H32.2105L32.3772 24.3662C32.4177 24.4636 32.4459 24.5658 32.4611 24.6703C32.4544 24.798 32.2786 24.8065 32.1855 24.8083H32.1564L32.1558 24.899ZM33.3381 24.9354C33.1502 24.9282 32.9622 24.919 32.7633 24.919C32.5644 24.919 32.3522 24.9282 32.1393 24.9354H32.1211V24.7731H32.1849C32.2816 24.7731 32.4252 24.7506 32.4252 24.6715C32.4085 24.5704 32.3806 24.4714 32.3419 24.3765L32.1831 23.9045H31.2629L31.1351 24.326C31.0944 24.4292 31.0641 24.5362 31.0445 24.6453C31.0445 24.7481 31.2003 24.7731 31.339 24.7731H31.3997V24.9354H31.3808C31.2142 24.9282 31.044 24.919 30.8773 24.919C30.7277 24.919 30.5787 24.9282 30.4278 24.9354H30.4095V24.7731H30.4508C30.5285 24.7726 30.6041 24.7473 30.6664 24.7009C30.7288 24.6546 30.7748 24.5895 30.7976 24.5152L31.4667 22.6017C31.5312 22.4287 31.5862 22.2522 31.6315 22.0731C31.7636 22.0257 31.8908 21.9658 32.0116 21.8943C32.0238 21.8884 32.037 21.8851 32.0505 21.8846C32.0598 21.8837 32.0691 21.8857 32.0773 21.8903C32.0854 21.8949 32.092 21.9018 32.0961 21.9101C32.1089 21.9418 32.1205 21.9801 32.1338 22.0136L32.9014 24.194C32.9507 24.34 33.0011 24.4945 33.0547 24.6198C33.074 24.6707 33.1099 24.7137 33.1565 24.7418C33.2032 24.7699 33.2579 24.7816 33.312 24.7749H33.3564V24.9373L33.3381 24.9354Z" fill="#004A98"/>
<path d="M34.3854 24.5098C34.3854 24.6771 34.5011 24.7264 34.6349 24.7434C34.8185 24.7574 35.003 24.7543 35.186 24.7342C35.2641 24.725 35.3395 24.7004 35.4081 24.6619C35.4767 24.6234 35.537 24.5717 35.5856 24.5098C35.6457 24.4179 35.6892 24.3162 35.7144 24.2094H35.8361C35.7917 24.4472 35.7327 24.6814 35.6816 24.9186C35.3167 24.9186 34.9487 24.9015 34.5819 24.9015C34.2151 24.9015 33.8485 24.9186 33.4823 24.9186V24.7932H33.5395C33.6903 24.7932 33.8532 24.772 33.8532 24.5135V22.3719C33.8532 22.1542 33.6903 22.1335 33.5395 22.1335H33.4823V22.0082C33.7025 22.0082 33.9196 22.0246 34.1404 22.0246C34.3612 22.0246 34.5613 22.0082 34.7736 22.0082V22.1335H34.6701C34.5107 22.1335 34.3874 22.1377 34.3874 22.3585L34.3854 24.5098Z" fill="#004A98"/>
<path d="M35.6688 24.8998C35.7169 24.6747 35.7717 24.4527 35.8161 24.2307H35.7303C35.7044 24.335 35.6611 24.4341 35.602 24.5239C35.5519 24.5878 35.4895 24.6412 35.4186 24.681C35.3477 24.7208 35.2698 24.7461 35.1891 24.7556C35.0796 24.7666 34.973 24.7732 34.8696 24.7732C34.7894 24.7732 34.7109 24.7696 34.6361 24.7641C34.4992 24.7495 34.3679 24.6912 34.3685 24.5129V22.3622C34.3685 22.1299 34.5151 22.1189 34.6726 22.1189H34.7578V22.0301C34.5535 22.0301 34.3509 22.0472 34.1429 22.0472C33.9349 22.0472 33.717 22.0307 33.5023 22.0301V22.1189H33.542C33.691 22.1189 33.8728 22.1451 33.8728 22.375V24.5172C33.8728 24.7866 33.6904 24.8146 33.542 24.8146H33.5023V24.9028C33.8624 24.9028 34.2225 24.887 34.5844 24.887C34.9463 24.887 35.3083 24.9028 35.6702 24.9028L35.6688 24.8998ZM35.6841 24.9393C35.3192 24.9393 34.9505 24.9229 34.5844 24.9229C34.2182 24.9229 33.8508 24.9393 33.4835 24.9393H33.4659V24.7781H33.542C33.6928 24.7751 33.835 24.7647 33.8375 24.5178V22.3756C33.8375 22.1725 33.6934 22.1585 33.542 22.1554H33.4659V21.9949H33.4835C33.7049 21.9949 33.9226 22.0101 34.1422 22.0101C34.3617 22.0101 34.5619 21.9949 34.7754 21.9949H34.793V22.1554H34.6714C34.5096 22.1603 34.4086 22.1554 34.4056 22.3628V24.5135C34.4056 24.6686 34.509 24.7106 34.6392 24.7283C34.7128 24.7331 34.79 24.7368 34.8702 24.7368C34.9759 24.7369 35.0814 24.7316 35.1865 24.7209C35.3395 24.702 35.479 24.6235 35.5747 24.5026C35.6328 24.4127 35.675 24.3135 35.6999 24.2094L35.7036 24.1954H35.8605L35.8568 24.2173C35.8094 24.4558 35.7529 24.6887 35.7018 24.9259L35.6981 24.9393H35.6841Z" fill="#004A98"/>
</svg>
