<svg width="19" height="19" viewBox="0 0 19 19" fill="none" xmlns="http://www.w3.org/2000/svg">
<path d="M9.5 0C4.32981 0 0 3.71231 0 8.40385C0 10.6181 0.993115 12.6043 2.55769 14.09C2.36707 14.5869 2.09708 15.0497 1.75823 15.4602C1.30871 16.0055 0.812067 16.5102 0.274038 16.9685C0.156031 17.0631 0.0703172 17.1921 0.0287258 17.3376C-0.0128656 17.483 -0.0082842 17.6378 0.0418379 17.7806C0.0919599 17.9233 0.185152 18.047 0.308552 18.1345C0.431952 18.222 0.579478 18.2691 0.730769 18.2692C2.34942 18.2692 3.51354 18.251 4.56731 17.9725C5.51 17.7226 6.32042 17.1994 7.14765 16.465C7.90035 16.6455 8.67715 16.8077 9.5 16.8077C14.6702 16.8077 19 13.0954 19 8.40385C19 3.71231 14.6702 0 9.5 0ZM9.5 1.46154C13.976 1.46154 17.5385 4.61846 17.5385 8.40385C17.5385 12.1892 13.976 15.3462 9.5 15.3462C8.70419 15.3462 7.87769 15.2088 7.125 15.0034C7.00463 14.9732 6.87854 14.9741 6.75861 15.006C6.63869 15.038 6.52888 15.1 6.43954 15.1861C5.61742 15.9746 5.01162 16.3422 4.20192 16.5563C3.82923 16.655 3.11015 16.6316 2.603 16.671C2.70531 16.5556 2.80104 16.4942 2.90042 16.3736C3.47481 15.6721 3.99877 14.9303 4.15662 14.09C4.17836 13.9638 4.16658 13.8342 4.12246 13.714C4.07835 13.5938 4.00344 13.4873 3.90523 13.4052C2.37427 12.141 1.46154 10.3689 1.46154 8.40385C1.46154 4.61846 5.02404 1.46154 9.5 1.46154ZM8.10715 4.31592C7.97852 4.34479 7.8601 4.40792 7.76442 4.49862L6.66827 5.52681L7.65042 6.59958L8.51785 5.77746H10.2761L10.9615 6.555V7.6285L9.08858 8.88396C8.98846 8.95214 8.90687 9.04413 8.85112 9.15166C8.79538 9.25919 8.76724 9.37889 8.76923 9.5V10.9615H10.2308V9.91069L12.1037 8.65523C12.2039 8.58699 12.2856 8.49488 12.3414 8.38721C12.3971 8.27954 12.4252 8.15969 12.4231 8.03846V6.28023C12.4221 6.10361 12.3572 5.93331 12.2404 5.80085L11.1442 4.56731C11.076 4.48882 10.9918 4.4258 10.8973 4.38245C10.8028 4.3391 10.7001 4.31642 10.5962 4.31592H8.26646C8.21352 4.31012 8.1601 4.31012 8.10715 4.31592ZM8.76923 11.6923V13.1538H10.2308V11.6923H8.76923Z" fill="#757575"/>
</svg>
