<svg width="22" height="22" viewBox="0 0 22 22" fill="none" xmlns="http://www.w3.org/2000/svg">
<path d="M13.9998 11.499C13.9998 11.2338 13.8945 10.9794 13.7069 10.7919C13.5194 10.6043 13.265 10.499 12.9998 10.499H4.99982C4.7346 10.499 4.48025 10.6043 4.29271 10.7919C4.10517 10.9794 3.99982 11.2338 3.99982 11.499C3.99982 11.7642 4.10517 12.0186 4.29271 12.2061C4.48025 12.3936 4.7346 12.499 4.99982 12.499H12.9998C13.265 12.499 13.5194 12.3936 13.7069 12.2061C13.8945 12.0186 13.9998 11.7642 13.9998 11.499Z" fill="#00E6D3"/>
<path d="M4.99982 14.4997C4.7346 14.4997 4.48025 14.605 4.29271 14.7926C4.10517 14.9801 3.99982 15.2344 3.99982 15.4997C3.99982 15.7649 4.10517 16.0192 4.29271 16.2068C4.48025 16.3943 4.7346 16.4997 4.99982 16.4997H8.99982C9.26503 16.4997 9.51939 16.3943 9.70692 16.2068C9.89446 16.0192 9.99982 15.7649 9.99982 15.4997C9.99982 15.2344 9.89446 14.9801 9.70692 14.7926C9.51939 14.605 9.26503 14.4997 8.99982 14.4997H4.99982Z" fill="white"/>
<path d="M15.9999 19.9997H1.99988V2.99966H6.99988C7.26509 2.99966 7.51945 2.8943 7.70698 2.70677C7.89452 2.51923 7.99988 2.26488 7.99988 1.99966C7.99988 1.73444 7.89452 1.48009 7.70698 1.29255C7.51945 1.10502 7.26509 0.99966 6.99988 0.99966H0.999878C0.734661 0.99966 0.480307 1.10502 0.292771 1.29255C0.105235 1.48009 -0.00012207 1.73444 -0.00012207 1.99966V20.9997C-0.00012207 21.2649 0.105235 21.5192 0.292771 21.7068C0.480307 21.8943 0.734661 21.9997 0.999878 21.9997H16.9999C17.2651 21.9997 17.5194 21.8943 17.707 21.7068C17.8945 21.5192 17.9999 21.2649 17.9999 20.9997V12.9997C17.9999 12.7344 17.8945 12.4801 17.707 12.2926C17.5194 12.105 17.2651 11.9997 16.9999 11.9997C16.7347 11.9997 16.4803 12.105 16.2928 12.2926C16.1052 12.4801 15.9999 12.7344 15.9999 12.9997V19.9997Z" fill="white"/>
<path d="M20.6998 10.299L18.1498 7.74898C18.7049 6.93945 19.0013 5.98054 18.9998 4.99898C18.9998 3.6729 18.473 2.40113 17.5354 1.46345C16.5977 0.525765 15.3259 -0.00101906 13.9998 -0.00101906C12.6737 -0.00101906 11.402 0.525765 10.4643 1.46345C9.5266 2.40113 8.99982 3.6729 8.99982 4.99898C9.00539 5.50887 9.08972 6.01484 9.24982 6.49898H4.99982C4.7346 6.49898 4.48025 6.60434 4.29271 6.79187C4.10517 6.97941 3.99982 7.23376 3.99982 7.49898C3.99982 7.7642 4.10517 8.01855 4.29271 8.20609C4.48025 8.39362 4.7346 8.49898 4.99982 8.49898H10.4498C11.3883 9.4486 12.6647 9.98792 13.9998 9.99898C14.9814 10.0005 15.9403 9.70406 16.7498 9.14898L19.2998 11.699C19.3906 11.796 19.4999 11.8738 19.6214 11.9277C19.7428 11.9816 19.8738 12.0105 20.0067 12.0127C20.1395 12.0149 20.2714 11.9904 20.3946 11.9406C20.5177 11.8907 20.6296 11.8167 20.7236 11.7227C20.8175 11.6288 20.8916 11.5169 20.9414 11.3937C20.9912 11.2706 21.0157 11.1387 21.0135 11.0058C21.0113 10.873 20.9824 10.7419 20.9285 10.6205C20.8746 10.4991 20.7968 10.3897 20.6998 10.299ZM10.9998 4.99898C10.9998 4.40564 11.1758 3.82562 11.5054 3.33227C11.8351 2.83892 12.3036 2.45441 12.8518 2.22734C13.3999 2.00028 14.0031 1.94087 14.5851 2.05663C15.167 2.17238 15.7016 2.4581 16.1211 2.87766C16.5407 3.29722 16.8264 3.83177 16.9422 4.41371C17.0579 4.99565 16.9985 5.59885 16.7715 6.14703C16.5444 6.69521 16.1599 7.16375 15.6665 7.49339C15.1732 7.82303 14.5932 7.99898 13.9998 7.99898C13.2042 7.99898 12.4411 7.68291 11.8785 7.1203C11.3159 6.55769 10.9998 5.79463 10.9998 4.99898Z" fill="white"/>
</svg>
