<svg width="24" height="23" viewBox="0 0 24 23" fill="none" xmlns="http://www.w3.org/2000/svg">
<path d="M23.6912 11.8788L12.8926 0.365294C12.4443 -0.121765 11.5614 -0.121765 11.1132 0.365294L0.314564 11.8788C0.151566 12.0412 0.056484 12.2441 0.0157345 12.4741C-0.025015 12.6906 0.0157345 12.9206 0.110817 13.1235C0.300981 13.5429 0.735642 13.8 1.21105 13.8H3.61527V21.85C3.61527 22.1612 3.73752 22.4453 3.96844 22.6618C4.19935 22.8782 4.49818 23 4.81059 23H8.41013C8.72254 23 9.03495 22.8782 9.25229 22.6618C9.4832 22.4453 9.60545 22.1476 9.60545 21.85V17.25H14.4003V21.85C14.4003 22.1612 14.5226 22.4453 14.7535 22.6618C14.9844 22.8782 15.2832 23 15.5956 23H19.1952C19.5076 23 19.82 22.8782 20.0373 22.6618C20.2682 22.4453 20.3905 22.1476 20.3905 21.85V13.8H22.7947C23.0256 13.8 23.2565 13.7324 23.4467 13.6106C23.6369 13.4888 23.7999 13.3129 23.8949 13.11C23.99 12.9071 24.0172 12.6771 23.99 12.4606C23.9493 12.2441 23.8542 12.0412 23.6912 11.8788Z" fill="#00CEB1"/>
</svg>
