<svg width="22" height="22" viewBox="0 0 22 22" fill="none" xmlns="http://www.w3.org/2000/svg">
<path d="M2.94982 21.5H0.999817C0.7346 21.5 0.480246 21.3946 0.29271 21.2071C0.105174 21.0196 -0.000183105 20.7652 -0.000183105 20.5V1.5C-0.000183105 1.23478 0.105174 0.98043 0.29271 0.792893C0.480246 0.605357 0.7346 0.5 0.999817 0.5H16.9998C17.265 0.5 17.5194 0.605357 17.7069 0.792893C17.8945 0.98043 17.9998 1.23478 17.9998 1.5V5.45C18.0043 5.69706 17.9216 5.93779 17.7661 6.12985C17.6106 6.3219 17.3924 6.45297 17.1498 6.5C17.0065 6.52175 16.8602 6.51209 16.7209 6.47167C16.5817 6.43125 16.453 6.36105 16.3436 6.26593C16.2342 6.17081 16.1468 6.05304 16.0874 5.92079C16.0281 5.78853 15.9982 5.64495 15.9998 5.5V2.5H1.99982V19.5H2.99982C3.14477 19.4984 3.28835 19.5283 3.4206 19.5876C3.55286 19.647 3.67062 19.7344 3.76575 19.8438C3.86087 19.9531 3.93107 20.0819 3.97149 20.2211C4.0119 20.3603 4.02157 20.5067 3.99982 20.65C3.95279 20.8926 3.82172 21.1108 3.62966 21.2663C3.43761 21.4218 3.19687 21.5045 2.94982 21.5Z" fill="white"/>
<path d="M12.4998 5.99864H5.49976C4.94747 5.99864 4.49976 6.44636 4.49976 6.99864C4.49976 7.55093 4.94747 7.99864 5.49976 7.99864H12.4998C13.052 7.99864 13.4998 7.55093 13.4998 6.99864C13.4998 6.44636 13.052 5.99864 12.4998 5.99864Z" fill="#00E5D3"/>
<path d="M20.6998 12.7013L15.7998 7.80128C15.7108 7.70429 15.6026 7.62685 15.4821 7.57388C15.3616 7.5209 15.2314 7.49355 15.0998 7.49355C14.9681 7.49355 14.8379 7.5209 14.7174 7.57388C14.5969 7.62685 14.4887 7.70429 14.3998 7.80128L12.1998 10.0013H5.49976C5.23454 10.0013 4.98019 10.1066 4.79265 10.2942C4.60511 10.4817 4.49976 10.7361 4.49976 11.0013C4.49976 11.2665 4.60511 11.5209 4.79265 11.7084C4.98019 11.8959 5.23454 12.0013 5.49976 12.0013H10.1998L8.19976 14.0013H5.49976C5.23454 14.0013 4.98019 14.1066 4.79265 14.2942C4.60511 14.4817 4.49976 14.7361 4.49976 15.0013C4.49976 15.2665 4.60511 15.5209 4.79265 15.7084C4.98019 15.8959 5.23454 16.0013 5.49976 16.0013H6.99976V20.5013C6.99976 20.7665 7.10511 21.0209 7.29265 21.2084C7.48019 21.3959 7.73454 21.5013 7.99976 21.5013H12.8998C13.1635 21.4975 13.4151 21.3897 13.5998 21.2013L20.6998 14.1013C20.7967 14.0123 20.8742 13.9041 20.9272 13.7836C20.9801 13.6631 21.0075 13.5329 21.0075 13.4013C21.0075 13.2697 20.9801 13.1395 20.9272 13.019C20.8742 12.8985 20.7967 12.7903 20.6998 12.7013ZM12.4498 19.5013H8.99976V16.0513L12.1998 12.8513L15.6498 16.3013L12.4498 19.5013ZM17.0498 14.9013L13.5998 11.4513L15.0998 9.90128L18.5998 13.4013L17.0498 14.9013Z" fill="white"/>
</svg>
