<svg width="30" height="18" viewBox="0 0 30 18" fill="none" xmlns="http://www.w3.org/2000/svg">
<path fill-rule="evenodd" clip-rule="evenodd" d="M15.0078 14.9532C16.5893 16.3393 18.7131 17.18 21.0232 17.18C25.9845 17.18 30 13.3311 30 8.59729C30 3.84904 25.9845 0 21.0232 0C18.7131 0 16.5893 0.840551 15.0078 2.22677C13.1938 3.80461 12.0464 6.07564 12.0464 8.59729C12.0466 11.1189 13.1938 13.3901 15.0078 14.9532Z" fill="#E9B040"/>
<path fill-rule="evenodd" clip-rule="evenodd" d="M28.8066 13.3751C28.8066 13.2276 28.9307 13.1097 29.0856 13.1097C29.2561 13.1097 29.38 13.2278 29.38 13.3751C29.38 13.5376 29.2559 13.6554 29.0856 13.6554C28.9307 13.6554 28.8066 13.5376 28.8066 13.3751ZM29.0856 13.5966C29.2097 13.5966 29.3179 13.4931 29.3179 13.3753C29.3179 13.2574 29.2095 13.1689 29.0856 13.1689C28.9769 13.1689 28.8687 13.2574 28.8687 13.3753C28.8687 13.4931 28.9771 13.5966 29.0856 13.5966ZM29.0546 13.5081H28.9926V13.2573H29.101C29.1167 13.2573 29.1477 13.2573 29.163 13.2722C29.194 13.2868 29.194 13.3017 29.194 13.3312C29.194 13.3607 29.1787 13.3902 29.1477 13.3902L29.2097 13.5082H29.132L29.101 13.4048H29.0546V13.5081V13.3605H29.1167C29.132 13.3605 29.132 13.3456 29.132 13.331C29.132 13.3161 29.132 13.3161 29.1167 13.3015H29.0546V13.5081Z" fill="#E9B040"/>
<path fill-rule="evenodd" clip-rule="evenodd" d="M17.9071 7.68315C17.8761 7.37352 17.814 7.07864 17.752 6.76884H12.2635C12.3256 6.45921 12.4186 6.16433 12.5115 5.86928H17.4885C17.3805 5.55884 17.2563 5.25369 17.1164 4.95496H12.8993C13.0544 4.6426 13.2251 4.33748 13.4109 4.04065H16.5894C16.3849 3.7257 16.157 3.42508 15.9074 3.14109H14.0932C14.3738 2.81513 14.6796 2.50951 15.0079 2.22677C13.4111 0.855303 11.3024 0 8.97681 0C4.03103 0 0 3.84904 0 8.59729C0 13.3311 4.03103 17.18 8.97681 17.18C11.3024 17.18 13.4109 16.3393 15.0079 14.9532C15.3313 14.6754 15.632 14.3747 15.9074 14.0535H14.0932C13.845 13.7586 13.6281 13.4637 13.4109 13.1392H16.5894C16.7893 12.8476 16.9655 12.5419 17.1166 12.2249H12.8993C12.7597 11.93 12.6203 11.6351 12.5115 11.3251H17.4885C17.5969 11.0303 17.6746 10.7208 17.7518 10.4108C17.8138 10.1159 17.8759 9.80648 17.9069 9.4965C17.9383 9.19753 17.9539 8.89724 17.9536 8.59677C17.9536 8.28766 17.9381 7.97803 17.9071 7.68315Z" fill="#CC2131"/>
<path fill-rule="evenodd" clip-rule="evenodd" d="M28.8066 10.5882C28.8066 10.4261 28.9307 10.3082 29.0856 10.3082C29.2561 10.3082 29.38 10.4262 29.38 10.5882C29.38 10.7357 29.2559 10.8685 29.0856 10.8685C28.9307 10.8685 28.8066 10.7355 28.8066 10.5882ZM29.0856 10.7945C29.2097 10.7945 29.3179 10.706 29.3179 10.5882C29.3179 10.4703 29.2095 10.3818 29.0856 10.3818C28.9769 10.3818 28.8687 10.4703 28.8687 10.5882C28.8687 10.706 28.9771 10.7945 29.0856 10.7945ZM29.0546 10.706H28.9926V10.4702H29.163C29.194 10.4851 29.194 10.5146 29.194 10.5441C29.194 10.5587 29.1787 10.5882 29.1477 10.6031L29.2097 10.7062H29.132L29.101 10.6177H29.0546V10.706V10.5734H29.0856C29.101 10.5734 29.1167 10.5734 29.1167 10.5585C29.132 10.5585 29.132 10.5439 29.132 10.529C29.132 10.529 29.132 10.5144 29.1167 10.5144C29.1167 10.4995 29.101 10.5144 29.0856 10.5144H29.0546V10.706Z" fill="white"/>
<path fill-rule="evenodd" clip-rule="evenodd" d="M11.9535 11.0747C11.659 11.1483 11.4418 11.1928 11.2249 11.1928C10.7597 11.1928 10.4805 10.9125 10.4805 10.4111C10.4805 10.308 10.4961 10.2047 10.5116 10.0867L10.5736 9.74771L10.6201 9.46741L11.0387 7.04902H11.969L11.8604 7.57994H12.4496L12.31 8.46475H11.7208L11.4728 9.90981C11.4573 9.98375 11.4573 10.0278 11.4573 10.0573C11.4573 10.2491 11.5504 10.3227 11.7829 10.3227C11.8914 10.3227 11.9843 10.3081 12.0774 10.2932L11.9535 11.0747ZM14.9614 11.0452C14.6203 11.1338 14.3103 11.1778 13.9691 11.1778C12.9147 11.1778 12.31 10.6469 12.31 9.60018C12.31 8.37606 13.0233 7.49125 14.0154 7.49125C14.8061 7.49125 15.3177 7.99267 15.3177 8.77404C15.3177 9.03976 15.2867 9.29038 15.2094 9.64427H13.2713C13.2558 9.70328 13.2558 9.73278 13.2558 9.76229C13.2558 10.1752 13.5503 10.3815 14.1085 10.3815C14.465 10.3815 14.7751 10.308 15.1163 10.1606L14.9614 11.0452ZM14.3877 8.93649V8.75946C14.3877 8.46458 14.2171 8.3023 13.9226 8.3023C13.6123 8.3023 13.3954 8.52342 13.3023 8.93631H14.3877V8.93649ZM4.51146 11.1188H3.55018L4.10837 7.77155L2.85259 11.1188H2.18601L2.10846 7.78631L1.51925 11.1188H0.573486L1.33313 6.76873H2.74401L2.77503 9.45283L3.7208 6.76873H5.27128L4.51146 11.1188ZM6.85278 9.54117C6.75972 9.52624 6.7287 9.52624 6.66666 9.52624C6.10847 9.52624 5.82947 9.73261 5.82947 10.0572C5.82947 10.2785 5.96906 10.426 6.18602 10.426C6.65115 10.426 6.83709 10.0572 6.85278 9.54117ZM7.62793 11.1188H6.79074L6.80625 10.7504C6.5891 11.0303 6.29459 11.1778 5.78294 11.1778C5.31781 11.1778 4.91472 10.7799 4.91472 10.2047C4.91472 10.0426 4.94574 9.89523 4.99228 9.74771C5.1472 9.20186 5.72089 8.8629 6.60462 8.84797C6.71319 8.84797 6.88362 8.84797 7.03872 8.8629C7.06956 8.74488 7.06956 8.70045 7.06956 8.62686C7.06956 8.39082 6.86811 8.31705 6.41849 8.31705C6.13949 8.31705 5.82928 8.36131 5.61232 8.43507L5.47273 8.46458L5.41069 8.47916L5.55028 7.68286C5.9999 7.55009 6.32543 7.49125 6.68217 7.49125C7.51936 7.49125 7.96897 7.8599 7.96897 8.53817C7.96897 8.7152 7.98448 8.84797 7.92244 9.23137L7.70548 10.4996L7.67446 10.7209L7.65895 10.8979L7.64344 11.0159L7.62793 11.1188ZM19.6437 7.60927C19.9227 7.60927 20.1708 7.68304 20.5119 7.84514L20.6823 6.90132C20.5892 6.85707 20.5582 6.85707 20.4343 6.81281L20.0469 6.70954C19.9228 6.68004 19.7679 6.66528 19.5971 6.66528C19.1163 6.66528 18.8373 6.68004 18.543 6.84231C18.3879 6.94558 18.1862 7.07836 17.9691 7.31422L17.845 7.28472L16.8527 7.94824L16.8994 7.5796H15.8759L15.2716 11.1187H16.2485L16.6049 9.21661C16.6049 9.21661 16.7447 8.95089 16.8066 8.86272C16.9927 8.64144 17.1476 8.64144 17.349 8.64144H17.4268C17.3942 8.86618 17.3786 9.09285 17.3801 9.31971C17.3801 10.4699 18.0622 11.1926 19.1165 11.1926C19.3802 11.1926 19.613 11.1631 19.9694 11.0746L20.1402 10.0719C19.8301 10.234 19.551 10.3078 19.3183 10.3078C18.7448 10.3078 18.4034 9.89488 18.4034 9.24612C18.403 8.28755 18.9149 7.60927 19.6437 7.60927ZM27.876 6.76873L27.6592 8.00742C27.4265 7.66829 27.1474 7.50601 26.7753 7.50601C26.2634 7.50601 25.783 7.78613 25.4883 8.31705V8.30247L24.8682 7.94841L24.9303 7.57977H23.8915L23.3023 11.1188H24.2635L24.5892 9.21679C24.5892 9.21679 24.8372 8.95107 24.8993 8.8629C25.0544 8.68587 25.2093 8.65619 25.3334 8.64161C25.225 8.93649 25.1629 9.29038 25.1629 9.6887C25.1629 10.5735 25.6434 11.1633 26.3565 11.1633C26.7132 11.1633 26.9922 11.0452 27.2557 10.7649L27.2094 11.1188H28.1243L28.8684 6.76873H27.876ZM26.6824 10.2785C26.3567 10.2785 26.1863 10.0426 26.1863 9.58525C26.1863 8.89206 26.4963 8.39082 26.9457 8.39082C27.2868 8.39082 27.4576 8.64161 27.4576 9.08401C27.4576 9.79179 27.1475 10.2785 26.6824 10.2785ZM22.2019 9.54117C22.1089 9.52624 22.0779 9.52624 22.0158 9.52624C21.4573 9.52624 21.1783 9.73261 21.1783 10.0572C21.1783 10.2785 21.318 10.426 21.535 10.426C22.0001 10.426 22.1862 10.0572 22.2019 9.54117ZM22.9771 11.1188H22.1242L22.1552 10.7504C21.9383 11.0303 21.6434 11.1778 21.1321 11.1778C20.6513 11.1778 20.2329 10.7944 20.2329 10.2047C20.2329 9.36431 20.8993 8.84815 21.9536 8.84815C22.0623 8.84815 22.2326 8.84815 22.3724 8.86307C22.4034 8.74505 22.4191 8.70062 22.4191 8.62703C22.4191 8.39099 22.2175 8.31723 21.7523 8.31723C21.4887 8.31723 21.1631 8.36148 20.9462 8.43525L20.8221 8.46475L20.76 8.47933L20.8994 7.68304C21.3492 7.55026 21.675 7.49143 22.0313 7.49143C22.8685 7.49143 23.3026 7.86007 23.3026 8.53834C23.3026 8.71537 23.3336 8.84815 23.2563 9.23154L23.0546 10.4997L23.0236 10.721L22.9926 10.8981L22.9773 11.0161V11.1188H22.9771ZM9.65886 8.3318C9.84499 8.3318 10.1085 8.34656 10.3877 8.39082L10.5273 7.56502C10.2481 7.53551 9.87601 7.49125 9.65886 7.49125C8.57369 7.49125 8.21714 8.05168 8.21714 8.70045C8.21714 9.12827 8.41859 9.43773 8.94576 9.6736C9.33333 9.85063 9.39537 9.87996 9.39537 10.0424C9.39537 10.2634 9.19392 10.3963 8.82167 10.3963C8.52716 10.3963 8.24798 10.3519 7.93795 10.2488L7.82938 11.0596L7.84471 11.0746L8.03083 11.1041C8.09287 11.1187 8.17042 11.1336 8.279 11.1482C8.51147 11.1631 8.7131 11.1777 8.83718 11.1777C9.92254 11.1777 10.3722 10.7797 10.3722 9.99798C10.3722 9.51149 10.124 9.21661 9.64335 9.01025C9.22476 8.83305 9.17823 8.80389 9.17823 8.64144C9.17823 8.47933 9.36435 8.3318 9.65886 8.3318Z" fill="#1B3771"/>
<path fill-rule="evenodd" clip-rule="evenodd" d="M20.946 6.62126L20.7752 7.56508C20.4341 7.4028 20.1859 7.32921 19.9069 7.32921C19.1781 7.32921 18.6667 8.00748 18.6667 8.96606C18.6667 9.62975 19.0077 10.0277 19.5816 10.0277C19.8139 10.0277 20.0931 9.95413 20.4031 9.80678L20.2327 10.7945C19.8759 10.883 19.6435 10.9275 19.3798 10.9275C18.3256 10.9275 17.6744 10.2048 17.6744 9.03999C17.6744 7.49149 18.5736 6.40015 19.8604 6.40015C20.0308 6.40015 20.1858 6.4149 20.3098 6.4444L20.6976 6.53292C20.8219 6.57718 20.8529 6.59193 20.946 6.62126ZM17.814 7.2702H17.7209C17.3956 7.2702 17.2094 7.41773 16.9147 7.84521L17.0078 7.29953H16.1239L15.5195 10.8388H16.4965C16.8529 8.671 16.9459 8.30236 17.4111 8.30236H17.4731C17.5662 7.87471 17.6901 7.56491 17.8452 7.28478L17.814 7.2702ZM12.2016 10.7945C11.9381 10.883 11.721 10.9125 11.504 10.9125C11.0079 10.9125 10.7287 10.6472 10.7287 10.1312C10.7287 10.0426 10.7442 9.9248 10.7597 9.82136L10.8218 9.46747L10.8683 9.18752L11.2869 6.76879H12.2481L12.1396 7.29971H12.6357L12.5116 8.16976H12.0155L11.752 9.6445C11.7365 9.70351 11.7365 9.74794 11.7365 9.79203C11.7365 9.96906 11.8296 10.0428 12.062 10.0428C12.1706 10.0428 12.2635 10.0428 12.3255 10.0133L12.2016 10.7945ZM8.4651 8.42038C8.4651 8.86296 8.68206 9.17242 9.19372 9.40846C9.5968 9.58549 9.65884 9.64433 9.65884 9.79186C9.65884 10.0131 9.48823 10.1162 9.10066 10.1162C8.80614 10.1162 8.54247 10.0722 8.23245 9.98364L8.09285 10.7945L8.13938 10.8094L8.31 10.8389C8.37186 10.8535 8.44959 10.8684 8.57349 10.8684C8.79045 10.898 8.97657 10.898 9.10066 10.898C10.1238 10.898 10.6046 10.5291 10.6046 9.71827C10.6046 9.23143 10.4032 8.95113 9.92252 8.73019C9.50393 8.55316 9.45739 8.50907 9.45739 8.34679C9.45739 8.15518 9.62801 8.06667 9.93803 8.06667C10.1242 8.06667 10.3876 8.08142 10.6358 8.11093L10.7752 7.29988C10.5272 7.25562 10.1397 7.22612 9.92252 7.22612C8.83717 7.22594 8.44959 7.77162 8.4651 8.42038ZM28.3725 10.8389H27.4575L27.5042 10.4996C27.2406 10.765 26.9614 10.883 26.6046 10.883C25.8915 10.883 25.4264 10.3082 25.4264 9.42339C25.4264 8.24353 26.1552 7.2407 27.0077 7.2407C27.3955 7.2407 27.6745 7.40298 27.9384 7.72736L28.1553 6.48866H29.1166L28.3725 10.8389ZM26.9459 10.0131C27.3957 10.0131 27.7057 9.51173 27.7057 8.81853C27.7057 8.36137 27.5349 8.12533 27.1939 8.12533C26.7598 8.12533 26.4344 8.61199 26.4344 9.30519C26.4344 9.77728 26.6048 10.0131 26.9459 10.0131ZM15.1783 10.765C14.8371 10.8684 14.5271 10.9125 14.1705 10.9125C13.0852 10.9125 12.527 10.367 12.527 9.31995C12.527 8.11075 13.2403 7.21119 14.217 7.21119C15.0232 7.21119 15.5347 7.71261 15.5347 8.49415C15.5347 8.75969 15.5037 9.01049 15.4106 9.37896H13.4884C13.4729 9.42339 13.4729 9.45289 13.4729 9.4824C13.4729 9.8953 13.7676 10.1017 14.3256 10.1017C14.6822 10.1017 14.9922 10.0426 15.3334 9.88037L15.1783 10.765ZM14.6356 8.65625V8.47939C14.6356 8.18452 14.465 8.02224 14.1705 8.02224C13.8605 8.02224 13.6433 8.24353 13.5503 8.65625H14.6356ZM4.7596 10.8389H3.79833L4.35652 7.49132L3.10073 10.8389H2.43397L2.35642 7.52082L1.7674 10.8389H0.868164L1.6278 6.48866H3.02318L3.06971 9.18735L3.99978 6.48866H5.51924L4.7596 10.8389ZM7.16278 9.26094C7.06972 9.26094 7.02319 9.24636 6.94564 9.24636C6.40296 9.24636 6.12396 9.43797 6.12396 9.79186C6.12396 10.0131 6.24804 10.1457 6.465 10.1457C6.86809 10.1457 7.14727 9.79186 7.16278 9.26094ZM7.87589 10.8389H7.06954L7.08505 10.4701C6.83689 10.765 6.51135 10.898 6.06174 10.898C5.53457 10.898 5.17802 10.5146 5.17802 9.93938C5.17802 9.0695 5.79806 8.56808 6.88342 8.56808C6.99199 8.56808 7.13158 8.58284 7.2865 8.59741C7.31752 8.47957 7.31752 8.43531 7.31752 8.3763C7.31752 8.14043 7.14691 8.05192 6.69729 8.05192C6.41829 8.05192 6.10809 8.08142 5.89112 8.14043L5.75153 8.18469L5.65847 8.19944L5.79806 7.40315C6.2787 7.27038 6.60423 7.22612 6.96097 7.22612C7.79816 7.22612 8.24777 7.58001 8.24777 8.25828C8.24777 8.43531 8.23226 8.56808 8.17022 8.96623L7.95308 10.2199L7.92206 10.4408L7.90655 10.6178L7.89104 10.7508L7.87589 10.8389ZM22.5119 9.26094C22.4032 9.26094 22.3568 9.24636 22.295 9.24636C21.7368 9.24636 21.4574 9.43797 21.4574 9.79186C21.4574 10.0131 21.5972 10.1457 21.8142 10.1457C22.2019 10.1457 22.4963 9.79186 22.5119 9.26094ZM23.2251 10.8389H22.4189L22.4342 10.4701C22.1862 10.765 21.8607 10.898 21.4111 10.898C20.8839 10.898 20.5272 10.5146 20.5272 9.93938C20.5272 9.0695 21.1472 8.56808 22.2326 8.56808C22.3413 8.56808 22.4809 8.58284 22.6203 8.59741C22.6514 8.47957 22.667 8.43531 22.667 8.3763C22.667 8.14043 22.4962 8.05192 22.047 8.05192C21.7676 8.05192 21.4423 8.08142 21.2251 8.14043L21.1011 8.18469L21.008 8.19944L21.1474 7.40315C21.6282 7.27038 21.9536 7.22612 22.3103 7.22612C23.1475 7.22612 23.5816 7.58001 23.5816 8.25828C23.5816 8.43531 23.5816 8.56808 23.5042 8.96623L23.3026 10.2199L23.2716 10.4408L23.2406 10.6178L23.2252 10.7508V10.8389H23.2251ZM25.8297 7.2702H25.7366C25.4113 7.2702 25.2251 7.41773 24.9305 7.84521L25.0235 7.29953H24.1396L23.5504 10.8388H24.5117C24.8684 8.671 24.9615 8.30236 25.4266 8.30236H25.4886C25.5817 7.87471 25.7056 7.56491 25.8607 7.28478L25.8297 7.2702Z" fill="white"/>
</svg>
