<svg width="40" height="33" viewBox="0 0 40 33" fill="none" xmlns="http://www.w3.org/2000/svg">
<path fill-rule="evenodd" clip-rule="evenodd" d="M18.3498 25.5481C18.6727 25.4709 19.0182 25.7165 19.0625 26.0421C19.1224 26.3719 18.8498 26.7061 18.5182 26.727C18.197 26.7573 17.8845 26.483 17.8793 26.1592C17.8576 25.8754 18.0746 25.6045 18.3498 25.5481Z" fill="#5975F9"/>
<path fill-rule="evenodd" clip-rule="evenodd" d="M1.59361 25.8963C1.61444 25.8329 1.66305 25.7609 1.73857 25.7643C2.00854 25.7617 2.27938 25.7626 2.54934 25.7643C2.64223 25.7635 2.69084 25.8555 2.72035 25.9301C3.124 26.9649 3.52678 27.9996 3.9313 29.0335C3.93564 29.0864 4.01463 29.1142 4.02939 29.0517C4.43999 28.0005 4.8445 26.9484 5.25423 25.8972C5.28288 25.8294 5.34104 25.7565 5.42263 25.7635C5.6926 25.7635 5.96257 25.7609 6.23254 25.7652C6.31761 25.7678 6.3558 25.8555 6.37664 25.9258C6.88619 27.5716 7.39661 29.2175 7.90703 30.8642C7.92266 30.9154 7.93915 30.9857 7.89401 31.0291C7.85321 31.076 7.78464 31.0639 7.72995 31.0673C7.43047 31.0647 7.12925 31.0699 6.8289 31.0647C6.769 31.0647 6.72126 31.0161 6.70824 30.9606C6.36535 29.8616 6.03028 28.7592 5.68392 27.6611C5.63791 27.6619 5.60232 27.6836 5.59364 27.7305C5.26899 28.6081 4.9478 29.4866 4.62575 30.3651C4.55197 30.5587 4.48599 30.7566 4.40787 30.9493C4.38269 31.0248 4.3063 31.0752 4.22557 31.0673C4.0372 31.0647 3.84883 31.0708 3.66046 31.0639C3.58668 31.063 3.54328 30.9962 3.52157 30.9354C3.11358 29.8651 2.70994 28.7921 2.30108 27.7218C2.29587 27.6715 2.22642 27.6333 2.20993 27.6966C1.86184 28.7809 1.52329 29.8677 1.17694 30.9528C1.16131 31.0239 1.09534 31.0743 1.02155 31.0665C0.721202 31.0665 0.42172 31.0682 0.122238 31.0656C0.0336954 31.0725 -0.0279373 30.9727 0.0128618 30.8946C0.538908 29.2288 1.06582 27.563 1.59361 25.8963Z" fill="#5975F9"/>
<path fill-rule="evenodd" clip-rule="evenodd" d="M13.1649 25.7799C13.2066 25.7565 13.2561 25.7652 13.3021 25.7626C13.5434 25.7652 13.7838 25.7608 14.0252 25.7643C14.1007 25.7652 14.1597 25.8442 14.1502 25.9188C14.151 26.378 14.1502 26.839 14.151 27.299C14.1484 27.352 14.1597 27.4397 14.2326 27.4345C14.3472 27.3928 14.4349 27.3008 14.546 27.2504C15.0486 26.9709 15.6884 26.9848 16.1918 27.2522C16.5182 27.4223 16.7865 27.6949 16.9644 28.0161C17.2509 28.5291 17.3099 29.1567 17.1563 29.7218C17.0061 30.2791 16.6111 30.773 16.0799 31.0083C15.6007 31.2184 15.0113 31.2392 14.5547 30.9597C14.4279 30.8902 14.3229 30.7895 14.1996 30.7149C14.0989 30.6975 14.1154 30.8329 14.1128 30.8972C14.125 30.9822 14.0547 31.0725 13.9653 31.0664C13.7248 31.0673 13.4844 31.0673 13.2439 31.0664C13.1536 31.0708 13.0755 30.9857 13.0868 30.8972C13.0876 29.2383 13.0859 27.5794 13.0868 25.9214C13.0816 25.8624 13.1137 25.8068 13.1649 25.7799ZM14.967 28.0369C14.6901 28.0855 14.4427 28.2609 14.296 28.4987C14.0356 28.9024 14.0712 29.4744 14.388 29.8373C14.5712 30.0508 14.8472 30.1888 15.1311 30.1836C15.3863 30.1906 15.6415 30.0864 15.8273 29.911C16.171 29.5968 16.2674 29.056 16.0694 28.6376C15.8915 28.2209 15.4167 27.9449 14.967 28.0369Z" fill="#5975F9"/>
<path fill-rule="evenodd" clip-rule="evenodd" d="M19.9349 25.7755C20.2083 25.746 20.4879 25.7703 20.7639 25.7634C20.8663 25.7504 20.9419 25.8545 20.9297 25.9509C20.9297 27.1688 20.9297 28.3875 20.9297 29.6063C20.9306 29.7495 20.9089 29.9084 20.9957 30.0334C21.0616 30.1349 21.1875 30.1671 21.3012 30.1714C21.3837 30.1662 21.4618 30.2365 21.4531 30.3216C21.454 30.5334 21.4531 30.7443 21.4531 30.9561C21.4644 31.0369 21.3828 31.108 21.3056 31.1037C21.0382 31.1072 20.7648 31.0863 20.5113 30.9961C20.2995 30.9223 20.1103 30.7712 20.0113 30.5672C19.8819 30.3077 19.8594 30.0117 19.8576 29.7261C19.8576 28.4674 19.8576 27.2087 19.8576 25.95C19.8533 25.8823 19.8724 25.8102 19.9349 25.7755Z" fill="#5975F9"/>
<path fill-rule="evenodd" clip-rule="evenodd" d="M26.4974 25.7799C26.5399 25.7556 26.5894 25.7652 26.6372 25.7626C27.4662 25.7643 28.2952 25.7626 29.1242 25.7634C29.6172 25.7765 30.1311 25.9388 30.4749 26.3086C30.8429 26.6923 30.9645 27.2582 30.8976 27.7739C30.8412 28.2322 30.586 28.6602 30.2084 28.9241C29.8603 29.1749 29.428 29.2921 29.0026 29.2991C28.5539 29.3008 28.1042 29.2965 27.6554 29.3008C27.5868 29.2947 27.5339 29.3607 27.5365 29.4258C27.533 29.9154 27.5365 30.4058 27.5347 30.8963C27.5443 30.9822 27.4714 31.0664 27.3846 31.0664C27.1137 31.0673 26.8438 31.0673 26.5729 31.0664C26.4844 31.0708 26.4158 30.9814 26.4271 30.8972C26.4271 29.2782 26.4271 27.6593 26.4262 26.0404C26.4271 25.9501 26.4071 25.8355 26.4974 25.7799ZM27.6007 26.7062C27.5434 26.7279 27.5313 26.7947 27.5347 26.8494C27.5356 27.319 27.5339 27.7886 27.5356 28.2591C27.5252 28.3268 27.5825 28.3928 27.6537 28.3841C28.0929 28.3859 28.5322 28.3833 28.9714 28.385C29.1294 28.3885 29.2874 28.3416 29.4184 28.2539C29.7483 28.0343 29.8855 27.5786 29.744 27.2114C29.6476 26.9353 29.3855 26.7313 29.0955 26.7044C28.8151 26.681 28.5339 26.6975 28.2535 26.6923C28.0356 26.7001 27.816 26.6766 27.6007 26.7062Z" fill="#5975F9"/>
<path fill-rule="evenodd" clip-rule="evenodd" d="M9.93129 27.075C10.4547 26.9925 11.0138 27.0837 11.4643 27.371C11.8593 27.6193 12.1605 28.0116 12.2968 28.4578C12.4921 29.0906 12.3923 29.8215 11.9903 30.3545C11.6839 30.7703 11.2073 31.049 10.7004 31.134C10.1683 31.2226 9.59622 31.1367 9.13962 30.8398C8.71774 30.575 8.40697 30.1436 8.28024 29.6627C8.12746 29.0793 8.21947 28.4257 8.56496 27.9266C8.87399 27.4665 9.38615 27.1601 9.93129 27.075ZM10.1396 28.0342C9.69518 28.1071 9.34448 28.5047 9.28893 28.9457C9.21254 29.417 9.47903 29.9231 9.92001 30.1132C10.2169 30.2469 10.578 30.2087 10.8462 30.0255C11.2768 29.7417 11.4435 29.141 11.2395 28.6705C11.0737 28.2425 10.5988 27.9474 10.1396 28.0342Z" fill="#5975F9"/>
<path fill-rule="evenodd" clip-rule="evenodd" d="M23.4133 27.075C23.9671 26.9813 24.5644 27.1071 25.0097 27.457C25.5409 27.865 25.8187 28.5525 25.7849 29.2139C25.7788 29.3016 25.7215 29.4058 25.6208 29.3962C24.7918 29.3962 23.9611 29.3962 23.1321 29.3962C23.0513 29.3971 22.9697 29.3884 22.8916 29.4049C22.8439 29.4144 22.8326 29.4717 22.8465 29.5125C22.8829 29.7834 23.0643 30.0238 23.3057 30.148C23.5696 30.2834 23.8933 30.3042 24.1677 30.1896C24.3309 30.128 24.4559 30.0039 24.5748 29.8823C24.6434 29.8094 24.7467 29.8016 24.8404 29.8068C25.0791 29.8112 25.3178 29.8016 25.5557 29.8112C25.6477 29.8276 25.6677 29.9414 25.6347 30.016C25.4828 30.4153 25.1599 30.7365 24.7822 30.9275C24.2909 31.181 23.7032 31.2296 23.172 31.0924C22.7197 30.9726 22.3109 30.6862 22.0591 30.2903C21.6815 29.707 21.6329 28.9387 21.8838 28.2973C22.1303 27.6566 22.7345 27.1757 23.4133 27.075ZM22.8682 28.7044C22.8682 28.746 22.9124 28.7643 22.9498 28.7591C23.4801 28.7599 24.0114 28.7582 24.5427 28.7599C24.5852 28.7651 24.6234 28.7478 24.6538 28.7183C24.5921 28.3224 24.2519 27.99 23.8499 27.9552C23.3933 27.8988 22.9402 28.253 22.8682 28.7044Z" fill="#5975F9"/>
<path fill-rule="evenodd" clip-rule="evenodd" d="M32.8812 27.0742C33.1676 27.0239 33.4697 27.036 33.7432 27.1411C33.9289 27.2096 34.0947 27.3225 34.2492 27.4457C34.2822 27.4735 34.3439 27.51 34.3751 27.4579C34.409 27.3763 34.3638 27.2765 34.4159 27.2001C34.4515 27.1497 34.5175 27.1463 34.5748 27.1489C34.8048 27.1497 35.0357 27.1471 35.2675 27.1497C35.3465 27.1454 35.4185 27.2183 35.4151 27.2982C35.4151 28.1272 35.4151 28.9562 35.4151 29.7852C35.4159 29.8876 35.4055 30.0031 35.4706 30.0907C35.534 30.1932 35.7171 30.1289 35.7484 30.2652C35.7571 30.4944 35.7501 30.7244 35.7519 30.9545C35.7579 31.0265 35.705 31.1055 35.6269 31.1038C35.2892 31.1133 34.902 31.043 34.6859 30.7565C34.6329 30.7018 34.6104 30.5933 34.5209 30.5942C34.3847 30.6888 34.2727 30.8156 34.1286 30.9006C33.7536 31.1541 33.2753 31.2149 32.8369 31.1341C32.3708 31.0456 31.9506 30.7652 31.6737 30.3824C31.0852 29.582 31.1433 28.3642 31.8352 27.6419C32.1121 27.3485 32.4827 27.1437 32.8812 27.0742ZM33.1555 28.0438C33.0097 28.0768 32.8716 28.1437 32.7553 28.2357C32.3942 28.5187 32.257 29.0369 32.4046 29.4666C32.5209 29.832 32.8456 30.1324 33.231 30.1836C33.5756 30.2374 33.9393 30.0838 34.1503 29.8069C34.455 29.4241 34.4663 28.8416 34.1798 28.444C33.9576 28.1237 33.5383 27.9518 33.1555 28.0438Z" fill="#5975F9"/>
<path fill-rule="evenodd" clip-rule="evenodd" d="M18.0157 27.1601C18.2796 27.1332 18.5504 27.1575 18.8178 27.1479C18.9055 27.134 19.0036 27.2017 18.9966 27.2964C18.9975 28.496 18.9958 29.6957 18.9975 30.8945C19.0088 30.9813 18.9367 31.0716 18.8473 31.0664C18.5869 31.0664 18.3256 31.069 18.0652 31.0646C17.9792 31.0629 17.922 30.9744 17.9324 30.8945C17.9332 29.6966 17.9315 28.4986 17.9332 27.3007C17.9298 27.2417 17.9636 27.1861 18.0157 27.1601Z" fill="#5975F9"/>
<path fill-rule="evenodd" clip-rule="evenodd" d="M35.9933 27.1557C36.2694 27.1392 36.548 27.1531 36.8249 27.1497C36.9056 27.1436 36.9543 27.2226 36.9812 27.2885C37.2763 27.9726 37.5741 28.6557 37.8675 29.3406C37.8944 29.3936 37.9178 29.4726 37.9881 29.4804C38.0532 29.463 38.0827 29.3919 38.1097 29.3354C38.3926 28.6488 38.6756 27.963 38.9586 27.2764C38.9821 27.2165 39.0237 27.147 39.0975 27.1497C39.3579 27.1497 39.6192 27.1462 39.8805 27.1514C39.9725 27.1549 40.0281 27.2677 39.9855 27.3476C39.5367 28.417 39.0862 29.4847 38.6366 30.5533C38.4855 30.9179 38.3327 31.2868 38.1175 31.6202C37.9334 31.9075 37.6982 32.1723 37.3952 32.3389C37.0593 32.5299 36.6652 32.5829 36.285 32.5872C36.2069 32.5915 36.1201 32.5334 36.1209 32.4509C36.1166 32.2322 36.1183 32.0125 36.1201 31.7938C36.1166 31.7079 36.2051 31.6506 36.2832 31.6584C36.6556 31.6523 37.0515 31.5047 37.2668 31.187C37.3709 31.0247 37.4491 30.8129 37.3631 30.6254C36.8857 29.5429 36.4048 28.4613 35.9282 27.3788C35.8874 27.3007 35.9056 27.1913 35.9933 27.1557Z" fill="#5975F9"/>
<path fill-rule="evenodd" clip-rule="evenodd" d="M16.9471 0.132082C17.389 -0.0536839 17.9081 -0.0423989 18.343 0.158992C18.6564 0.300486 18.9237 0.539204 19.1025 0.833477C19.1911 0.974103 19.2484 1.13122 19.3126 1.28487C19.7466 2.33436 20.1833 3.38385 20.6138 4.43507C21.7588 3.99583 22.9585 3.66857 24.1868 3.6C24.6338 3.58003 25.0826 3.58784 25.528 3.64514C25.9542 4.65817 26.363 5.67814 26.7927 6.68857C26.995 6.76062 27.2103 6.80228 27.4151 6.87346C27.9143 7.03406 28.4012 7.24065 28.8552 7.50368C28.8552 9.58009 28.8544 11.6565 28.8561 13.732C27.3682 12.9299 25.666 12.6166 23.9897 12.5801C24.37 13.4968 24.751 14.4143 25.1312 15.3319C25.2181 15.5498 25.3257 15.765 25.363 16.0003C25.4602 16.5428 25.284 17.1288 24.8934 17.5203C24.7276 17.6939 24.5236 17.8284 24.3014 17.9196C22.1694 18.8007 20.0392 19.6887 17.9055 20.5663C17.3786 20.7538 16.7675 20.6661 16.3143 20.3406C16.0504 20.1522 15.8404 19.8892 15.7171 19.5889C13.7423 14.8223 11.7683 10.0567 9.79343 5.29012C9.69534 5.054 9.58596 4.81615 9.56426 4.55747C9.48614 3.9316 9.78302 3.27968 10.3039 2.92551C10.4888 2.7927 10.7049 2.71891 10.9115 2.63124C12.9237 1.7979 14.935 0.964555 16.9471 0.132082ZM17.2848 1.00796C15.2935 1.83349 13.3013 2.65815 11.3099 3.48281C11.1771 3.54097 11.0391 3.58871 10.9098 3.65468C10.6311 3.80139 10.461 4.12604 10.494 4.43941C10.5096 4.60521 10.5921 4.75365 10.6519 4.9073C12.6329 9.68859 14.6121 14.4708 16.5938 19.2512C16.7605 19.6453 17.2666 19.8415 17.6546 19.6566C19.7519 18.7876 21.85 17.9187 23.9481 17.0498C24.3387 16.9005 24.5583 16.417 24.4012 16.0272C23.9333 14.884 23.4524 13.7459 22.9889 12.6018C22.7007 12.6079 22.4133 12.6383 22.1269 12.6687C20.8977 12.8136 19.672 13.1279 18.5852 13.7338C18.2084 12.8058 17.8195 11.8813 17.4376 10.9542C16.9741 9.82575 16.4975 8.70161 16.0418 7.57052C17.0366 6.37259 18.3387 5.45418 19.7501 4.81094C19.7397 4.77883 19.7302 4.74584 19.718 4.71459C19.2605 3.61388 18.8048 2.51231 18.3473 1.41074C18.1807 1.01664 17.672 0.822192 17.2848 1.00796Z" fill="#5975F9"/>
<path d="M16.0416 13.7337V3.57996H26.7813V13.7337H16.0416Z" fill="url(#paint0_linear_955_1234)"/>
<defs>
<linearGradient id="paint0_linear_955_1234" x1="18.2572" y1="13.7978" x2="18.5582" y2="3.34317" gradientUnits="userSpaceOnUse">
<stop stop-color="#3B4EC8"/>
<stop offset="0.0295534" stop-color="#3B4EC8"/>
<stop offset="0.5" stop-color="#3B4EC8"/>
<stop offset="0.53125" stop-color="#3B4EC8"/>
<stop offset="0.546875" stop-color="#3B4EC8"/>
<stop offset="0.550781" stop-color="#3C4FCA"/>
<stop offset="0.554688" stop-color="#3C50CA"/>
<stop offset="0.558594" stop-color="#3D50CB"/>
<stop offset="0.5625" stop-color="#3D51CC"/>
<stop offset="0.566406" stop-color="#3D51CC"/>
<stop offset="0.570313" stop-color="#3E52CD"/>
<stop offset="0.574219" stop-color="#3E52CE"/>
<stop offset="0.578125" stop-color="#3F53CE"/>
<stop offset="0.582031" stop-color="#3F54CF"/>
<stop offset="0.585938" stop-color="#4054D0"/>
<stop offset="0.589844" stop-color="#4055D0"/>
<stop offset="0.59375" stop-color="#4055D1"/>
<stop offset="0.597656" stop-color="#4156D2"/>
<stop offset="0.601563" stop-color="#4156D3"/>
<stop offset="0.605469" stop-color="#4257D3"/>
<stop offset="0.609375" stop-color="#4257D4"/>
<stop offset="0.613281" stop-color="#4258D5"/>
<stop offset="0.617188" stop-color="#4358D5"/>
<stop offset="0.621094" stop-color="#4359D6"/>
<stop offset="0.625" stop-color="#445AD7"/>
<stop offset="0.628906" stop-color="#445AD7"/>
<stop offset="0.632813" stop-color="#445BD8"/>
<stop offset="0.636719" stop-color="#455BD9"/>
<stop offset="0.640625" stop-color="#455CDA"/>
<stop offset="0.644531" stop-color="#465CDA"/>
<stop offset="0.648438" stop-color="#465DDB"/>
<stop offset="0.652344" stop-color="#465DDC"/>
<stop offset="0.65625" stop-color="#475EDC"/>
<stop offset="0.660156" stop-color="#475EDD"/>
<stop offset="0.664063" stop-color="#485FDE"/>
<stop offset="0.667969" stop-color="#485FDE"/>
<stop offset="0.671875" stop-color="#4860DF"/>
<stop offset="0.675781" stop-color="#4961E0"/>
<stop offset="0.679688" stop-color="#4961E1"/>
<stop offset="0.683594" stop-color="#4A62E1"/>
<stop offset="0.6875" stop-color="#4A62E2"/>
<stop offset="0.691406" stop-color="#4A63E3"/>
<stop offset="0.695313" stop-color="#4B63E3"/>
<stop offset="0.699219" stop-color="#4B64E4"/>
<stop offset="0.703125" stop-color="#4C64E5"/>
<stop offset="0.707031" stop-color="#4C65E5"/>
<stop offset="0.710938" stop-color="#4C65E6"/>
<stop offset="0.714844" stop-color="#4D66E7"/>
<stop offset="0.71875" stop-color="#4D67E8"/>
<stop offset="0.722656" stop-color="#4E67E8"/>
<stop offset="0.726563" stop-color="#4E68E9"/>
<stop offset="0.730469" stop-color="#4E68EA"/>
<stop offset="0.734375" stop-color="#4F69EA"/>
<stop offset="0.738281" stop-color="#4F69EB"/>
<stop offset="0.742188" stop-color="#506AEC"/>
<stop offset="0.746094" stop-color="#506AEC"/>
<stop offset="0.75" stop-color="#516BED"/>
<stop offset="0.753906" stop-color="#516BEE"/>
<stop offset="0.757813" stop-color="#516CEE"/>
<stop offset="0.761719" stop-color="#526DEF"/>
<stop offset="0.765625" stop-color="#526DF0"/>
<stop offset="0.769531" stop-color="#536EF1"/>
<stop offset="0.773438" stop-color="#536EF1"/>
<stop offset="0.777344" stop-color="#536FF2"/>
<stop offset="0.78125" stop-color="#546FF3"/>
<stop offset="0.785156" stop-color="#5470F3"/>
<stop offset="0.789063" stop-color="#5570F4"/>
<stop offset="0.792969" stop-color="#5571F5"/>
<stop offset="0.796875" stop-color="#5571F5"/>
<stop offset="0.800781" stop-color="#5672F6"/>
<stop offset="0.804688" stop-color="#5673F7"/>
<stop offset="0.808594" stop-color="#5773F8"/>
<stop offset="0.8125" stop-color="#5774F8"/>
<stop offset="0.816406" stop-color="#5774F9"/>
<stop offset="0.820313" stop-color="#5875FA"/>
<stop offset="0.828125" stop-color="#5875FA"/>
<stop offset="0.835938" stop-color="#5875FB"/>
<stop offset="0.84375" stop-color="#5876FC"/>
<stop offset="0.851563" stop-color="#5876FC"/>
<stop offset="0.859375" stop-color="#5977FD"/>
<stop offset="0.867188" stop-color="#5977FE"/>
<stop offset="0.875" stop-color="#5978FE"/>
<stop offset="0.970447" stop-color="#5978FF"/>
<stop offset="1" stop-color="#5978FF"/>
</linearGradient>
</defs>
</svg>
