<svg width="209" height="247" viewBox="0 0 209 247" fill="none" xmlns="http://www.w3.org/2000/svg">
<path d="M202.26 193.406C197.562 208.053 189.209 221.977 177.594 231.821C176.001 233.159 174.352 234.426 172.645 235.62C169.762 237.628 166.707 239.375 163.514 240.841C161.324 241.843 159.077 242.715 156.783 243.451C153.544 244.492 150.232 245.291 146.875 245.84C146.257 245.95 145.63 246.046 145.008 246.131L144.35 246.222C130.858 248.029 116.682 246.442 103.155 243.993C86.3647 240.956 69.6045 236.629 54.6062 228.498C23.7614 211.788 2.50375 178.604 0.204817 143.598C-0.297134 136.038 0.0542325 128.358 2.03694 121.04C5.2695 109.053 12.4374 99.2002 20.8701 90.0145C21.4022 89.4272 21.9493 88.8399 22.4964 88.2627C30.4072 79.8751 39.2616 71.9844 47.0017 63.4462C47.7446 62.6264 48.4757 61.8015 49.1952 60.9716C49.3056 60.8511 49.411 60.7256 49.5215 60.5951L49.8176 60.2488L50.0887 59.9376C50.0887 59.9376 50.1188 59.8924 50.1389 59.8723C50.5505 59.3704 50.9571 58.8985 51.3486 58.4066C52.3525 57.1919 53.3045 55.9504 54.2047 54.6822C54.3101 54.5366 54.4155 54.391 54.5159 54.2404C54.8271 53.8037 55.1283 53.367 55.4244 52.9203C55.9163 52.1975 56.3932 51.4647 56.855 50.7218C57.2699 50.0525 57.6748 49.3698 58.0697 48.6738C58.3156 48.2421 58.5716 47.8054 58.7875 47.3637C59.2593 46.4937 59.701 45.6136 60.1126 44.7235C60.6497 43.5991 61.1416 42.4496 61.6185 41.2851C61.8695 40.6225 62.1204 39.975 62.4166 39.3275C63.1658 37.5941 64.0035 35.9003 64.9263 34.2528C64.9421 34.2081 64.964 34.1658 64.9916 34.1273C88.2319 -7.76553 163.74 -21.8201 197.818 54.9181C201.914 64.1339 203.41 74.2633 204.594 84.2722C206.431 99.7757 207.649 115.336 208.248 130.954C209.061 151.965 208.675 173.388 202.26 193.406Z" fill="#136955"/>
<path d="M128.468 104.596C130.923 106.98 132.649 109.992 134.351 112.959L146.975 135.044C149.304 139.12 151.663 143.261 152.758 147.824C153.721 151.84 153.661 156.041 153.601 160.177L153.219 184.773C153.154 188.884 153.009 193.266 150.685 196.659C147.171 201.754 140.068 202.778 133.914 202.18C121.792 201.016 109.821 194.972 103.195 184.763C96.5693 174.553 96.1978 160.117 103.722 150.545C106.633 146.845 110.659 143.758 111.984 139.241C113.415 134.382 111.126 128.941 107.241 125.688C104.51 123.404 101.132 122.054 98.2056 120.046C95.2793 118.038 92.6239 114.992 92.6842 111.433C92.8147 98.1009 121.521 97.86 128.468 104.596Z" fill="#FCC5A7"/>
<path d="M128.247 129.955C127.941 136.069 128.87 142.182 130.978 147.929C128.754 147.588 127.143 145.726 125.502 144.185C123.86 142.644 121.536 141.269 119.478 142.142C120.605 144.12 121.078 146.404 120.829 148.667C120.116 145.927 117.019 143.738 114.399 144.807C112.747 145.485 111.753 147.156 110.383 148.281C109.013 149.405 106.513 149.726 105.745 148.11C111.723 143.623 113.942 135.747 115.131 128.363C115.99 123.043 116.452 105.615 124.714 106.428C133.945 107.342 128.539 124.408 128.247 129.955Z" fill="#AD927E"/>
<path d="M122.269 34.1272H66.0809C62.7875 34.1272 60.1177 36.797 60.1177 40.0904V133.127C60.1177 136.42 62.7875 139.09 66.0809 139.09H122.269C125.563 139.09 128.232 136.42 128.232 133.127V40.0904C128.232 36.797 125.563 34.1272 122.269 34.1272Z" fill="#30D5AD"/>
<path d="M120.221 34.1272H64.0328C60.7395 34.1272 58.0697 36.797 58.0697 40.0904V133.127C58.0697 136.42 60.7395 139.09 64.0328 139.09H120.221C123.515 139.09 126.184 136.42 126.184 133.127V40.0904C126.184 36.797 123.515 34.1272 120.221 34.1272Z" fill="#30D5AD"/>
<path opacity="0.58" d="M120.221 34.1272H64.0328C60.7395 34.1272 58.0697 36.797 58.0697 40.0904V133.127C58.0697 136.42 60.7395 139.09 64.0328 139.09H120.221C123.515 139.09 126.184 136.42 126.184 133.127V40.0904C126.184 36.797 123.515 34.1272 120.221 34.1272Z" fill="#098064"/>
<path d="M105.936 40.8283H93.8488C92.0219 40.8283 90.5409 42.3093 90.5409 44.1362V58.7379C90.5409 60.5648 92.0219 62.0458 93.8488 62.0458H105.936C107.763 62.0458 109.244 60.5648 109.244 58.7379V44.1362C109.244 42.3093 107.763 40.8283 105.936 40.8283Z" fill="#FDB523"/>
<path d="M98.2007 61.9705H96.218V55.8819C95.8178 55.8143 95.4377 55.6585 95.1052 55.4258C94.7727 55.1932 94.4961 54.8894 94.2955 54.5366L94.2002 54.3409V54.12C94.2002 53.6181 94.0596 49.226 94.2002 48.0565C94.3407 46.8869 95.6759 46.0738 96.5644 45.7073V40.8585H98.5722V47.178L97.8493 47.3838C97.0512 47.6147 96.2682 48.0866 96.1879 48.3175C96.1026 49.0302 96.1377 51.8311 96.1879 53.7335C96.4646 53.9245 96.8056 53.9985 97.1366 53.9393L98.2208 53.8389L98.2007 61.9705Z" fill="#EFA92B"/>
<path d="M101.9 61.9705H103.883V55.8819C104.282 55.8136 104.661 55.6575 104.993 55.4249C105.324 55.1922 105.6 54.8888 105.8 54.5366L105.901 54.3409V54.12C105.901 53.6181 106.041 49.226 105.901 48.0565C105.76 46.8869 104.395 46.0738 103.536 45.7073V40.8585H101.554V47.178L102.276 47.3838C103.075 47.6147 103.858 48.0866 103.933 48.3175C104.023 49.0302 103.983 51.8311 103.933 53.7335C103.654 53.9243 103.312 53.9982 102.979 53.9393L101.9 53.8389V61.9705Z" fill="#EFA92B"/>
<path d="M100.309 40.8735H99.8922V62.0408H100.309V40.8735Z" fill="#EFA92B"/>
<path d="M93.7534 40.8735H93.3367V62.0408H93.7534V40.8735Z" fill="#EFA92B"/>
<path d="M106.869 40.8735H106.453V62.0408H106.869V40.8735Z" fill="#EFA92B"/>
<path d="M99.7984 75.02V76.7501C99.2314 76.7153 98.728 76.5591 98.2882 76.2814C97.8485 76.0075 97.5052 75.6237 97.2583 75.1299C97.0114 74.64 96.888 74.0499 96.888 73.3594C96.888 72.8193 96.9806 72.3352 97.1657 71.9071C97.3547 71.4789 97.6247 71.1124 97.9758 70.8077C98.3268 70.5068 98.7511 70.2773 99.2487 70.1191C99.7463 69.961 100.304 69.8819 100.921 69.8819H101.505C102.122 69.8819 102.68 69.9629 103.178 70.1249C103.679 70.2908 104.105 70.5261 104.456 70.8308C104.807 71.1394 105.077 71.5078 105.266 71.936C105.455 72.3642 105.55 72.8425 105.55 73.371C105.55 74.073 105.423 74.6651 105.168 75.1473C104.913 75.6333 104.562 76.0094 104.115 76.2756C103.667 76.5456 103.158 76.7076 102.587 76.7616V75.0258C102.927 75.0065 103.214 74.939 103.449 74.8233C103.689 74.7076 103.868 74.532 103.988 74.2967C104.111 74.0653 104.173 73.7567 104.173 73.371C104.173 73.0816 104.119 72.829 104.011 72.613C103.903 72.397 103.739 72.2157 103.519 72.0691C103.299 71.9225 103.021 71.8126 102.686 71.7393C102.354 71.6698 101.964 71.6351 101.517 71.6351H100.921C100.485 71.6351 100.101 71.6679 99.7695 71.7335C99.4416 71.7991 99.1639 71.8993 98.9363 72.0344C98.7125 72.1732 98.5428 72.3507 98.4271 72.5667C98.3152 72.7866 98.2593 73.0508 98.2593 73.3594C98.2593 73.722 98.3172 74.0209 98.4329 74.2562C98.5486 74.4915 98.7203 74.6709 98.9478 74.7943C99.1754 74.9216 99.4589 74.9969 99.7984 75.02ZM105.428 77.8899V81.0318C105.428 81.676 105.332 82.2295 105.139 82.6924C104.946 83.1592 104.661 83.5179 104.283 83.7686C103.905 84.0194 103.44 84.1447 102.888 84.1447C102.437 84.1447 102.049 84.0676 101.725 83.9133C101.405 83.7628 101.137 83.5488 100.921 83.271C100.709 82.9972 100.539 82.6751 100.412 82.3047L100.122 81.7551V79.024L101.476 79.0124V81.0434C101.476 81.3481 101.53 81.6008 101.638 81.8013C101.746 82.0019 101.897 82.1524 102.09 82.2527C102.283 82.3568 102.506 82.4089 102.761 82.4089C103.031 82.4089 103.264 82.3587 103.461 82.2585C103.658 82.1582 103.808 82.0058 103.912 81.8013C104.016 81.5969 104.069 81.3404 104.069 81.0318V79.6258H97.0037V77.8899H105.428ZM97.0037 82.5998L100.759 80.6788L100.77 82.513L97.0847 84.4572H97.0037V82.5998ZM98.3577 91.1344H97.0037V86.6501H98.3577V91.1344ZM105.428 87.2172H97.0037V85.4813H105.428V87.2172ZM101.997 90.55H100.678V86.6501H101.997V90.55ZM105.428 91.1286H104.069V86.6501H105.428V91.1286ZM83.0037 72.7229V70.8887L84.3577 70.9003V72.7229C84.3577 73.1781 84.4599 73.5619 84.6643 73.8743C84.8726 74.1868 85.1754 74.4221 85.5727 74.5803C85.9701 74.7423 86.4503 74.8233 87.0135 74.8233H87.4243C87.8563 74.8233 88.2363 74.777 88.5642 74.6844C88.8921 74.5957 89.1679 74.4626 89.3916 74.2852C89.6153 74.1077 89.7831 73.8898 89.895 73.6313C90.0107 73.3729 90.0686 73.0759 90.0686 72.7403V70.854H91.4283V72.7403C91.4283 73.3034 91.3319 73.8184 91.139 74.2852C90.95 74.7558 90.678 75.1627 90.3232 75.506C89.9683 75.8493 89.544 76.1136 89.0502 76.2987C88.5603 76.4878 88.0145 76.5823 87.4127 76.5823H87.0135C86.4156 76.5823 85.8698 76.4878 85.376 76.2987C84.8823 76.1136 84.4579 75.8493 84.1031 75.506C83.752 75.1666 83.4801 74.7596 83.2872 74.2852C83.0982 73.8146 83.0037 73.2938 83.0037 72.7229ZM91.4283 71.8723H83.0037V70.1365H91.4283V71.8723ZM91.4283 79.6894H83.0037V77.9594H91.4283V79.6894ZM91.4283 84.9085H83.0037V83.1784H91.4283V84.9085ZM91.4283 87.5007H90.0686V80.6268H91.4283V87.5007ZM71.7984 75.02V76.7501C71.2314 76.7153 70.728 76.5591 70.2882 76.2814C69.8485 76.0075 69.5052 75.6237 69.2583 75.1299C69.0114 74.64 68.888 74.0499 68.888 73.3594C68.888 72.8193 68.9806 72.3352 69.1657 71.9071C69.3547 71.4789 69.6247 71.1124 69.9758 70.8077C70.3268 70.5068 70.7511 70.2773 71.2487 70.1191C71.7463 69.961 72.3037 69.8819 72.9209 69.8819H73.5053C74.1225 69.8819 74.6799 69.9629 75.1775 70.1249C75.679 70.2908 76.1052 70.5261 76.4562 70.8308C76.8073 71.1394 77.0773 71.5078 77.2663 71.936C77.4553 72.3642 77.5498 72.8425 77.5498 73.371C77.5498 74.073 77.4225 74.6651 77.1679 75.1473C76.9133 75.6333 76.5623 76.0094 76.1149 76.2756C75.6674 76.5456 75.1582 76.7076 74.5873 76.7616V75.0258C74.9268 75.0065 75.2141 74.939 75.4495 74.8233C75.6886 74.7076 75.868 74.532 75.9876 74.2967C76.111 74.0653 76.1727 73.7567 76.1727 73.371C76.1727 73.0816 76.1187 72.829 76.0107 72.613C75.9027 72.397 75.7388 72.2157 75.5189 72.0691C75.299 71.9225 75.0213 71.8126 74.6857 71.7393C74.3539 71.6698 73.9643 71.6351 73.5169 71.6351H72.9209C72.485 71.6351 72.1012 71.6679 71.7695 71.7335C71.4416 71.7991 71.1639 71.8993 70.9363 72.0344C70.7125 72.1732 70.5428 72.3507 70.4271 72.5667C70.3152 72.7866 70.2593 73.0508 70.2593 73.3594C70.2593 73.722 70.3172 74.0209 70.4329 74.2562C70.5486 74.4915 70.7203 74.6709 70.9478 74.7943C71.1754 74.9216 71.4589 74.9969 71.7984 75.02ZM75.9876 81.3153L69.0037 79.024V77.1782L77.4283 80.3085V81.4831L75.9876 81.3153ZM69.0037 83.219L75.9876 80.9219L77.4283 80.7367V81.9229L69.0037 85.0705V83.219ZM72.1398 83.1148H70.78V78.6653H72.1398V83.1148ZM77.4283 85.8516V88.9935C77.4283 89.6377 77.3319 90.1912 77.139 90.6541C76.9461 91.1209 76.6607 91.4796 76.2827 91.7304C75.9046 91.9811 75.4398 92.1065 74.8882 92.1065C74.4369 92.1065 74.0492 92.0293 73.7252 91.875C73.405 91.7246 73.1369 91.5105 72.9209 91.2327C72.7088 90.9589 72.539 90.6368 72.4117 90.2665L72.1224 89.7168V86.9857L73.4764 86.9742V89.0051C73.4764 89.3098 73.5304 89.5625 73.6384 89.7631C73.7464 89.9637 73.8968 90.1141 74.0897 90.2144C74.2826 90.3185 74.5063 90.3706 74.7609 90.3706C75.0309 90.3706 75.2643 90.3205 75.461 90.2202C75.6578 90.1199 75.8082 89.9675 75.9123 89.7631C76.0165 89.5586 76.0686 89.3021 76.0686 88.9935V87.5875H69.0037V85.8516H77.4283ZM69.0037 90.5616L72.7589 88.6406L72.7705 90.4748L69.0847 92.4189H69.0037V90.5616ZM69.0037 96.0294V94.1952L70.3577 94.2068V96.0294C70.3577 96.4846 70.4599 96.8684 70.6643 97.1809C70.8726 97.4933 71.1754 97.7286 71.5727 97.8868C71.9701 98.0488 72.4503 98.1298 73.0135 98.1298H73.4243C73.8563 98.1298 74.2363 98.0835 74.5642 97.9909C74.8921 97.9022 75.1679 97.7691 75.3916 97.5917C75.6153 97.4143 75.7831 97.1963 75.895 96.9379C76.0107 96.6794 76.0686 96.3824 76.0686 96.0468V94.1605H77.4283V96.0468C77.4283 96.61 77.3319 97.125 77.139 97.5917C76.95 98.0623 76.678 98.4693 76.3232 98.8126C75.9683 99.1559 75.544 99.4201 75.0502 99.6053C74.5603 99.7943 74.0145 99.8888 73.4127 99.8888H73.0135C72.4156 99.8888 71.8698 99.7943 71.376 99.6053C70.8823 99.4201 70.4579 99.1559 70.1031 98.8126C69.752 98.4731 69.4801 98.0662 69.2872 97.5917C69.0982 97.1211 69.0037 96.6003 69.0037 96.0294ZM77.4283 95.1789H69.0037V93.443H77.4283V95.1789Z" fill="#30D5AD"/>
<path d="M72.2419 36.4989L18.2545 52.0713C15.0902 52.9841 13.2649 56.2892 14.1776 59.4536L39.9624 148.846C40.8752 152.01 44.1803 153.835 47.3447 152.923L101.332 137.35C104.496 136.437 106.322 133.132 105.409 129.968L79.6241 40.5758C78.7114 37.4114 75.4062 35.5861 72.2419 36.4989Z" fill="#30D5AD"/>
<path d="M70.2726 37.0621L16.2853 52.6346C13.121 53.5473 11.2957 56.8525 12.2084 60.0168L37.9932 149.409C38.906 152.573 42.2111 154.399 45.3755 153.486L99.3628 137.913C102.527 137.001 104.352 133.695 103.44 130.531L77.6549 41.139C76.7421 37.9747 73.437 36.1494 70.2726 37.0621Z" fill="#30D5AD"/>
<path d="M99.3702 137.901L45.3854 153.461C43.8659 153.894 42.2366 153.709 40.8533 152.945C39.47 152.182 38.4449 150.902 38.0017 149.385L12.2115 59.9978C11.7796 58.4768 11.9689 56.8467 12.7377 55.4652C13.5066 54.0836 14.7922 53.0637 16.3124 52.6291L41.0435 45.4964L70.2721 37.0536C71.7924 36.6161 73.4241 36.7995 74.8093 37.5636C76.1945 38.3277 77.22 39.6101 77.6608 41.1294L103.446 130.517C103.883 132.036 103.7 133.667 102.936 135.052C102.172 136.436 100.889 137.461 99.3702 137.901V137.901Z" fill="#2A987E"/>
<path opacity="0.58" d="M68.9419 146.554L44.2108 153.687C42.8402 153.799 41.473 153.433 40.3413 152.652C39.2095 151.87 38.383 150.722 38.0017 149.4L12.2115 59.9978C11.7796 58.4768 11.9689 56.8467 12.7377 55.4652C13.5066 54.0836 14.7922 53.0637 16.3124 52.6291L41.0435 45.4964C42.4147 45.3853 43.7821 45.7513 44.9145 46.5324C46.0468 47.3135 46.8746 48.4618 47.2577 49.7831L73.0328 139.17C73.2498 139.924 73.3161 140.713 73.2279 141.492C73.1396 142.271 72.8986 143.025 72.5187 143.711C72.1387 144.397 71.6272 145.001 71.0135 145.489C70.3997 145.976 69.6958 146.339 68.9419 146.554V146.554Z" fill="#111F18"/>
<path d="M58.4113 47.4594L46.7978 50.8092C45.0425 51.3155 44.03 53.1489 44.5363 54.9043L48.5831 68.934C49.0894 70.6893 50.9228 71.7019 52.6781 71.1955L64.2916 67.8457C66.047 67.3394 67.0595 65.5059 66.5532 63.7506L62.5063 49.7209C62 47.9656 60.1666 46.953 58.4113 47.4594Z" fill="#FDB523"/>
<path d="M56.8349 69.9114L54.9325 70.4635L53.241 64.6108C52.8389 64.6553 52.432 64.6104 52.0494 64.4794C51.6667 64.3484 51.3177 64.1344 51.0273 63.8528L50.8768 63.6872L50.8115 63.4764C50.6609 63.0046 49.3057 58.8133 49.135 57.6487C48.9643 56.4842 50.0084 55.3347 50.7613 54.7374L49.4412 50.0793L51.3436 49.5322L53.0954 55.6008L52.4529 55.9823C51.7502 56.424 51.1277 57.1016 51.1177 57.3425C51.2331 58.0503 52.0413 60.7307 52.6235 62.5478C52.9449 62.6523 53.2943 62.6271 53.5973 62.4775L54.6012 62.086L56.8349 69.9114Z" fill="#EFA92B"/>
<path d="M60.3937 68.8874L62.2961 68.3352L60.6095 62.5076C60.9747 62.3322 61.2961 62.0777 61.5505 61.7625C61.8049 61.4473 61.9859 61.0794 62.0803 60.6855L62.1204 60.4697L62.0652 60.2538C61.9397 59.7519 60.8404 55.5154 60.3786 54.4312C59.9168 53.347 58.406 52.9253 57.4523 52.835L56.1121 48.1769L54.2047 48.724L55.9665 54.7675H56.7194C57.5476 54.7675 58.4311 55.0084 58.5716 55.2092C58.8527 55.8668 59.5755 58.5723 60.0775 60.4144C59.8622 60.6732 59.554 60.8373 59.2191 60.8712L58.155 61.077L60.3937 68.8874Z" fill="#EFA92B"/>
<path d="M53.0171 49.0644L52.6168 49.1799L58.4832 69.518L58.8835 69.4025L53.0171 49.0644Z" fill="#EFA92B"/>
<path d="M46.7152 50.881L46.3149 50.9965L52.1813 71.3346L52.5816 71.2191L46.7152 50.881Z" fill="#EFA92B"/>
<path d="M59.3177 47.2443L58.9174 47.3598L64.7838 67.6979L65.1841 67.5824L59.3177 47.2443Z" fill="#EFA92B"/>
<path d="M61.9882 81.9971L62.4727 83.6579C61.9186 83.7834 61.3916 83.7744 60.8917 83.6309C60.3928 83.4911 59.9558 83.2187 59.5805 82.8139C59.2064 82.4127 58.9226 81.8807 58.7293 81.2178C58.5781 80.6994 58.5314 80.2087 58.5892 79.7458C58.6508 79.2818 58.8074 78.8544 59.0591 78.4636C59.3118 78.0765 59.6549 77.7373 60.0883 77.4462C60.5217 77.155 61.0347 76.923 61.6272 76.7502L62.1882 76.5866C62.7807 76.4138 63.3385 76.3355 63.8616 76.3517C64.3894 76.3705 64.8645 76.477 65.2868 76.6713C65.7102 76.8693 66.0726 77.1473 66.3739 77.5054C66.6752 77.8636 66.8999 78.2963 67.0479 78.8036C67.2444 79.4776 67.288 80.0816 67.1786 80.6158C67.0703 81.1537 66.8386 81.613 66.4836 81.9938C66.1297 82.3784 65.6862 82.6765 65.1533 82.8882L64.6672 81.2217C64.9877 81.1082 65.2447 80.9629 65.4382 80.7859C65.6354 80.6079 65.7584 80.3892 65.8073 80.1298C65.861 79.873 65.8339 79.5595 65.7259 79.1892C65.6449 78.9115 65.5223 78.684 65.3581 78.5069C65.1939 78.3298 64.9858 78.2016 64.7337 78.1225C64.4815 78.0433 64.1841 78.0155 63.8414 78.0391C63.5035 78.0654 63.1198 78.1411 62.6902 78.2664L62.1181 78.4333C61.6996 78.5553 61.3404 78.6943 61.0402 78.8501C60.7438 79.0049 60.5053 79.1789 60.3246 79.3723C60.1487 79.5682 60.0355 79.7861 59.9849 80.0259C59.939 80.2683 59.9593 80.5376 60.0457 80.8338C60.1473 81.1819 60.2865 81.4527 60.4635 81.6462C60.6405 81.8397 60.8555 81.9638 61.1085 82.0186C61.3627 82.0771 61.6559 82.0699 61.9882 81.9971ZM68.1965 83.1758L69.0763 86.192C69.2566 86.8105 69.319 87.3689 69.2635 87.8672C69.209 88.3693 69.0354 88.7936 68.7427 89.1402C68.45 89.4867 68.0389 89.7372 67.5094 89.8917C67.0761 90.0181 66.6823 90.0525 66.3281 89.9951C65.9786 89.9404 65.6613 89.8099 65.3761 89.6038C65.0958 89.4003 64.8427 89.1386 64.6168 88.8187L64.1851 88.372L63.4204 85.7502L64.717 85.36L65.2856 87.3097C65.371 87.6022 65.4936 87.8297 65.6534 87.992C65.8133 88.1543 65.9998 88.2566 66.213 88.2989C66.4274 88.3449 66.6567 88.3322 66.9011 88.2609C67.1604 88.1853 67.3704 88.0718 67.5311 87.9205C67.6919 87.7691 67.7937 87.5807 67.8364 87.3553C67.8791 87.1298 67.8573 86.869 67.7709 86.5728L67.3772 85.223L60.5949 87.2011L60.1089 85.5347L68.1965 83.1758ZM61.4277 90.0562L64.4948 87.1606L65.0195 88.9182L62.0255 91.8166L61.9477 91.8393L61.4277 90.0562ZM65.1172 97.8703L63.8174 98.2494L62.5618 93.9445L63.8616 93.5654L65.1172 97.8703ZM70.8082 92.13L62.7205 94.4889L62.2345 92.8225L70.3221 90.4636L70.8082 92.13ZM68.4474 96.2902L67.181 96.6596L66.089 92.9158L67.3555 92.5464L68.4474 96.2902ZM71.9034 95.885L70.598 96.2657L69.344 91.9664L70.6494 91.5856L71.9034 95.885ZM45.2221 84.4944L44.7086 82.7336L46.0116 82.3656L46.5219 84.1153C46.6494 84.5523 46.855 84.8921 47.1387 85.1348C47.4262 85.3764 47.7828 85.5175 48.2085 85.5581C48.6353 85.6024 49.119 85.5457 49.6596 85.388L50.054 85.273C50.4688 85.152 50.8206 85.0012 51.1094 84.8205C51.3993 84.6435 51.6269 84.4385 51.792 84.2055C51.9571 83.9726 52.0571 83.7163 52.0921 83.4369C52.1309 83.1564 52.1032 82.8551 52.0093 82.5329L51.4811 80.7221L52.7865 80.3413L53.3146 82.1522C53.4723 82.6928 53.5239 83.2142 53.4695 83.7163C53.4198 84.221 53.2727 84.6878 53.0281 85.1167C52.7835 85.5457 52.4502 85.9182 52.028 86.2342C51.6107 86.5528 51.1131 86.7963 50.5354 86.9648L50.1522 87.0766C49.5782 87.244 49.0277 87.3061 48.5008 87.2629C47.975 87.2234 47.4936 87.0886 47.0568 86.8584C46.6248 86.6308 46.2498 86.3163 45.9318 85.9148C45.6185 85.5159 45.382 85.0425 45.2221 84.4944ZM53.0716 81.319L44.984 83.6779L44.498 82.0114L52.5856 79.6526L53.0716 81.319ZM55.2604 88.8233L47.1728 91.1822L46.6884 89.5214L54.776 87.1625L55.2604 88.8233ZM56.7217 93.8337L48.6341 96.1926L48.1497 94.5317L56.2373 92.1728L56.7217 93.8337ZM57.4476 96.3222L56.1422 96.7029L54.2175 90.1039L55.5229 89.7232L57.4476 96.3222ZM35.1082 89.8371L35.5927 91.4979C35.0386 91.6234 34.5116 91.6144 34.0117 91.4709C33.5128 91.3311 33.0758 91.0587 32.7005 90.6539C32.3264 90.2527 32.0426 89.7207 31.8493 89.0578C31.6981 88.5394 31.6514 88.0487 31.7092 87.5858C31.7708 87.1218 31.9274 86.6944 32.1791 86.3036C32.4318 85.9165 32.7749 85.5773 33.2083 85.2862C33.6417 84.995 34.1547 84.763 34.7472 84.5902L35.3082 84.4266C35.9007 84.2538 36.4585 84.1755 36.9816 84.1917C37.5094 84.2105 37.9845 84.317 38.4068 84.5113C38.8302 84.7093 39.1926 84.9873 39.4939 85.3454C39.7952 85.7036 40.0199 86.1363 40.1679 86.6436C40.3644 87.3176 40.408 87.9216 40.2986 88.4558C40.1903 88.9937 39.9586 89.453 39.6036 89.8338C39.2497 90.2184 38.8062 90.5165 38.2733 90.7282L37.7872 89.0617C38.1077 88.9482 38.3647 88.8029 38.5582 88.6259C38.7554 88.4479 38.8784 88.2292 38.9273 87.9698C38.981 87.713 38.9539 87.3995 38.8459 87.0292C38.7649 86.7515 38.6423 86.524 38.4781 86.3469C38.3139 86.1698 38.1058 86.0416 37.8537 85.9625C37.6015 85.8833 37.3041 85.8555 36.9614 85.8791C36.6235 85.9054 36.2398 85.9811 35.8102 86.1064L35.2381 86.2733C34.8196 86.3953 34.4604 86.5343 34.1602 86.6901C33.8638 86.8449 33.6253 87.0189 33.4446 87.2123C33.2687 87.4082 33.1555 87.6261 33.1049 87.8659C33.059 88.1083 33.0793 88.3776 33.1657 88.6738C33.2673 89.0219 33.4065 89.2927 33.5835 89.4862C33.7605 89.6797 33.9755 89.8038 34.2285 89.8586C34.4827 89.9171 34.7759 89.9099 35.1082 89.8371ZM40.8925 94.7076L33.5465 94.4634L33.0296 92.6915L41.9937 93.3377L42.3226 94.4653L40.8925 94.7076ZM34.721 98.4906L40.7824 94.3299L42.1136 93.7487L42.4458 94.8875L35.2395 100.268L34.721 98.4906ZM37.7025 97.5125L36.3972 97.8932L35.1513 93.6217L36.4566 93.241L37.7025 97.5125ZM43.5458 98.6591L44.4255 101.675C44.6059 102.294 44.6683 102.852 44.6128 103.35C44.5583 103.853 44.3847 104.277 44.092 104.623C43.7993 104.97 43.3882 105.22 42.8587 105.375C42.4254 105.501 42.0316 105.536 41.6774 105.478C41.3279 105.424 41.0106 105.293 40.7254 105.087C40.4451 104.884 40.1919 104.622 39.9661 104.302L39.5344 103.855L38.7697 101.233L40.0663 100.843L40.6349 102.793C40.7203 103.085 40.8428 103.313 41.0027 103.475C41.1625 103.638 41.3491 103.74 41.5623 103.782C41.7766 103.828 42.006 103.815 42.2504 103.744C42.5096 103.669 42.7196 103.555 42.8804 103.404C43.0412 103.252 43.1429 103.064 43.1857 102.839C43.2284 102.613 43.2066 102.352 43.1202 102.056L42.7265 100.706L35.9442 102.684L35.4582 101.018L43.5458 98.6591ZM36.777 105.539L39.8441 102.644L40.3688 104.401L37.3748 107.3L37.297 107.323L36.777 105.539ZM38.308 110.789L37.7944 109.028L39.0974 108.66L39.6078 110.41C39.7352 110.847 39.9408 111.186 40.2246 111.429C40.512 111.671 40.8686 111.812 41.2943 111.852C41.7211 111.897 42.2048 111.84 42.7455 111.682L43.1399 111.567C43.5546 111.446 43.9064 111.295 44.1953 111.115C44.4852 110.938 44.7127 110.733 44.8778 110.5C45.0429 110.267 45.1429 110.011 45.178 109.731C45.2167 109.451 45.1891 109.149 45.0951 108.827L44.567 107.016L45.8723 106.636L46.4005 108.446C46.5582 108.987 46.6098 109.508 46.5553 110.011C46.5056 110.515 46.3585 110.982 46.1139 111.411C45.8694 111.84 45.536 112.212 45.1139 112.528C44.6965 112.847 44.199 113.091 43.6213 113.259L43.238 113.371C42.664 113.538 42.1136 113.6 41.5866 113.557C41.0608 113.518 40.5795 113.383 40.1426 113.153C39.7106 112.925 39.3356 112.611 39.0176 112.209C38.7044 111.81 38.4678 111.337 38.308 110.789ZM46.1574 107.613L38.0698 109.972L37.5838 108.306L45.6714 105.947L46.1574 107.613Z" fill="#30D5AD"/>
<path d="M83.1472 149.847C83.1472 149.847 69.8856 125.563 73.6553 123.053C77.4249 120.543 87.8906 120.398 91.2236 126.541C94.5565 132.685 93.7333 137.288 95.4098 139.09C97.0863 140.892 102.527 145.114 102.527 145.114L115.648 154.048C115.648 154.048 118.66 190.334 108.25 188.101C97.8393 185.867 83.1472 149.847 83.1472 149.847Z" fill="#FCC5A7"/>
<path d="M177.594 231.82C176.001 233.159 174.352 234.426 172.645 235.62C169.762 237.628 166.707 239.375 163.514 240.841C161.324 241.843 159.077 242.715 156.783 243.451C153.544 244.492 150.232 245.291 146.875 245.84C146.257 245.95 145.63 246.046 145.008 246.131L144.35 246.221C143.657 243.32 143.15 239.756 142.377 237.447C142.337 237.337 142.297 237.227 142.262 237.111C142.031 236.433 141.8 235.761 141.559 235.103C141.318 234.446 141.097 233.808 140.851 233.156C140.584 232.423 140.309 231.692 140.028 230.962C139.767 230.274 139.501 229.587 139.22 228.904C138.994 228.317 138.758 227.74 138.512 227.157C138.191 226.379 137.86 225.601 137.508 224.823C137.212 224.146 136.916 223.473 136.615 222.816C136.314 222.158 136.013 221.485 135.701 220.808C135.39 220.13 135.099 219.508 134.788 218.865C134.567 218.413 134.351 217.962 134.125 217.515L134.025 217.309C133.839 216.923 133.643 216.536 133.453 216.155L133.151 215.562C132.946 215.161 132.745 214.764 132.534 214.368C132.283 213.866 132.032 213.364 131.756 212.887C128.91 207.556 126.235 203.927 124.975 200.439C124.93 200.323 124.894 200.213 124.854 200.097C123.529 196.082 124.172 192.227 128.749 186.133C136.038 176.415 144.194 167.234 152.562 158.435C151.091 159.981 152.2 167.184 153.375 173.147C154.053 176.581 154.755 179.603 154.991 180.888C156.094 186.929 157.732 192.86 159.885 198.611C162.927 206.597 173.875 220.622 177.594 231.82Z" fill="#FCC5A7"/>
<path d="M157.541 241.533L156.783 243.451C153.544 244.492 150.232 245.291 146.875 245.84C146.257 245.95 145.63 246.046 145.008 246.131C144.967 245.93 144.922 245.765 144.882 245.629C144.119 242.889 143.282 240.166 142.372 237.463C142.332 237.352 142.292 237.242 142.257 237.126L141.554 235.118C141.323 234.471 141.087 233.823 140.846 233.171C140.579 232.438 140.304 231.707 140.023 230.977C139.757 230.29 139.491 229.602 139.215 228.919C138.984 228.332 138.748 227.755 138.507 227.173C138.186 226.394 137.855 225.616 137.503 224.838L136.61 222.831C136.314 222.168 136.008 221.505 135.696 220.823C135.385 220.14 135.094 219.523 134.783 218.88C134.567 218.429 134.346 217.977 134.12 217.53L134.02 217.324C133.834 216.938 133.638 216.551 133.448 216.17L133.146 215.577C132.946 215.176 132.74 214.779 132.529 214.383C132.278 213.881 132.027 213.379 131.751 212.902C128.905 207.571 126.23 203.942 124.97 200.454C124.924 200.338 124.889 200.228 124.849 200.112C127.359 200.112 134.713 200.323 138.402 202.165C138.485 202.209 138.566 202.257 138.643 202.311C143.381 205.614 157.541 241.533 157.541 241.533Z" fill="#B8896E"/>
<path d="M81.9173 135.742C83.137 135.075 84.1409 133.845 84.146 132.459C84.0864 131.62 83.8467 130.803 83.4432 130.065C82.5748 128.173 81.5157 126.145 79.5983 125.332C78.1527 124.719 76.5113 124.93 74.9603 125.151C74.4031 125.231 73.7556 125.372 73.5146 125.884C73.411 126.154 73.3816 126.447 73.4293 126.732C73.679 129.903 74.5595 132.992 76.0194 135.817C77.0484 137.8 80.3512 136.605 81.9173 135.742Z" fill="#FDE2D1"/>
</svg>
