<svg width="47" height="24" viewBox="0 0 47 24" fill="none" xmlns="http://www.w3.org/2000/svg">
<path fill-rule="evenodd" clip-rule="evenodd" d="M36.4622 9.23077C36.5846 9.23077 36.702 9.2794 36.7885 9.36596C36.8751 9.45251 36.9237 9.5699 36.9237 9.69231V15.0397L38.9046 13.0579C38.9476 13.0149 38.9985 12.9809 39.0546 12.9577C39.1106 12.9345 39.1707 12.9225 39.2314 12.9225C39.2921 12.9225 39.3522 12.9345 39.4083 12.9577C39.4643 12.9809 39.5153 13.0149 39.5582 13.0579C39.6011 13.1008 39.6351 13.1517 39.6584 13.2078C39.6816 13.2638 39.6935 13.3239 39.6935 13.3846C39.6935 13.4453 39.6816 13.5054 39.6584 13.5615C39.6351 13.6175 39.6011 13.6685 39.5582 13.7114L36.789 16.4806C36.7461 16.5236 36.6952 16.5577 36.6391 16.581C36.583 16.6042 36.5229 16.6162 36.4622 16.6162C36.4015 16.6162 36.3414 16.6042 36.2853 16.581C36.2292 16.5577 36.1783 16.5236 36.1354 16.4806L33.3662 13.7114C33.3233 13.6685 33.2892 13.6175 33.266 13.5615C33.2428 13.5054 33.2308 13.4453 33.2308 13.3846C33.2308 13.3239 33.2428 13.2638 33.266 13.2078C33.2892 13.1517 33.3233 13.1008 33.3662 13.0579C33.4529 12.9712 33.5704 12.9225 33.693 12.9225C33.7536 12.9225 33.8137 12.9345 33.8698 12.9577C33.9259 12.9809 33.9768 13.0149 34.0197 13.0579L36.0006 15.0397V9.69231C36.0006 9.5699 36.0493 9.45251 36.1358 9.36596C36.2224 9.2794 36.3398 9.23077 36.4622 9.23077Z" fill="white"/>
<path d="M39.6923 0H0V24H46.1538V0H39.6923ZM44.3077 17.7886C43.2615 18.0701 42.3076 18.6215 41.5415 19.3876C40.7754 20.1537 40.224 21.1076 39.9425 22.1538H6.21138C5.92962 21.1078 5.37813 20.154 4.61207 19.3879C3.84601 18.6219 2.89224 18.0704 1.84615 17.7886V6.21138C2.89224 5.92962 3.84601 5.37813 4.61207 4.61207C5.37813 3.84601 5.92962 2.89224 6.21138 1.84615H39.9637C40.2709 2.87359 40.8287 3.80852 41.587 4.56681C42.3453 5.3251 43.2803 5.88294 44.3077 6.19015V17.7886ZM23.0769 2.76923C18.4883 2.76923 14.7692 6.90277 14.7692 12C14.7692 17.0963 18.4883 21.2308 23.0769 21.2308C27.6655 21.2308 31.3846 17.0963 31.3846 12C31.3846 6.90277 27.6655 2.76923 23.0769 2.76923Z" fill="white"/>
<path d="M27.6923 8.34779V7.38458H19.3846V8.34779H22.2404C22.8135 8.34935 23.3659 8.54664 23.7921 8.90199C24.2183 9.25733 24.4885 9.74584 24.551 10.2742H19.3846V11.2374H24.551C24.4885 11.7658 24.2183 12.2543 23.7921 12.6097C23.3659 12.965 22.8135 13.1623 22.2404 13.1638H19.3846V14.2932L24.3781 18.4615L25.0728 17.7458L20.7378 14.1271H22.2404C23.0899 14.1259 23.9078 13.8278 24.5309 13.2923C25.154 12.7567 25.5366 12.023 25.6024 11.2374H27.6923V10.2742H25.6024C25.5429 9.55105 25.2133 8.8698 24.6704 8.34779H27.6923Z" fill="black"/>
</svg>
