<svg width="22" height="21" viewBox="0 0 22 21" fill="none" xmlns="http://www.w3.org/2000/svg">
<path d="M15.1141 7.87192C15.1141 8.92068 14.6791 9.92009 13.9085 10.6604C13.1378 11.4007 12.0813 11.8079 10.9876 11.8079C9.89377 11.8079 8.84974 11.3884 8.06669 10.6604C7.29607 9.92009 6.86104 8.92068 6.86104 7.87192C6.86104 6.82315 7.29607 5.82374 8.06669 5.08343C8.83731 4.34313 9.89377 3.93596 10.9876 3.93596C12.0813 3.93596 13.1254 4.35546 13.9085 5.08343C14.6791 5.83607 15.1141 6.83549 15.1141 7.87192ZM0 10.5C0 7.71152 1.15593 5.04642 3.2192 3.07227C5.28248 1.09812 8.0791 0 11 0C13.9209 0 16.7175 1.11046 18.7808 3.07227C20.8441 5.03408 22 7.71152 22 10.5C22 13.2885 20.8441 15.9536 18.7808 17.9277C16.7175 19.9019 13.9209 21 11 21C8.0791 21 5.28248 19.8895 3.2192 17.9277C1.15593 15.9659 0 13.2885 0 10.5ZM11 1.30787C9.18531 1.30787 7.40792 1.80141 5.87911 2.71445C4.35029 3.63984 3.11977 4.94771 2.32429 6.51469C1.54124 8.06933 1.23054 9.80905 1.42941 11.5364C1.62828 13.2515 2.33673 14.8801 3.4678 16.2374C4.44972 14.7321 6.58756 13.1281 10.9876 13.1281C15.3876 13.1281 17.5254 14.7321 18.5073 16.2374C19.6384 14.8801 20.3469 13.2515 20.5457 11.5364C20.7446 9.82139 20.4463 8.08167 19.6508 6.51469C18.8678 4.96005 17.6373 3.63984 16.096 2.71445C14.5797 1.80141 12.8023 1.30787 11 1.30787Z" fill="#FEFEFE"/>
</svg>
