<svg width="24" height="18" viewBox="0 0 24 18" fill="none" xmlns="http://www.w3.org/2000/svg">
<path d="M22.6465 10.9844C22.3344 10.7327 21.9738 10.5479 21.5872 10.4416C21.2006 10.3353 20.7963 10.3097 20.3994 10.3664L14.8378 11.3776C14.8408 11.0312 14.7725 10.6879 14.6372 10.369C14.5019 10.0501 14.3025 9.76242 14.0514 9.52379L10.0628 5.5352H1.74855C1.45056 5.5352 1.16478 5.65357 0.954079 5.86428C0.743373 6.07498 0.625 6.36076 0.625 6.65874C0.625 6.95673 0.743373 7.24251 0.954079 7.45321C1.16478 7.66392 1.45056 7.78229 1.74855 7.78229H9.16394L12.4784 11.0967C12.5629 11.1871 12.609 11.3068 12.607 11.4305C12.6049 11.5542 12.5548 11.6723 12.4673 11.7598C12.3798 11.8473 12.2618 11.8974 12.138 11.8994C12.0143 11.9015 11.8946 11.8554 11.8043 11.7709L9.83807 9.80467C9.62171 9.6424 9.35407 9.56362 9.0843 9.58279C8.81452 9.60196 8.56072 9.7178 8.36948 9.90904C8.17824 10.1003 8.0624 10.3541 8.04323 10.6239C8.02405 10.8936 8.10284 11.1613 8.26511 11.3776L10.2313 13.3438C10.4764 13.602 10.7732 13.8055 11.1023 13.9411C11.4315 14.0766 11.7855 14.1411 12.1413 14.1303C12.4853 14.1288 12.8267 14.0719 13.1525 13.9618L20.7926 12.6135C20.8712 12.5992 20.952 12.6019 21.0295 12.6212C21.107 12.6406 21.1794 12.6763 21.2421 12.7259C21.2972 12.7751 21.3408 12.8359 21.37 12.9038C21.3991 12.9717 21.413 13.0452 21.4106 13.1191C21.4132 13.2506 21.3697 13.3787 21.2876 13.4814C21.2055 13.584 21.09 13.6546 20.9612 13.6809L10.5122 15.5909L4.38888 10.5912H1.74855C1.45056 10.5912 1.16478 10.7095 0.954079 10.9202C0.743373 11.1309 0.625 11.4167 0.625 11.7147C0.625 12.0127 0.743373 12.2985 0.954079 12.5092C1.16478 12.7199 1.45056 12.8382 1.74855 12.8382H3.6024L9.83807 17.9504L21.3544 15.8718C21.8722 15.7707 22.351 15.5259 22.7361 15.1653C23.1211 14.8047 23.3969 14.3429 23.5317 13.8329C23.6665 13.3229 23.655 12.7852 23.4985 12.2814C23.3419 11.7777 23.0466 11.3282 22.6465 10.9844Z" fill="white"/>
<path d="M15 0.600001C15 0.268688 15.2687 0 15.6 0H20.4C20.7319 0 21 0.268688 21 0.600001C21 0.931313 20.7319 1.2 20.4 1.2H19.3462C19.5262 1.47 19.6594 1.77375 19.7325 2.1H20.4C20.7319 2.1 21 2.36813 21 2.7C21 3.03188 20.7319 3.3 20.4 3.3H19.7325C19.485 4.39313 18.5719 5.235 17.4431 5.37938L20.1487 7.29563C20.4019 7.50376 20.4806 7.87876 20.2875 8.14876C20.0962 8.40188 19.7212 8.48063 19.4512 8.28751L15.2512 5.28751C15.0391 5.12063 14.9491 4.86563 15.0287 4.61625C15.1083 4.35188 15.3392 4.2 15.6 4.2H17.1C17.715 4.2 18.2437 3.83063 18.4744 3.3H15.6C15.2687 3.3 15 3.03188 15 2.7C15 2.36813 15.2687 2.1 15.6 2.1H18.4744C18.2437 1.56938 17.715 1.2 17.1 1.2H15.6C15.2687 1.2 15 0.931313 15 0.600001Z" fill="#00E6D3"/>
</svg>
