<svg width="48" height="13" viewBox="0 0 48 13" fill="none" xmlns="http://www.w3.org/2000/svg">
<path fill-rule="evenodd" clip-rule="evenodd" d="M33.0714 3.44575H35.5963V7.4103L37.7805 3.44575H40.0976L35.4259 11.4609C35.4259 11.4609 34.9922 12.1332 34.4543 12.4888C34.0124 12.7813 33.4689 12.768 33.3029 12.7799C32.3801 12.772 31.267 12.7695 31.267 12.7695L31.8039 10.8589L32.6728 10.8574C32.6728 10.8574 33.0705 10.8173 33.2241 10.6235C33.3704 10.4388 33.4452 10.2541 33.4452 9.98319C33.4452 9.5771 33.0714 3.44556 33.0714 3.44556V3.44575ZM6.83599 4.23752C6.48459 5.04215 5.395 4.95065 5.395 4.95065L4.12635 4.94479L4.58947 3.24081C4.58947 3.24081 5.7244 3.24497 6.28106 3.24497C6.87693 3.24497 7.06306 3.71799 6.83619 4.23733L6.83599 4.23752ZM9.71933 3.07633C9.9353 1.38558 8.42984 0.958685 6.80214 0.958685H2.52486L0 10.0533H2.71787L3.56644 6.96544L5.09103 6.97773C5.09103 6.97773 5.72019 6.94162 5.73262 7.52562C5.74582 8.14857 5.26549 9.29237 5.29648 10.0533H8.08857L8.08245 9.81115C8.08245 9.81115 7.85041 9.75027 7.87624 9.42812C7.88695 9.29407 8.03673 8.86983 8.2328 8.29774C8.35102 8.04553 8.52931 7.44716 8.51286 6.95996C8.49239 6.35176 8.10617 6.0695 7.54932 5.87212C9.2851 5.4698 9.71895 3.07652 9.71914 3.07652L9.71933 3.07633ZM10.3361 3.44575H12.815L11.7941 7.32768C11.7941 7.32768 11.5395 8.19338 12.3588 8.26012C13.0061 8.31305 13.4878 7.54963 13.6456 7.03256C13.853 6.35346 14.6587 3.44556 14.6587 3.44556H17.2126L15.2693 10.0531H13.0394L13.3133 9.10918C13.3133 9.10918 12.1757 10.4802 10.4855 10.3157C8.98305 10.17 8.85355 9.09292 9.11389 7.74928C9.24168 7.08966 10.3361 3.44575 10.3361 3.44575ZM23.0678 4.25832C22.7141 5.23348 21.7395 5.11853 21.7395 5.11853L20.4089 5.11891L20.9342 3.18674C20.9342 3.18674 21.7764 3.19108 22.3327 3.19108C23.0137 3.19108 23.2609 3.72574 23.0678 4.25813V4.25832ZM25.8624 3.35538C26.0786 1.66444 24.7745 0.958496 23.1467 0.958496H18.8696L16.3449 10.0531H19.0628L19.827 7.24922L21.9924 7.26227C21.9924 7.26227 25.3457 7.40255 25.8626 3.35538H25.8624ZM28.1474 8.70705C27.7227 8.81349 27.2078 8.87134 27.1056 8.49001C26.8252 7.44508 29.3005 7.13919 29.3005 7.13919C29.3173 8.09129 28.4732 8.625 28.1472 8.70705H28.1474ZM31.8919 6.79454C32.2185 5.69535 32.6313 4.65459 32.299 4.07777C31.7902 3.19487 30.8704 3.11735 29.5249 3.11735C28.0384 3.11735 26.2031 3.3964 25.6049 5.35013H28.0797C28.0797 5.35013 28.3052 4.61432 29.2341 4.66063C30.0563 4.70166 30.0113 5.26071 29.7083 5.56982C29.1769 6.11147 27.7093 5.81105 26.0839 6.3684C24.6638 6.85541 24.1668 8.701 24.4754 9.43757C24.7744 10.1518 25.3312 10.2428 26.0824 10.3157C27.2889 10.433 28.214 9.76804 28.6446 9.37783C28.6446 9.81115 28.656 10.0531 28.656 10.0531H31.2603L31.254 9.81096C31.254 9.81096 31.0219 9.75008 31.0478 9.42793C31.0665 9.19198 31.5164 8.05688 31.8917 6.79454H31.8919Z" fill="#382A8D"/>
<path fill-rule="evenodd" clip-rule="evenodd" d="M43.3367 1.9187L40.4216 11.9507L45.878 6.93462L43.3367 1.9187Z" fill="#1D8546"/>
<path fill-rule="evenodd" clip-rule="evenodd" d="M41.4678 1.9187L38.5527 11.9507L44.0093 6.93462L41.4678 1.9187Z" fill="#EC6B00"/>
<path fill-rule="evenodd" clip-rule="evenodd" d="M46.8955 0.0986884C46.3416 0.0986884 45.8905 0.544299 45.8905 1.092C45.8905 1.63951 46.3414 2.08512 46.8955 2.08512C47.4495 2.08512 47.9004 1.63951 47.9004 1.092C47.9004 0.54411 47.4495 0.0986884 46.8955 0.0986884ZM46.88 1.49942V0.725228H47.0363L47.2215 1.27331C47.2387 1.32435 47.251 1.36254 47.2592 1.38788C47.268 1.35971 47.2818 1.3183 47.3009 1.26367L47.4883 0.725228H47.6276V1.49942H47.5278V0.85133L47.3001 1.49942H47.2068L46.9801 0.840364V1.49942H46.88ZM46.3595 1.49942V0.816732H46.1017V0.725417H46.7224V0.816732H46.4634V1.49942H46.3595ZM46.8955 2.18343C46.2863 2.18343 45.791 1.69377 45.791 1.09181C45.791 0.48985 46.2865 0 46.8955 0C47.5044 0 48.0001 0.48985 48.0001 1.09181C48.0001 1.69358 47.5044 2.18343 46.8955 2.18343Z" fill="black"/>
</svg>
