<svg width="19" height="21" viewBox="0 0 19 21" fill="none" xmlns="http://www.w3.org/2000/svg">
<path d="M11.9319 5.40946L10.6719 3.72949L5.32959 7.66481L6.58956 9.34477L11.9319 5.40946Z" fill="#00E5D3"/>
<path d="M6.96312 11.1831L5.79974 12.9303L10.9236 16.0592L11.9652 14.2364L6.96312 11.1831Z" fill="#00E5D3"/>
<path d="M13.2296 6.29987C14.9683 6.29987 16.3795 4.8887 16.3795 3.14993C16.3795 1.41117 14.9683 0 13.2296 0C11.4908 0 10.0797 1.41117 10.0797 3.14993C10.0797 4.8887 11.4908 6.29987 13.2296 6.29987ZM13.2296 2.09996C13.8092 2.09996 14.2796 2.57035 14.2796 3.14993C14.2796 3.72952 13.8092 4.19991 13.2296 4.19991C12.65 4.19991 12.1796 3.72952 12.1796 3.14993C12.1796 2.57035 12.65 2.09996 13.2296 2.09996Z" fill="white"/>
<path d="M3.56992 6.72001C1.60017 6.72001 0 8.32017 0 10.2899C0 12.2597 1.60017 13.8599 3.56992 13.8599C5.53968 13.8599 7.13985 12.2597 7.13985 10.2899C7.13985 8.32017 5.53968 6.72001 3.56992 6.72001ZM3.56992 11.7599C2.75934 11.7599 2.09996 11.1005 2.09996 10.2899C2.09996 9.47935 2.75934 8.81996 3.56992 8.81996C4.38051 8.81996 5.03989 9.47935 5.03989 10.2899C5.03989 11.1005 4.38051 11.7599 3.56992 11.7599Z" fill="white"/>
<path d="M14.4896 13.0205C12.2847 13.0205 10.4997 14.8055 10.4997 17.0105C10.4997 19.2154 12.2847 21.0004 14.4896 21.0004C16.6946 21.0004 18.4795 19.2154 18.4795 17.0105C18.4795 14.8055 16.6946 13.0205 14.4896 13.0205ZM14.4896 18.9004C13.448 18.9004 12.5997 18.052 12.5997 17.0105C12.5997 15.9689 13.448 15.1205 14.4896 15.1205C15.5312 15.1205 16.3796 15.9689 16.3796 17.0105C16.3796 18.052 15.5312 18.9004 14.4896 18.9004Z" fill="white"/>
</svg>
