<svg width="344" height="211" viewBox="0 0 344 211" fill="none" xmlns="http://www.w3.org/2000/svg">
<g opacity="0.71">
<path d="M143.042 30.2565C144.246 27.8315 146.171 25.8193 147.348 23.3807C148.525 20.9421 148.754 17.6796 146.793 15.8141C145.129 14.2297 142.519 14.2075 140.527 13.06C135.453 10.1364 135.458 0.849107 129.657 0.0467179C126.836 -0.343384 124.284 1.77229 122.579 4.0525C120.874 6.33272 119.515 8.99503 117.151 10.585C114.474 12.3815 111.013 12.4597 108.04 13.7077C102.341 16.1001 99.3508 22.2523 96.8548 27.9054C95.2451 31.5476 93.5991 35.4757 94.346 39.3872C92.7227 40.3973 93.4462 43.1138 95.0664 44.1282C96.6866 45.1426 98.7215 45.1204 100.582 45.5598C104.492 46.4842 107.694 49.5964 109.21 53.3162C110.393 56.2127 110.635 59.3995 110.863 62.5228L112.052 78.7813C112.228 81.1922 112.459 83.7547 113.926 85.6762C115.394 87.5977 118.572 88.4026 120.222 86.6351C121.798 84.9465 121.088 82.2725 121.056 79.9627C121.024 77.6529 123.112 74.7761 125.081 75.9847L125.776 74.4089C130.273 72.7982 134.211 69.9257 137.119 66.1351C140.026 62.3445 141.779 57.7964 142.169 53.0352C142.674 45.3632 139.622 37.1397 143.042 30.2565Z" fill="#2A2A2A"/>
<path d="M147.637 78.888C148.071 78.4785 148.38 77.9533 148.525 77.3744C148.671 76.7954 148.648 76.1869 148.46 75.6205C148.271 75.0541 147.924 74.5535 147.46 74.1778C146.996 73.8021 146.434 73.5669 145.841 73.4999L145.849 73.76C145.002 74.2544 144.036 74.5082 143.056 74.494C142.08 74.4785 141.108 74.6324 140.184 74.9488C139.724 75.1159 139.326 75.4182 139.042 75.8158C138.758 76.2135 138.6 76.6878 138.591 77.1766C138.644 77.5512 138.788 77.9073 139.008 78.2146C139.229 78.522 139.521 78.7716 139.858 78.9422C140.537 79.2766 141.265 79.4979 142.015 79.5973C143.947 79.9609 146.206 80.2358 147.637 78.888Z" fill="#2A2A2A"/>
<path d="M185.302 30.3847C186.111 29.8344 186.797 29.1232 187.319 28.2955C187.572 27.8768 187.692 27.3914 187.664 26.9031C187.636 26.4147 187.461 25.9463 187.162 25.5593C186.553 25.0308 185.769 24.7477 184.963 24.7649C182.774 24.6015 180.574 24.8609 178.483 25.5291L184.924 31.2358L185.302 30.3847Z" fill="#2A2A2A"/>
<path d="M174.564 35.3322C175.432 36.2899 175.155 37.7757 174.91 39.0446C174.665 40.3135 174.633 41.8992 175.725 42.5913C176.671 43.1915 177.999 42.7016 178.69 41.8209C179.309 40.8813 179.686 39.8033 179.787 38.6829C180.127 37.0546 180.281 35.3929 180.245 33.7299C180.204 32.0544 179.613 30.4389 178.563 29.1325C177.818 28.283 176.826 27.6879 175.725 27.4309C174.625 27.1738 173.472 27.2676 172.427 27.699L173.425 27.6497C172.7 28.5808 172.15 29.636 171.802 30.7638C171.636 31.3303 171.624 31.9312 171.768 32.5038C171.913 33.0764 172.208 33.6 172.623 34.0202C173.214 34.5354 174.038 34.7511 174.564 35.3322Z" fill="#2A2A2A"/>
<path d="M223.509 19.2671L223.686 18.7211C222.944 19.1502 222.373 19.8211 222.066 20.6214C221.76 21.4218 221.738 22.303 222.004 23.1176C222.575 22.6676 223.015 22.0735 223.28 21.3967C223.544 20.7199 223.623 19.9847 223.509 19.2671Z" fill="#2A2A2A"/>
<path d="M213.867 27.0852C214.812 26.5504 215.618 25.8017 216.221 24.8992C216.824 23.9966 217.207 22.9654 217.339 21.8882C217.442 21.2183 217.364 20.5332 217.114 19.9031C216.986 19.5905 216.783 19.3145 216.522 19.0994C216.262 18.8844 215.952 18.7371 215.621 18.6706L215.216 19.3066C214.637 18.808 213.664 19.3208 213.421 20.0461C213.262 20.798 213.327 21.5796 213.605 22.2955C213.885 23.0155 213.872 23.8162 213.57 24.5271C213.245 24.9451 212.878 25.3299 212.477 25.6758C212.281 25.8543 212.153 26.0954 212.115 26.3578C212.077 26.6203 212.131 26.8879 212.268 27.1148C212.651 27.5474 213.363 27.365 213.867 27.0852Z" fill="#2A2A2A"/>
<path d="M209.757 23.5329C210.103 22.9106 210.266 22.2033 210.227 21.4925L209.343 21.2151C208.779 21.444 208.278 21.8063 207.884 22.2708C207.764 22.3909 207.673 22.5359 207.616 22.6955C207.559 22.8552 207.537 23.0254 207.554 23.1942C207.57 23.3629 207.624 23.5259 207.711 23.6715C207.797 23.8171 207.915 23.9417 208.056 24.0364C208.197 24.1311 208.356 24.1936 208.524 24.2193C208.692 24.245 208.863 24.2334 209.025 24.1852C209.188 24.137 209.338 24.0535 209.464 23.9407C209.591 23.8278 209.691 23.6883 209.757 23.5323V23.5329Z" fill="#2A2A2A"/>
<path d="M252.936 19.0625C253.016 19.1297 253.095 19.1981 253.175 19.2659C253.246 19.2511 253.313 19.2246 253.384 19.216L252.936 19.0625Z" fill="#2A2A2A"/>
<path d="M251.521 26.8189L253.954 24.8505C254.385 24.5457 254.752 24.1597 255.035 23.7141C255.229 23.2923 255.312 22.8283 255.278 22.3655C255.244 21.9026 255.093 21.456 254.839 21.0672C254.39 20.3781 253.828 19.7701 253.175 19.269C252.459 19.4385 251.831 19.8645 251.408 20.4663C250.984 21.0682 250.797 21.8042 250.88 22.5352C251.026 23.4658 251.611 24.4605 251.134 25.2727C250.949 25.5888 250.628 25.8039 250.414 26.1022C250.2 26.4005 250.131 26.8744 250.425 27.0932C250.752 27.3348 251.204 27.0716 251.521 26.8189Z" fill="#2A2A2A"/>
<path d="M253.295 30.8321C253.596 30.8483 253.898 30.7994 254.179 30.6888C254.46 30.5783 254.714 30.4085 254.924 30.1912C256.008 29.3029 256.957 28.2608 257.739 27.0981L252.264 28.8323L252.833 29.4979C252.329 29.827 252.702 30.7187 253.295 30.8321Z" fill="#2A2A2A"/>
<path d="M258.41 34.5883C258.521 34.8729 258.723 35.1132 258.984 35.2725C259.244 35.4318 259.55 35.5012 259.854 35.4702C260.157 35.4298 260.447 35.3235 260.705 35.1588C260.962 34.9941 261.18 34.7749 261.343 34.5168C261.621 34.1079 261.785 33.6321 261.817 33.1387C261.849 32.6453 261.749 32.1523 261.526 31.7108C261.304 31.2692 260.967 30.8951 260.552 30.6273C260.136 30.3595 259.656 30.2077 259.162 30.1875L259.666 30.9572C259.794 32.2718 258.008 33.3311 258.41 34.5883Z" fill="#2A2A2A"/>
<path d="M293.853 48.9802C294.346 49.3486 294.946 49.5469 295.562 49.5455C296.178 49.544 296.777 49.3429 297.268 48.9722C297.587 48.7 297.847 48.3649 298.03 47.9878C298.214 47.6107 298.318 47.1997 298.335 46.7807C298.352 46.3617 298.283 45.9436 298.131 45.5526C297.98 45.1616 297.749 44.8062 297.453 44.5085L296.521 45.0287C296.004 44.6965 295.379 44.5778 294.776 44.6975C294.173 44.8173 293.64 45.1662 293.29 45.6708C292.975 46.1997 292.86 46.8233 292.963 47.4298C293.067 48.0363 293.384 48.5859 293.856 48.9802H293.853Z" fill="#2A2A2A"/>
<path d="M304.692 50.2072C305.146 50.0754 305.559 49.8293 305.89 49.4924C306.222 49.1555 306.461 48.7391 306.586 48.2831L304.774 48.0453C304.27 47.6645 303.683 47.4082 303.061 47.2971C302.75 47.2505 302.431 47.3124 302.16 47.4725C301.888 47.6326 301.68 47.8811 301.569 48.1765C301.531 48.4278 301.557 48.6848 301.646 48.923C301.735 49.1612 301.883 49.3727 302.077 49.5373C302.419 49.8634 302.839 50.0963 303.297 50.2135C303.755 50.3308 304.235 50.3286 304.692 50.2072Z" fill="#2A2A2A"/>
<path d="M297.209 53.8297C297.241 54.1245 297.356 54.4041 297.541 54.6359C297.726 54.8677 297.973 55.0421 298.253 55.1386C298.56 55.2839 298.902 55.3339 299.238 55.282C299.573 55.2302 299.884 55.0789 300.132 54.8478C300.242 54.7243 300.32 54.5764 300.361 54.4165C300.402 54.2567 300.404 54.0894 300.367 53.9285C300.33 53.7677 300.256 53.6179 300.149 53.4917C300.043 53.3655 299.908 53.2665 299.756 53.2029L298.397 52.9564C297.871 52.684 297.201 53.2387 297.209 53.8297Z" fill="#2A2A2A"/>
<path d="M218.361 63.385L217.309 62.4248C217.589 62.8147 217.948 63.1417 218.361 63.385Z" fill="#2A2A2A"/>
<path d="M210.327 57.7295C210.975 60.7363 214.214 63.186 217.154 62.2825L217.309 62.4242C216.373 61.143 216.215 59.2474 216.433 57.5988C216.839 54.7739 217.949 52.0967 219.663 49.8142C221.376 47.5316 223.636 45.7174 226.235 44.5387C226.947 44.3164 227.584 43.9016 228.075 43.3401C228.494 42.7275 228.337 41.6761 227.616 41.5036C227.223 41.4588 226.828 41.5504 226.495 41.763L221.031 44.4525C218.271 45.8083 215.456 47.2078 213.289 49.39C211.121 51.5723 209.682 54.7227 210.327 57.7295Z" fill="#2A2A2A"/>
<path d="M76.5454 139.175C75.8675 138.945 75.1526 139.455 74.7545 140.05C74.4326 140.688 74.0544 141.296 73.6243 141.866C72.5822 142.94 70.6834 142.729 69.56 141.739C68.4365 140.748 67.9496 139.222 67.7315 137.742C67.4696 135.966 67.583 133.983 68.7551 132.627C69.9618 131.228 71.9456 130.852 73.7703 130.561C75.6555 130.261 77.7681 130.01 79.3125 131.132C80.2856 131.839 80.8532 132.981 81.7536 133.775C82.6539 134.57 84.2581 134.873 84.936 133.88C85.1135 133.528 85.2033 133.138 85.1976 132.744C85.1919 132.35 85.091 131.963 84.9034 131.616C84.522 130.926 84.2925 130.162 84.2304 129.375C84.276 128.284 85.1548 127.416 86.049 126.792C86.9432 126.169 87.9594 125.63 88.5468 124.71C89.2703 123.578 89.1938 122.121 89.6425 120.853C90.729 117.787 94.6066 116.423 95.7362 113.373C96.0085 112.732 96.0391 112.013 95.8225 111.351C95.3498 110.136 94.0717 110.375 93.9934 108.889C93.9182 107.472 95.1027 106.076 96.3069 105.483C97.9665 104.666 99.9016 104.732 101.751 104.682C103.6 104.632 105.594 104.386 106.951 103.129C107.39 102.676 107.729 102.136 107.945 101.543C108.161 100.95 108.249 100.318 108.204 99.6891C108.159 99.0598 107.982 98.447 107.684 97.8909C107.386 97.3349 106.973 96.848 106.474 96.4623C105.463 95.764 104.184 95.5206 103.2 94.7841C101.974 93.8665 101.394 92.3388 100.439 91.142C99.6449 90.2306 98.7361 89.4258 97.7354 88.7477L95.2777 86.9242C93.7986 85.8254 92.258 84.6982 90.4535 84.3069C88.6491 83.9155 86.505 84.4696 85.6028 86.0774C85.2468 86.7942 85.0525 87.5804 85.0334 88.3804C84.9511 90.2642 85.0297 92.1514 85.2682 94.0218L85.7143 98.5385C85.8475 99.8881 85.7045 101.667 84.3943 102.018C81.4879 102.795 82.4684 98.4978 81.8238 97.1808C80.8378 95.1656 76.3038 94.1981 74.3669 93.3599C73.1565 92.8355 71.879 92.2562 71.1481 91.158C70.2385 89.7911 70.4252 87.9312 71.1382 86.4521C71.8512 84.9731 73.0135 83.7701 74.0692 82.5123C75.1452 81.2304 76.1257 79.8715 77.1044 78.5145L80.5105 73.7914C81.9668 71.7725 83.4976 69.308 82.6675 66.96C82.4883 66.6459 82.2203 66.3917 81.8973 66.2291C81.5742 66.0666 81.2104 66.003 80.8514 66.0463C80.4923 66.0896 80.1541 66.2379 79.8789 66.4725C79.6037 66.7072 79.4039 67.0178 79.3045 67.3655C78.9421 68.6332 79.909 70.2515 78.984 71.1907C78.6671 71.4459 78.2706 71.5815 77.8637 71.5739C77.4569 71.5662 77.0658 71.4157 76.7587 71.1488C76.1595 70.5954 75.7032 69.9053 75.4287 69.1373C74.3077 66.6463 73.2157 64.1405 72.0651 61.6631C71.7015 60.8798 71.3219 59.5394 70.2194 59.6713C69.2623 59.7859 68.7459 61.1806 68.7791 61.9897C68.8272 63.1674 69.4786 64.22 69.9759 65.2886C70.4733 66.3573 70.8215 67.6409 70.2754 68.6855C69.584 70.0081 67.8319 70.3051 66.3399 70.2614C63.5277 70.1762 60.7722 69.4492 58.284 68.1358L58.0892 72.2827L52.1483 69.7961L50.9947 69.3129C49.324 68.6134 47.6514 67.914 45.932 67.3464C44.9558 67.0241 43.9661 66.7449 42.9739 66.4663L41.1694 65.9579C39.9824 65.5373 38.7235 65.3578 37.4662 65.4298C36.1456 65.5955 34.9672 66.3049 33.7458 66.8355C31.0206 68.0187 27.4955 66.8281 24.5744 66.8071C23.4156 65.1163 21.8514 63.743 20.0249 62.8126C18.1984 61.8822 16.1679 61.4245 14.1188 61.4812C12.0698 61.538 10.0677 62.1074 8.29553 63.1375C6.52335 64.1676 5.03763 65.6255 3.97418 67.3778C3.46062 68.2659 3.00327 69.1853 2.60482 70.1307L1.42095 72.793C0.839804 74.0958 0.245716 75.4683 0.359726 76.89C0.473737 78.3118 1.56392 79.7649 2.9906 79.752C-0.373026 81.2748 -1.07311 86.6037 1.78332 88.9437C2.574 89.5914 3.54402 90.0154 4.25582 90.7494C4.7937 91.3043 5.15352 92.0072 5.28912 92.768C5.42472 93.5287 5.32991 94.3127 5.01685 95.0192C4.70379 95.7258 4.18675 96.3226 3.5321 96.7332C2.87744 97.1439 2.11503 97.3495 1.34268 97.3238C3.3355 98.094 5.53058 98.1656 7.56937 97.527C9.60815 96.8884 11.3701 95.5774 12.5675 93.808C13.789 91.8975 14.3196 89.507 15.9811 87.962C18.1812 85.916 21.8153 86.0743 24.3531 87.6834C26.891 89.2925 28.4957 92.0319 29.6001 94.8267C31.0471 98.4886 31.9734 102.673 35.056 105.123C36.5467 106.307 38.4344 106.972 39.752 108.348C41.6279 110.305 41.9527 113.259 41.909 115.97C41.8652 118.681 41.5749 121.493 42.5622 124.018C43.5495 126.543 46.3831 128.62 48.9197 127.669C48.1924 129.826 48.2147 132.166 48.983 134.31C49.7512 136.453 51.2205 138.275 53.1529 139.479L51.7656 130.873C54.0711 131.522 55.565 133.758 56.4278 135.992C57.2905 138.226 57.7466 140.642 58.997 142.684C60.9691 145.9 64.533 147.286 68.1616 147.273C72.0811 147.261 73.5694 145.391 76.1522 142.639C76.6712 142.17 77.0652 141.578 77.2985 140.918C77.404 140.586 77.3858 140.226 77.2473 139.906C77.1088 139.586 76.8594 139.327 76.5448 139.176L76.5454 139.175Z" fill="#2A2A2A"/>
<path d="M87.644 139.032L81.072 137.999L84.517 140.07C85.4747 140.708 86.516 141.21 87.6113 141.561C88.1605 141.734 88.7392 141.792 89.3116 141.731C89.8841 141.671 90.4381 141.494 90.9392 141.211L90.6588 140.674C90.2175 139.558 88.8309 139.219 87.644 139.032Z" fill="#2A2A2A"/>
<path d="M86.155 151.21L86.1704 151.171C86.0379 150.952 85.8427 150.776 85.6099 150.669C85.377 150.561 85.1172 150.525 84.8639 150.566C84.3593 150.656 83.8434 150.664 83.3361 150.59C83.0138 150.464 82.7264 150.263 82.4978 150.003C82.2692 149.744 82.1061 149.433 82.0222 149.097C81.8047 148.442 81.74 147.741 81.4923 147.097C81.3131 146.587 80.9967 146.137 80.5781 145.795C80.1595 145.454 79.6548 145.235 79.1196 145.162C78.5828 145.118 78.0506 145.288 77.6379 145.634C77.2252 145.98 76.9651 146.474 76.9139 147.01C76.9562 147.563 77.1317 148.096 77.4255 148.566L78.1342 149.93C78.3334 150.336 78.5624 150.728 78.8195 151.101C79.2378 151.677 79.7846 152.147 80.4166 152.475C81.0486 152.803 81.7482 152.979 82.4601 152.989C83.1719 152.999 83.8763 152.843 84.5174 152.534C85.1585 152.224 85.7185 151.769 86.1531 151.205L86.155 151.21Z" fill="#2A2A2A"/>
<path d="M73.3623 34.6259C75.0306 35.6119 77.1216 36.2898 77.9123 38.0542L78.3696 38.2021L76.8733 40.0614C76.257 40.8275 75.6087 41.681 75.6228 42.664C75.6426 44.0198 76.9448 45.0391 78.2611 45.3583C79.6653 45.6472 81.1267 45.4041 82.3617 44.6762C83.5967 43.9483 84.5173 42.7875 84.9446 41.4191C85.1011 40.8484 85.1659 40.2562 85.3027 39.6806C85.7026 38.3153 86.3064 37.0182 87.0936 35.8332L100.383 13.476C100.938 12.5479 101.503 11.4373 101.089 10.4408C100.867 10.0192 100.525 9.6736 100.105 9.44843C99.6854 9.22327 99.2081 9.12889 98.7344 9.17746C97.7889 9.29235 96.8769 9.59916 96.0542 10.0791C95.6888 9.43714 95.173 8.8935 94.5511 8.49483C93.9293 8.09616 93.22 7.85436 92.4841 7.79022C91.0125 7.67661 89.5322 7.80548 88.1024 8.17169C84.8722 8.65899 81.7573 9.72896 78.9094 11.3295C77.3515 12.1171 75.637 13.0896 75.1853 14.7757C74.6306 16.8501 76.4209 18.9664 78.4842 19.5598C80.5475 20.1533 82.7494 19.6554 84.8374 19.1537C85.0737 20.166 84.9755 21.2276 84.5576 22.1793C84.1396 23.1311 83.4244 23.9217 82.5192 24.4327C81.614 24.9436 80.5675 25.1474 79.5367 25.0134C78.5059 24.8794 77.5463 24.4149 76.8018 23.6895C75.3048 22.232 74.5721 19.7022 72.5174 19.3263C70.4628 18.9503 68.8408 21.1363 68.3884 23.1687C67.9462 25.3581 68.186 27.6304 69.0755 29.6792C69.965 31.728 71.4615 33.4547 73.363 34.6265L73.3623 34.6259Z" fill="#2A2A2A"/>
<path d="M99.0517 70.4857C98.0654 67.7053 96.769 65.0449 95.1871 62.5548C93.9881 60.5859 92.5083 58.8026 90.7943 57.261C89.2279 55.9084 87.4273 54.8537 85.4814 54.1488C83.5925 53.466 81.4898 53.1283 79.5799 53.7513C77.6701 54.3744 76.0456 56.1499 76.0844 58.1577C76.1269 60.3763 78.0701 62.1148 80.0952 63.0263C82.1202 63.9377 84.3727 64.3359 86.2825 65.4686C87.5814 66.2563 88.6669 67.351 89.4436 68.6565C90.2203 69.962 90.6644 71.4383 90.737 72.9557L91.2183 73.7513C90.1283 74.1125 89.1118 74.666 88.217 75.3857C87.774 75.7515 87.4353 76.2277 87.2352 76.7662C87.035 77.3047 86.9804 77.8865 87.0769 78.4529C87.4109 79.7976 88.7834 80.5691 90.0252 81.1842L96.9071 84.5928C95.7362 81.1096 99.5633 77.8686 99.7746 74.2012C99.7828 72.9266 99.5373 71.6632 99.0524 70.4844L99.0517 70.4857Z" fill="#2A2A2A"/>
<path d="M41.3703 61.0838C42.7619 62.1648 44.9016 61.6588 46.1773 60.4429C47.4529 59.227 48.0729 57.4959 48.6522 55.8319C48.4414 57.4792 48.4622 59.1478 48.7138 60.7892C48.8445 61.6101 49.1441 62.395 49.5938 63.094C50.0435 63.7931 50.6334 64.3912 51.3262 64.8505C51.9542 65.1952 52.631 65.4421 53.3334 65.5826C56.6045 66.327 60.023 66.0827 63.155 64.8807L63.1834 63.8096C61.61 63.9889 60.4194 62.2634 60.3152 60.6833C60.2111 59.1031 60.7848 57.5532 60.8353 55.9706C60.8859 54.388 60.1229 52.5386 58.5644 52.2569C58.8372 52.8047 58.9367 53.4226 58.8497 54.0283C58.7627 54.6341 58.4932 55.1989 58.0772 55.6478C57.6612 56.0966 57.1183 56.408 56.5209 56.5407C55.9235 56.6733 55.2999 56.6209 54.733 56.3903C52.9292 55.6569 52.2741 53.4593 50.8801 52.0998C50.0187 51.3337 48.9502 50.8394 47.8087 50.6788C46.6673 50.5183 45.5038 50.6988 44.4646 51.1976C43.4386 51.7211 42.5384 52.4612 41.8263 53.3667C41.1143 54.2722 40.6073 55.3214 40.3405 56.442C39.9178 58.0641 40.0429 60.0516 41.3703 61.0838Z" fill="#2A2A2A"/>
<path d="M84.3178 49.806L84.3794 49.7012C83.9912 48.5796 82.7869 47.9214 81.6111 47.7544C80.4262 47.6763 79.2366 47.7157 78.0595 47.8721C76.8722 48.0246 75.6689 47.7588 74.6564 47.1202C73.8473 46.5157 73.3863 45.5635 72.7398 44.7876C72.0934 44.0118 71.0463 43.3739 70.1065 43.7449C69.089 44.1467 68.8178 45.5722 69.3115 46.5483C69.8932 47.4846 70.7704 48.2002 71.8043 48.582C75.7198 50.3793 80.1255 50.8094 84.3147 49.8035L84.3178 49.806Z" fill="#2A2A2A"/>
<path d="M70.9496 53.1665C70.6253 53.4053 70.4057 53.7599 70.3366 54.1566C70.2676 54.5533 70.3543 54.9614 70.5788 55.2957C70.8033 55.6299 71.1482 55.8646 71.5415 55.9507C71.9349 56.0369 72.3463 55.9678 72.6899 55.758L73.0332 56.0969C73.4899 55.2797 73.6778 54.1865 73.0948 53.4525C72.8353 53.1492 72.4729 52.9522 72.0772 52.8995C71.6814 52.8467 71.2802 52.9418 70.9502 53.1665H70.9496Z" fill="#2A2A2A"/>
<path d="M66.9339 56.0988C66.939 55.8068 66.8555 55.52 66.6944 55.2764C66.5334 55.0327 66.3023 54.8436 66.0317 54.7337C65.8475 54.7021 65.6588 54.7081 65.477 54.7514C65.2952 54.7947 65.124 54.8743 64.9737 54.9855C64.8235 55.0967 64.6973 55.2371 64.6028 55.3984C64.5083 55.5596 64.4474 55.7383 64.4239 55.9237C64.3956 56.3013 64.4452 56.6807 64.5697 57.0382C64.6941 57.3958 64.8908 57.724 65.1474 58.0024C65.2967 58.2268 65.4919 58.4169 65.72 58.5603C65.9482 58.7037 66.2042 58.7972 66.4711 58.8344C67.0091 58.8523 67.557 58.2896 67.3395 57.7978L66.518 57.7818C66.771 57.2554 66.9127 56.6824 66.9339 56.0988Z" fill="#2A2A2A"/>
<path d="M50.8744 47.6885L51.7791 48.4219C52.3016 48.8735 52.866 49.2743 53.4647 49.6187C54.5117 50.1987 55.7431 50.3494 56.8991 50.039C57.4698 49.8763 57.9904 49.5725 58.4128 49.1557C58.8352 48.7389 59.1459 48.2224 59.3162 47.654C59.6767 46.2982 59.0888 44.8844 58.515 43.6014C58.3837 43.2343 58.167 42.9037 57.8827 42.6369C57.7371 42.5079 57.5513 42.4332 57.3568 42.4256C57.1624 42.4179 56.9713 42.4778 56.8159 42.595C56.7033 42.7352 56.6284 42.9019 56.5983 43.0792C56.5682 43.2565 56.5839 43.4386 56.644 43.6081C56.7677 43.946 56.8242 44.3049 56.8104 44.6644C56.7531 45.0194 56.379 45.354 56.053 45.2074L56.0006 46.4147C54.4347 45.6221 53.6064 43.5132 51.8636 43.3055C51.4724 43.2589 51.076 43.3206 50.7175 43.4838C50.359 43.6471 50.0523 43.9056 49.8307 44.2313C49.6091 44.557 49.4812 44.9373 49.461 45.3306C49.4407 45.724 49.5289 46.1154 49.7159 46.4621C50.0185 46.9431 50.4131 47.3596 50.8769 47.6879L50.8744 47.6885Z" fill="#2A2A2A"/>
<path d="M47.1448 42.4766C47.5071 42.2282 47.7938 41.8846 47.9732 41.4837C48.1526 41.0827 48.2178 40.64 48.1616 40.2044C48.1183 39.9934 48.029 39.7945 47.9001 39.6219C47.7712 39.4493 47.6059 39.3072 47.4158 39.2058C47.2258 39.1043 47.0157 39.046 46.8006 39.035C46.5854 39.024 46.3705 39.0605 46.1711 39.1419C45.7237 39.4765 45.4095 39.9589 45.2842 40.5033L44.0461 43.9957L44.7401 43.491C45.598 43.3062 46.4137 42.9622 47.1448 42.4766Z" fill="#2A2A2A"/>
<path d="M55.1822 35.3322C55.3061 35.1759 55.3942 34.9944 55.4404 34.8004C55.4865 34.6064 55.4896 34.4046 55.4495 34.2093C55.4093 34.014 55.3268 33.8298 55.2078 33.6698C55.0888 33.5098 54.9362 33.3778 54.7607 33.2831L53.8936 33.2017C53.6964 33.2516 53.5136 33.3471 53.36 33.4804C53.2063 33.6137 53.0861 33.7811 53.0088 33.9693C52.9316 34.1575 52.8996 34.3612 52.9153 34.564C52.931 34.7668 52.994 34.9631 53.0993 35.1371C53.2045 35.3112 53.3491 35.4581 53.5215 35.5662C53.6938 35.6743 53.8891 35.7404 54.0916 35.7594C54.2941 35.7784 54.4983 35.7496 54.6877 35.6754C54.8771 35.6012 55.0465 35.4837 55.1822 35.3322Z" fill="#2A2A2A"/>
<path d="M63.1625 36.6713C63.9717 37.0583 64.9965 37.4275 65.7003 36.8716C65.9092 36.6831 66.0647 36.4428 66.1513 36.1751C66.2378 35.9073 66.2523 35.6215 66.1933 35.3463C66.067 34.7979 65.8229 34.2835 65.4778 33.8389C64.4011 32.2931 63.0331 30.9722 61.4505 29.9502L61.0592 30.4587C60.5125 31.8761 59.985 33.5351 60.7473 34.8509C61.2582 35.7371 62.2375 36.2288 63.1625 36.6713Z" fill="#2A2A2A"/>
<path d="M69.1914 37.9341L70.705 38.6188C70.5568 38.3599 70.3308 38.1544 70.059 38.0315C69.7873 37.9085 69.4836 37.8745 69.1914 37.9341Z" fill="#2A2A2A"/>
<path d="M65.113 42.6961L64.3981 42.9315C63.7898 43.9311 64.0536 45.2117 64.3364 46.3438C64.5152 47.0611 64.9009 47.9461 65.6399 47.9116C66.3591 47.8795 66.6771 47.0081 66.8151 46.3019C67.0304 45.5346 67.0537 44.7261 66.8829 43.9477C66.7854 43.5623 66.5536 43.2244 66.2291 42.9948C65.9046 42.7653 65.5088 42.6591 65.113 42.6954V42.6961Z" fill="#2A2A2A"/>
<path d="M53.708 39.333L54.2374 39.5463C54.3614 39.5285 54.4762 39.4704 54.5638 39.3809C54.6514 39.2913 54.7071 39.1754 54.7222 39.051C54.7372 38.9266 54.7108 38.8007 54.6471 38.6929C54.5833 38.585 54.4858 38.5012 54.3696 38.4544C54.2534 38.4075 54.125 38.4004 54.0043 38.4339C53.8836 38.4675 53.7773 38.54 53.7019 38.64C53.6266 38.7401 53.5863 38.8623 53.5874 38.9876C53.5885 39.1129 53.6309 39.2343 53.708 39.333Z" fill="#2A2A2A"/>
<path d="M80.3878 79.7951C80.1315 79.8009 79.8803 79.8679 79.655 79.9904C79.4298 80.113 79.2372 80.2877 79.0932 80.4998C78.9492 80.712 78.858 80.9555 78.8272 81.21C78.7964 81.4646 78.8269 81.7228 78.9162 81.9632C79.4357 83.0823 81.2254 83.0873 82.021 82.1438C82.2247 81.8758 82.3707 81.5685 82.4497 81.2413C82.5288 80.9141 82.5391 80.574 82.4801 80.2426C82.4211 79.9112 82.294 79.5956 82.1069 79.3158C81.9198 79.036 81.6767 78.798 81.393 78.6168L80.3878 79.7951Z" fill="#2A2A2A"/>
<path d="M106.162 106.302C105.954 106.357 105.759 106.454 105.589 106.586C105.419 106.718 105.277 106.883 105.172 107.071C105.066 107.258 105 107.465 104.976 107.679C104.952 107.893 104.971 108.11 105.033 108.316L106.519 108.419L108.028 107.662C107.997 107.449 107.925 107.244 107.814 107.059C107.703 106.875 107.556 106.714 107.382 106.588C107.208 106.461 107.01 106.37 106.801 106.321C106.591 106.272 106.374 106.265 106.162 106.302Z" fill="#2A2A2A"/>
<path d="M100.123 108.14C99.6977 108.442 99.3565 108.847 99.1312 109.317C98.906 109.787 98.8042 110.307 98.8355 110.828C98.8839 111.347 99.0963 111.837 99.4418 112.227C99.7874 112.618 100.248 112.888 100.758 112.999C101.272 113.08 101.797 112.962 102.228 112.67C102.659 112.378 102.963 111.933 103.078 111.425C103.329 109.888 101.678 108.763 101.084 107.324L100.123 108.14Z" fill="#2A2A2A"/>
<path d="M157.828 97.9906C157.986 99.1443 156.946 100.155 156.907 101.319C156.861 102.699 158.364 103.773 159.742 103.638C160.424 103.519 161.07 103.244 161.628 102.834C162.186 102.424 162.641 101.89 162.958 101.275L162.988 101.145L160.979 98.875C160.157 97.9456 159.285 96.8875 159.315 95.647C159.331 95.0356 159.572 94.4427 159.558 93.8314C159.526 93.3915 159.428 92.959 159.267 92.5483C159.086 92.0072 158.839 91.3977 158.299 91.2147C157.621 90.9861 156.939 91.5845 156.616 92.2229C156.325 92.8109 156.183 93.4616 156.203 94.1173C156.224 94.7731 156.406 95.4136 156.733 95.9822C157.124 96.6428 157.724 97.2271 157.828 97.9906Z" fill="#2A2A2A"/>
<path d="M151.513 102.049C151.66 102.128 151.822 102.175 151.988 102.186C152.154 102.196 152.32 102.171 152.475 102.111C153.072 102.009 153.646 101.8 154.168 101.495C154.428 101.339 154.641 101.117 154.787 100.851C154.932 100.585 155.005 100.286 154.997 99.9831C154.906 99.6023 154.705 99.257 154.418 98.9908C154.131 98.7245 153.772 98.5493 153.386 98.4874C153.117 98.3931 152.83 98.3662 152.549 98.4092C152.268 98.4522 152.002 98.5637 151.774 98.7339C151.275 99.2016 151.335 99.996 151.433 100.673L151.327 100.85C151.234 101.269 151.173 101.789 151.513 102.049Z" fill="#2A2A2A"/>
<path d="M256.912 151.353L256.478 150.273C256.279 150.762 256.353 151.262 256.912 151.353Z" fill="#2A2A2A"/>
<path d="M343.854 75.5965C341.996 73.58 340.857 72.4171 339.684 69.9181C339.045 68.5394 338.075 67.3403 336.86 66.4279C335.645 65.5156 334.222 64.9184 332.72 64.6897C328.864 64.0543 324.924 65.0594 321.021 64.8585C314.771 64.5356 309.133 61.183 303.149 59.3539C299.798 58.4147 296.385 57.7107 292.935 57.2469L286.971 56.304C280.455 55.2736 273.897 54.2401 267.302 54.3769C265.4 54.4164 262.751 53.8444 262.903 51.9488C263.092 49.594 267.329 49.9028 268.144 47.6854C268.649 46.3136 267.442 44.8733 266.119 44.2527C264.796 43.6322 263.268 43.446 262.067 42.6128C260.866 41.7796 260.207 39.8495 261.311 38.8918L252.132 43.597C249.588 44.9011 246.746 46.5977 246.297 49.4208C244.764 49.8258 243.423 50.7577 242.508 52.0529C240.787 52.0622 239.435 53.7169 239.151 55.4116C238.866 57.1064 239.383 58.827 239.89 60.4706C239.266 59.2751 238.603 58.0333 237.503 57.2531C236.403 56.4729 234.729 56.3243 233.789 57.2937C232.826 58.2884 233.049 59.9573 233.732 61.1621C234.415 62.3669 235.458 63.34 236.102 64.5658C238.109 68.3947 234.472 73.7859 230.17 73.3594L231.033 61.4973C231.216 60.2812 231.113 59.0392 230.734 57.8693C230.265 56.7372 229.063 55.8079 227.867 56.0754C225.717 56.556 225.901 59.7058 226.796 61.7192C227.69 63.7326 228.583 66.5329 226.755 67.7661C225.577 68.5623 223.978 68.0705 222.705 67.4352C221.431 66.7998 220.07 66.0177 218.679 66.3135C217.287 66.6093 216.412 68.7373 217.641 69.4565L211.525 68.3935C211.424 68.9936 211.198 69.566 210.862 70.0734C210.526 70.5809 210.087 71.0122 209.574 71.3396C209.061 71.6669 208.485 71.883 207.883 71.9738C207.282 72.0646 206.667 72.0281 206.081 71.8668L205.48 69.3783L204.586 69.1317C205.522 69.3924 204.057 73.3421 202.744 76.3588C200.978 76.1517 198.397 76.1123 198.102 75.6057C196.692 73.1825 196.86 67.4093 194.41 66.0473C193.181 65.3636 191.921 64.7406 190.63 64.1781C189.952 63.8554 189.235 63.6201 188.498 63.4781C186.993 63.2408 185.478 63.7073 184.025 64.1689C182.31 64.7137 180.554 65.2782 179.134 66.3875C177.921 67.4395 176.881 68.6759 176.053 70.0512L167.639 82.5C166.804 83.6084 166.146 84.8403 165.691 86.1514C165.476 86.8033 165.404 87.4939 165.481 88.1759C165.558 88.858 165.78 89.5155 166.134 90.1036C166.507 90.68 167.064 91.1141 167.713 91.3362C168.363 91.5582 169.068 91.5551 169.716 91.3275C170.529 90.9756 171.343 90.1782 172.149 90.5467C172.759 90.8259 172.911 91.6276 172.847 92.295C172.692 92.9489 172.68 93.6285 172.811 94.2875C173.181 95.3271 174.588 95.6883 175.595 95.239C176.573 94.7052 177.306 93.8127 177.64 92.7492C178.609 90.2626 178.51 87.5109 178.749 84.8535C178.987 82.1962 179.717 79.3527 181.812 77.6998C182.44 77.2068 183.361 76.8487 184.007 77.319C184.249 77.5387 184.416 77.8285 184.485 78.1477C184.554 78.467 184.522 78.7999 184.393 79.1C184.122 79.694 183.769 80.247 183.345 80.743C182.629 81.7505 182.129 82.8945 181.874 84.1037C181.62 85.313 181.617 86.5618 181.866 87.7722L182.294 88.0372C183.928 87.6132 186.115 88.3725 188.285 89.0997C186.71 89.568 185.323 90.5218 184.323 91.8248C181.815 95.3431 180.001 98.6722 175.04 98.6303C173.864 98.6205 172.698 98.3875 171.52 98.3838C170.332 98.3099 169.161 98.6996 168.254 99.4709C167.361 100.344 167.083 101.675 166.322 102.663C165.319 103.962 163.642 104.49 162.109 105.08C160.99 105.512 159.81 106.093 159.295 107.176C158.972 108.064 158.897 109.025 159.079 109.953C159.252 111.594 159.557 113.461 160.95 114.347C161.47 114.618 162.04 114.784 162.625 114.833C163.211 114.883 163.8 114.815 164.359 114.635C165.807 114.282 167.224 113.619 168.711 113.718C171.047 113.874 172.969 116.115 172.994 118.456C173.005 119.64 172.66 120.999 173.445 121.887C174.185 122.721 175.647 122.572 176.411 121.763C176.767 121.333 177.011 120.822 177.123 120.275C177.236 119.728 177.212 119.162 177.055 118.627C176.73 117.559 176.231 116.553 175.576 115.649C176.354 115.448 177.177 115.522 177.906 115.859C178.634 116.196 179.224 116.776 179.574 117.498C180.093 118.651 179.925 119.981 180.091 121.233C180.256 122.486 181.019 123.879 182.281 123.951C182.693 123.963 183.097 123.83 183.422 123.575C183.747 123.32 183.972 122.959 184.059 122.556C184.072 121.92 184.037 121.284 183.955 120.654C183.998 120.033 184.277 119.452 184.735 119.03C185.193 118.609 185.794 118.378 186.417 118.386C186.033 119.095 185.908 119.916 186.063 120.707C186.218 121.499 186.644 122.211 187.268 122.723C188.228 123.466 189.497 123.632 190.694 123.84C191.89 124.047 193.165 124.376 193.938 125.313C195.224 126.874 193.65 127.576 193.405 128.898C193.104 130.521 194.46 132.917 194.98 134.47L202.158 144.511C202.692 145.325 203.322 146.072 204.034 146.736C206.396 148.764 210.29 148.564 212.555 146.427C213.653 145.316 214.366 143.883 214.589 142.336C214.812 140.79 214.534 139.213 213.795 137.837C212.396 135.289 209.622 133.711 208.252 131.147C210.532 133.034 213.331 134.185 216.278 134.448C221.493 135.507 226.448 137.586 230.859 140.563C231.066 145.171 232.835 149.572 235.873 153.043C236.42 149.111 238.253 145.47 241.088 142.69C242.931 140.892 245.45 139.443 247.978 139.926C250.507 140.41 252.426 143.634 250.896 145.706L254.741 145.992L256.467 150.279C256.569 149.979 256.765 149.719 257.025 149.538C257.286 149.357 257.598 149.265 257.915 149.274C259.115 149.455 259.956 150.571 261.097 150.983C263.249 151.761 265.549 149.608 265.827 147.338C266.105 145.067 265.025 142.875 263.978 140.843C266.296 141.272 268.689 141.016 270.863 140.106C273.038 139.196 274.9 137.672 276.222 135.72C277.544 133.768 278.268 131.474 278.306 129.116C278.344 126.759 277.693 124.443 276.435 122.449C278.929 119.83 281.864 117.668 285.106 116.065C288.107 114.583 291.389 113.565 294.011 111.485C296.634 109.405 298.473 105.795 297.212 102.695C296.321 100.506 294.086 99.0192 293.417 96.7513C292.448 93.4684 295.389 90.0734 298.712 89.2531C302.036 88.4329 305.505 89.438 308.778 90.4413C308.275 87.0733 312.179 83.9162 315.367 85.1118L319.373 83.4897C317.825 86.9026 314.471 89.0738 312.005 91.8951C309.538 94.7164 308.07 99.3107 310.649 102.032L321.728 91.9912L333.314 81.4881L332.759 79.8623C336.423 78.4683 340.359 77.3202 343.854 75.5965Z" fill="#2A2A2A"/>
<path d="M152.043 120.644C151.894 120.858 151.815 121.114 151.816 121.376C151.817 121.637 151.899 121.892 152.051 122.105C152.249 122.274 152.5 122.368 152.76 122.371C153.02 122.375 153.273 122.288 153.476 122.125C153.873 121.786 154.183 121.357 154.38 120.874C154.571 121.245 154.873 121.548 155.243 121.742C155.613 121.936 156.034 122.011 156.448 121.958C157.275 121.833 158.058 121.506 158.728 121.006C159.26 120.694 159.73 120.286 160.114 119.804C160.304 119.561 160.434 119.276 160.495 118.974C160.555 118.671 160.544 118.359 160.462 118.061C160.263 117.605 159.954 117.206 159.562 116.899L156.63 114.191L156.299 114.092C156.127 113.909 155.919 113.762 155.689 113.661C155.459 113.559 155.21 113.506 154.958 113.503C154.707 113.501 154.457 113.549 154.224 113.645C153.992 113.741 153.781 113.883 153.605 114.063C152.998 114.741 152.995 115.757 153.088 116.663C153.18 117.569 153.325 118.535 152.922 119.351C152.693 119.819 152.301 120.189 152.043 120.644Z" fill="#2A2A2A"/>
<path d="M208.738 151.476C204.94 150.631 201.464 148.716 198.72 145.958C195.977 143.2 194.08 139.715 193.254 135.913C192.894 134.119 192.73 132.159 191.537 130.772C190.381 129.429 188.494 128.945 186.722 128.945C184.951 128.945 183.205 129.353 181.437 129.463C178.345 129.656 175.07 128.839 172.86 126.67C171.812 125.643 171.021 124.338 169.798 123.527C168.155 122.438 165.977 122.439 164.105 123.056C162.019 123.743 160.35 125.624 158.07 125.366C155.699 125.096 152.951 124.256 152.021 127.381C151.753 128.28 151.844 129.266 151.505 130.14C150.983 131.488 149.595 132.248 148.499 133.19C146.289 135.087 145.115 137.968 144.719 140.853C144.323 143.738 144.63 146.668 144.936 149.564C145.101 151.126 145.319 152.807 146.392 153.954C147.887 155.554 150.397 155.492 152.579 155.31L160.184 154.682C161.551 154.57 163.108 154.521 164.081 155.488C164.664 156.067 164.911 156.905 165.423 157.547C165.884 158.093 166.516 158.468 167.216 158.609C167.916 158.75 168.644 158.65 169.28 158.324C168.766 159.243 168.486 160.274 168.465 161.326C168.444 162.378 168.683 163.419 169.161 164.357C169.638 165.295 170.34 166.101 171.203 166.703C172.066 167.305 173.065 167.685 174.11 167.81L174.305 167.933C172.682 170.712 170.998 173.833 171.671 176.98C172.248 179.679 174.483 181.843 174.849 184.578C175.184 187.087 173.874 189.654 174.454 192.119C175.04 194.615 177.561 196.355 180.118 196.541C182.676 196.726 185.188 195.592 187.169 193.964C189.15 192.336 190.682 190.239 192.191 188.166C193.123 186.886 194.079 185.555 194.399 184.004C194.739 182.354 194.344 180.526 195.147 179.044C196.071 177.336 198.268 176.696 199.377 175.1C200.812 173.034 199.967 170.22 200.284 167.725C201.069 161.549 208.916 157.7 208.738 151.476Z" fill="#2A2A2A"/>
<path d="M207.604 172.562C207.39 173.526 206.486 174.164 205.626 174.647C204.766 175.129 203.819 175.622 203.381 176.507C202.932 177.414 203.134 178.495 203.372 179.479C203.86 181.526 204.435 183.551 205.097 185.551C206.381 183.125 207.503 180.616 208.453 178.04C208.856 177.082 209.105 176.066 209.19 175.029C209.229 174.511 209.159 173.989 208.985 173.499C208.811 173.009 208.535 172.561 208.177 172.184L207.604 172.562Z" fill="#2A2A2A"/>
<path d="M260.413 161.82L257.178 158.085C256.438 157.234 255.6 156.325 254.482 156.183L254.023 156.477L256.827 163.156C257.158 164.172 257.741 165.089 258.521 165.82C259.358 166.477 260.715 166.604 261.413 165.8C261.638 165.499 261.78 165.144 261.824 164.77C261.869 164.397 261.814 164.018 261.666 163.673C261.362 162.985 260.937 162.358 260.413 161.82Z" fill="#2A2A2A"/>
<path d="M270.861 164.204C271.269 164.062 271.642 163.837 271.958 163.543C272.273 163.249 272.524 162.892 272.694 162.495C273.028 161.701 273.249 160.864 273.35 160.008L273.904 156.664L273.663 156.602C273.429 156.49 273.162 156.466 272.912 156.535C272.661 156.605 272.445 156.763 272.302 156.98C272.03 157.422 271.825 157.902 271.692 158.405C271.623 158.656 271.499 158.888 271.328 159.084C271.158 159.28 270.945 159.435 270.706 159.537C269.843 159.799 269.02 158.881 268.117 158.917C267.752 158.963 267.414 159.132 267.157 159.396C266.9 159.659 266.741 160.002 266.704 160.368C266.651 161.107 266.861 161.841 267.295 162.441C268.064 163.636 269.494 164.597 270.861 164.204Z" fill="#2A2A2A"/>
<path d="M276.823 166.317L279.308 159.772C278.301 160.502 277.53 161.511 277.088 162.674C276.647 163.836 276.555 165.103 276.823 166.317Z" fill="#2A2A2A"/>
<path d="M289.505 161.044L289.003 161.065C288.778 161.509 288.659 161.999 288.654 162.497C288.65 162.995 288.76 163.487 288.976 163.935C289.417 164.829 290.058 165.61 290.851 166.215C292.078 167.229 293.479 168.011 294.986 168.524C297.196 169.169 299.481 169.522 301.782 169.572L305.726 169.83C306.353 169.872 307.163 169.792 307.338 169.189C307.481 168.691 307.057 168.223 306.66 167.888C303.179 164.959 298.96 163.044 294.464 162.352C292.761 162.087 290.951 161.981 289.505 161.044Z" fill="#2A2A2A"/>
<path d="M303.547 178.41L300.709 175.658C299.788 174.765 298.41 173.82 297.355 174.549C296.75 174.968 296.562 175.781 296.049 176.312C295.736 176.592 295.357 176.789 294.948 176.886C294.539 176.983 294.113 176.976 293.707 176.866C292.899 176.639 292.135 176.277 291.448 175.795L289.1 174.338L286.67 172.83L284.842 174.607C284.921 173.733 283.755 173.164 282.949 173.51C282.565 173.725 282.235 174.024 281.983 174.385C281.731 174.745 281.563 175.158 281.492 175.592C281.358 176.46 281.123 177.309 280.794 178.123C279.866 179.9 277.612 180.427 275.629 180.724C273.645 181.022 271.4 181.441 270.339 183.142C269.455 184.559 269.722 186.378 270.015 188.022L271.132 194.24C271.185 194.993 271.487 195.707 271.991 196.27C272.973 197.136 274.493 196.609 275.689 196.081C278.193 194.877 280.879 194.098 283.639 193.776C286.424 193.465 289.226 194.183 291.518 195.795C292.939 196.876 294.023 198.374 295.528 199.335C296.565 199.959 297.731 200.338 298.937 200.443C300.142 200.548 301.356 200.377 302.485 199.942C304.749 199.041 306.623 197.37 307.777 195.223C308.801 193.331 309.315 191.204 309.269 189.053C309.222 186.901 308.616 184.799 307.51 182.953C306.38 181.279 305.047 179.752 303.54 178.407L303.547 178.41Z" fill="#2A2A2A"/>
<path d="M300.757 203.745C300.53 204.02 300.397 204.361 300.378 204.718C300.359 205.074 300.455 205.428 300.651 205.726C301.063 206.317 301.692 206.721 302.4 206.852C303.102 206.977 303.817 207.01 304.527 206.949L304.548 206.419C304.359 205.488 303.93 204.622 303.303 203.908C302.616 203.258 301.407 203.057 300.757 203.745Z" fill="#2A2A2A"/>
<path d="M325.12 204.312L324.781 204.188L322.359 207.839C321.928 208.493 321.472 209.279 321.737 210.019C322.051 210.894 323.21 211.151 324.111 210.919C324.798 210.733 325.418 210.354 325.898 209.827C326.377 209.301 326.697 208.649 326.819 207.947C326.918 207.242 326.811 206.523 326.509 205.877C326.208 205.232 325.725 204.688 325.12 204.312Z" fill="#2A2A2A"/>
<path d="M331.273 200.45L329.044 198.678C329.015 199.5 328.985 200.322 328.955 201.143H328.871C329.385 201.594 329.87 202.076 330.324 202.588C330.845 203.032 331.721 203.234 332.166 202.715C332.3 202.529 332.375 202.308 332.384 202.079C332.393 201.85 332.334 201.624 332.214 201.429C331.969 201.043 331.649 200.71 331.273 200.45Z" fill="#2A2A2A"/>
<path d="M291.011 123.367C290.076 123.338 289.039 123.281 288.316 123.872C288.077 124.086 287.868 124.329 287.694 124.598L287.438 124.955C287.056 125.456 286.723 125.993 286.443 126.557C286.297 126.822 286.209 127.115 286.186 127.416C286.162 127.717 286.204 128.02 286.307 128.304C286.367 128.44 286.456 128.561 286.568 128.659C286.679 128.756 286.811 128.828 286.954 128.87C287.096 128.911 287.246 128.92 287.393 128.897C287.539 128.874 287.679 128.819 287.802 128.735C288.202 128.366 288.11 127.694 288.41 127.24C288.543 127.07 288.714 126.932 288.909 126.839C289.105 126.745 289.319 126.699 289.535 126.702C289.967 126.713 290.397 126.762 290.82 126.848C291.993 127.008 293.187 126.83 294.261 126.334C295.335 125.838 296.245 125.044 296.883 124.048C297.521 123.051 297.86 121.893 297.861 120.71C297.862 119.526 297.524 118.367 296.888 117.37L296.812 117.14C296.165 117.115 295.529 117.319 295.016 117.714C294.503 118.11 294.145 118.673 294.004 119.305C293.795 120.395 294.238 121.661 293.578 122.552C293.02 123.3 291.946 123.396 291.011 123.367Z" fill="#2A2A2A"/>
<path d="M299.382 111.815L299.239 111.803C298.403 111.955 297.6 112.255 296.868 112.686C296.628 112.798 296.436 112.992 296.327 113.234C296.296 113.362 296.296 113.497 296.329 113.625C296.362 113.753 296.426 113.871 296.516 113.968C296.697 114.16 296.91 114.319 297.145 114.441C297.494 114.674 297.88 114.847 298.287 114.952C298.491 115.003 298.705 115.002 298.908 114.949C299.112 114.896 299.299 114.794 299.454 114.651C299.599 114.452 299.698 114.224 299.745 113.983C299.793 113.741 299.786 113.493 299.727 113.254C299.661 112.764 299.545 112.282 299.382 111.815Z" fill="#2A2A2A"/>
<path d="M284.968 123.644C285.191 123.286 285.35 122.891 285.437 122.478L285.699 121.516L284.766 120.949C284.321 121.181 283.91 121.474 283.546 121.819C283.365 121.993 283.221 122.203 283.125 122.435C283.029 122.667 282.981 122.917 282.986 123.168C282.999 123.419 283.096 123.658 283.263 123.847C283.429 124.036 283.654 124.163 283.901 124.207C284.113 124.213 284.322 124.165 284.509 124.066C284.695 123.968 284.854 123.823 284.968 123.645V123.644Z" fill="#2A2A2A"/>
<path d="M183.415 36.9567C183.045 37.1866 183.15 37.7418 183.3 38.1498L183.815 39.5543L184.056 38.6453C184.266 38.2931 184.359 37.883 184.321 37.4743C184.237 37.0744 183.761 36.741 183.415 36.9567Z" fill="#2A2A2A"/>
<path d="M55.4381 121.029C57.4803 121.029 59.1358 119.373 59.1358 117.331C59.1358 115.289 57.4803 113.634 55.4381 113.634C53.396 113.634 51.7405 115.289 51.7405 117.331C51.7405 119.373 53.396 121.029 55.4381 121.029Z" fill="#6C63FF"/>
</g>
<path d="M132.294 100.442H103.542C103.224 100.441 102.92 100.315 102.695 100.09C102.471 99.8659 102.344 99.5614 102.344 99.2437V69.2994C102.344 68.9818 102.471 68.6773 102.695 68.4527C102.92 68.2281 103.224 68.1018 103.542 68.1014H132.294C132.612 68.1018 132.916 68.2281 133.141 68.4527C133.365 68.6773 133.492 68.9818 133.492 69.2994V99.2437C133.492 99.5614 133.365 99.8659 133.141 100.09C132.916 100.315 132.612 100.441 132.294 100.442ZM103.542 68.5804C103.351 68.5806 103.169 68.6564 103.034 68.7912C102.899 68.9259 102.823 69.1086 102.823 69.2991V99.2437C102.823 99.4343 102.899 99.617 103.034 99.7517C103.169 99.8865 103.351 99.9623 103.542 99.9625H132.294C132.485 99.9623 132.667 99.8865 132.802 99.7517C132.937 99.617 133.013 99.4343 133.013 99.2437V69.2994C133.013 69.1089 132.937 68.9262 132.802 68.7914C132.667 68.6567 132.485 68.5809 132.294 68.5807L103.542 68.5804Z" fill="#019D91"/>
<path d="M109.668 74.2765C109.558 74.2704 109.447 74.287 109.343 74.3251C109.239 74.3632 109.144 74.4222 109.064 74.4983C108.983 74.5744 108.919 74.6661 108.875 74.7678C108.832 74.8696 108.809 74.9791 108.809 75.0898C108.809 75.2006 108.832 75.3101 108.875 75.4118C108.919 75.5136 108.983 75.6053 109.064 75.6814C109.144 75.7575 109.239 75.8164 109.343 75.8546C109.447 75.8927 109.558 75.9093 109.668 75.9032H126.167C126.375 75.8918 126.571 75.8011 126.714 75.6498C126.858 75.4986 126.937 75.2982 126.937 75.0898C126.937 74.8815 126.858 74.6811 126.714 74.5298C126.571 74.3786 126.375 74.2879 126.167 74.2765H109.668Z" fill="#E6E6E6"/>
<path d="M109.668 79.0684C109.558 79.0623 109.447 79.0788 109.343 79.117C109.239 79.1551 109.144 79.214 109.064 79.2902C108.983 79.3663 108.919 79.458 108.875 79.5597C108.832 79.6614 108.809 79.771 108.809 79.8817C108.809 79.9924 108.832 80.102 108.875 80.2037C108.919 80.3054 108.983 80.3971 109.064 80.4733C109.144 80.5494 109.239 80.6083 109.343 80.6465C109.447 80.6846 109.558 80.7011 109.668 80.6951H126.167C126.375 80.6837 126.571 80.593 126.714 80.4417C126.858 80.2904 126.937 80.09 126.937 79.8817C126.937 79.6734 126.858 79.473 126.714 79.3217C126.571 79.1704 126.375 79.0798 126.167 79.0684H109.668Z" fill="#E6E6E6"/>
<path d="M117.919 94.2667C116.906 94.2667 115.916 93.9664 115.074 93.4039C114.232 92.8413 113.576 92.0417 113.189 91.1063C112.801 90.1708 112.7 89.1414 112.897 88.1483C113.095 87.1552 113.582 86.243 114.298 85.527C115.014 84.811 115.927 84.3234 116.92 84.1258C117.913 83.9283 118.942 84.0297 119.878 84.4172C120.813 84.8047 121.613 85.4609 122.175 86.3028C122.738 87.1447 123.038 88.1345 123.038 89.1471C123.038 89.8194 122.906 90.4851 122.648 91.1063C122.391 91.7274 122.014 92.2918 121.539 92.7672C121.063 93.2426 120.499 93.6197 119.878 93.877C119.257 94.1343 118.591 94.2667 117.919 94.2667Z" fill="#00E6D3"/>
<path d="M179.395 1H208.148C208.465 1.00036 208.77 1.12669 208.994 1.35127C209.219 1.57586 209.345 1.88036 209.346 2.19797V32.1426C209.345 32.4602 209.219 32.7647 208.994 32.9893C208.77 33.2139 208.465 33.3402 208.148 33.3405H179.395C179.078 33.3402 178.773 33.2139 178.549 32.9893C178.324 32.7647 178.198 32.4602 178.197 32.1426V2.19797C178.198 1.88036 178.324 1.57586 178.549 1.35127C178.773 1.12669 179.078 1.00036 179.395 1ZM208.148 32.8613C208.338 32.8611 208.521 32.7853 208.656 32.6506C208.79 32.5158 208.866 32.3331 208.866 32.1426V2.19797C208.866 2.00742 208.79 1.82473 208.656 1.68999C208.521 1.55525 208.338 1.47946 208.148 1.47924H179.395C179.205 1.47946 179.022 1.55525 178.887 1.68999C178.753 1.82473 178.677 2.00742 178.677 2.19797V32.1426C178.677 32.3331 178.753 32.5158 178.887 32.6506C179.022 32.7853 179.205 32.8611 179.395 32.8613H208.148Z" fill="#019D91"/>
<path d="M202.021 27.1655C202.132 27.1716 202.242 27.155 202.346 27.1169C202.45 27.0788 202.545 27.0198 202.626 26.9437C202.706 26.8676 202.77 26.7759 202.814 26.6742C202.858 26.5725 202.88 26.4629 202.88 26.3522C202.88 26.2414 202.858 26.1319 202.814 26.0302C202.77 25.9285 202.706 25.8367 202.626 25.7606C202.545 25.6845 202.45 25.6256 202.346 25.5874C202.242 25.5493 202.132 25.5328 202.021 25.5388H185.522C185.411 25.5328 185.301 25.5493 185.197 25.5874C185.093 25.6256 184.998 25.6845 184.917 25.7606C184.837 25.8367 184.773 25.9285 184.729 26.0302C184.685 26.1319 184.663 26.2414 184.663 26.3522C184.663 26.4629 184.685 26.5725 184.729 26.6742C184.773 26.7759 184.837 26.8676 184.917 26.9437C184.998 27.0198 185.093 27.0788 185.197 27.1169C185.301 27.155 185.411 27.1716 185.522 27.1655H202.021Z" fill="#E6E6E6"/>
<path d="M202.021 22.3733C202.132 22.3794 202.242 22.3628 202.346 22.3247C202.45 22.2865 202.545 22.2276 202.626 22.1515C202.706 22.0754 202.77 21.9836 202.814 21.8819C202.858 21.7802 202.88 21.6707 202.88 21.5599C202.88 21.4492 202.858 21.3396 202.814 21.2379C202.77 21.1362 202.706 21.0445 202.626 20.9684C202.545 20.8923 202.45 20.8333 202.346 20.7952C202.242 20.7571 202.132 20.7405 202.021 20.7466H185.522C185.411 20.7405 185.301 20.7571 185.197 20.7952C185.093 20.8333 184.998 20.8923 184.917 20.9684C184.837 21.0445 184.773 21.1362 184.729 21.2379C184.685 21.3396 184.663 21.4492 184.663 21.5599C184.663 21.6707 184.685 21.7802 184.729 21.8819C184.773 21.9836 184.837 22.0754 184.917 22.1515C184.998 22.2276 185.093 22.2865 185.197 22.3247C185.301 22.3628 185.411 22.3794 185.522 22.3733H202.021Z" fill="#E6E6E6"/>
<path d="M193.771 7.17505C194.784 7.17526 195.774 7.4757 196.615 8.03839C197.457 8.60107 198.113 9.40071 198.501 10.3362C198.888 11.2717 198.989 12.3011 198.791 13.2941C198.594 14.2871 198.106 15.1993 197.39 15.9151C196.674 16.631 195.762 17.1185 194.769 17.316C193.776 17.5134 192.746 17.412 191.811 17.0245C190.876 16.6369 190.076 15.9807 189.513 15.1388C188.951 14.297 188.651 13.3072 188.651 12.2947C188.651 11.6222 188.783 10.9564 189.041 10.3352C189.298 9.71401 189.675 9.14958 190.151 8.67416C190.626 8.19875 191.191 7.82166 191.812 7.56444C192.433 7.30722 193.099 7.17491 193.771 7.17505Z" fill="#00E6D3"/>
<path d="M94.8584 62.9507C99.9459 59.0102 105.89 56.323 112.209 55.1066C118.579 53.8928 125.147 54.2303 131.359 56.0906C134.482 57.0204 137.482 58.3204 140.295 59.9628C143.162 61.639 145.753 63.702 148.246 65.8864C150.771 68.0994 153.213 70.4109 155.848 72.4943C163.374 78.5093 172.716 81.7958 182.349 81.8171C183.146 81.8183 183.941 81.7964 184.735 81.7514C185.166 81.7277 185.17 81.0544 184.735 81.078C174.914 81.619 165.216 78.6886 157.338 72.7997C154.606 70.7568 152.112 68.4211 149.565 66.1574C147.096 63.9629 144.561 61.8282 141.76 60.0652C134.908 55.7487 126.937 53.5453 118.841 53.7298C110.745 53.9144 102.883 56.4787 96.2353 61.103C95.6032 61.5426 94.9863 62.0017 94.3784 62.4747C94.0368 62.7405 94.5163 63.2138 94.8543 62.9507H94.8584Z" fill="#CFCFCF"/>
<path d="M94.5012 66.2049C96.4336 66.2049 98.0001 64.6384 98.0001 62.706C98.0001 60.7737 96.4336 59.2072 94.5012 59.2072C92.5688 59.2072 91.0023 60.7737 91.0023 62.706C91.0023 64.6384 92.5688 66.2049 94.5012 66.2049Z" fill="#00E6D3"/>
<path d="M242.993 89.2297H185.903C185.586 89.2293 185.281 89.103 185.057 88.8784C184.832 88.6538 184.706 88.3493 184.705 88.0317V58.3269C184.706 58.0093 184.832 57.7048 185.057 57.4802C185.281 57.2556 185.586 57.1293 185.903 57.1289H242.993C243.311 57.1293 243.616 57.2556 243.84 57.4802C244.065 57.7048 244.191 58.0093 244.191 58.3269V88.0317C244.191 88.3493 244.065 88.6538 243.84 88.8784C243.616 89.103 243.311 89.2293 242.993 89.2297ZM185.903 57.6082C185.713 57.6084 185.53 57.6842 185.395 57.8189C185.261 57.9536 185.185 58.1363 185.185 58.3269V88.0317C185.185 88.2223 185.261 88.405 185.395 88.5397C185.53 88.6745 185.713 88.7502 185.903 88.7505H242.993C243.184 88.7502 243.367 88.6745 243.501 88.5397C243.636 88.405 243.712 88.2223 243.712 88.0317V58.3269C243.712 58.1363 243.636 57.9536 243.501 57.8189C243.367 57.6842 243.184 57.6084 242.993 57.6082H185.903Z" fill="#019D91"/>
<path d="M195.476 72.5317C198.171 72.5317 200.356 70.3468 200.356 67.6516C200.356 64.9564 198.171 62.7715 195.476 62.7715C192.781 62.7715 190.596 64.9564 190.596 67.6516C190.596 70.3468 192.781 72.5317 195.476 72.5317Z" fill="#00E6D3"/>
<path d="M206.747 64.3984C206.539 64.4098 206.343 64.5005 206.2 64.6518C206.057 64.8031 205.977 65.0035 205.977 65.2118C205.977 65.4201 206.057 65.6205 206.2 65.7718C206.343 65.9231 206.539 66.0137 206.747 66.0251H237.488C237.598 66.0312 237.709 66.0147 237.813 65.9765C237.917 65.9384 238.012 65.8795 238.092 65.8033C238.173 65.7272 238.237 65.6355 238.28 65.5338C238.324 65.4321 238.347 65.3225 238.347 65.2118C238.347 65.1011 238.324 64.9915 238.28 64.8898C238.237 64.7881 238.173 64.6964 238.092 64.6202C238.012 64.5441 237.917 64.4852 237.813 64.4471C237.709 64.4089 237.598 64.3924 237.488 64.3984H206.747Z" fill="#E6E6E6"/>
<path d="M206.747 69.2786C206.636 69.2725 206.526 69.289 206.422 69.3272C206.318 69.3653 206.223 69.4243 206.142 69.5004C206.062 69.5765 205.998 69.6682 205.954 69.7699C205.91 69.8716 205.888 69.9812 205.888 70.0919C205.888 70.2027 205.91 70.3122 205.954 70.4139C205.998 70.5156 206.062 70.6074 206.142 70.6835C206.223 70.7596 206.318 70.8185 206.422 70.8567C206.526 70.8948 206.636 70.9113 206.747 70.9053H223.246C223.357 70.9113 223.467 70.8948 223.571 70.8567C223.675 70.8185 223.77 70.7596 223.851 70.6835C223.931 70.6074 223.995 70.5156 224.039 70.4139C224.083 70.3122 224.105 70.2027 224.105 70.0919C224.105 69.9812 224.083 69.8716 224.039 69.7699C223.995 69.6682 223.931 69.5765 223.851 69.5004C223.77 69.4243 223.675 69.3653 223.571 69.3272C223.467 69.289 223.357 69.2725 223.246 69.2786H206.747Z" fill="#E6E6E6"/>
<path d="M191.733 77.0802C191.114 77.0802 190.611 77.4451 190.611 77.8948C190.611 78.3444 191.114 78.7094 191.733 78.7094H237.033C237.651 78.7094 238.155 78.3444 238.155 77.8948C238.155 77.4451 237.651 77.0802 237.033 77.0802H191.733Z" fill="#E6E6E6"/>
<path d="M191.733 81.9603C191.114 81.9603 190.611 82.3253 190.611 82.7749C190.611 83.2245 191.114 83.5895 191.733 83.5895H237.033C237.651 83.5895 238.155 83.2245 238.155 82.7749C238.155 82.3253 237.651 81.9603 237.033 81.9603H191.733Z" fill="#E6E6E6"/>
<path d="M181.314 112.418C184.535 111.021 188.131 112.239 191.167 113.526C192.73 114.19 194.277 114.898 195.895 115.421C197.256 115.861 198.65 116.191 200.064 116.409C202.901 116.843 205.786 116.861 208.627 116.461C211.484 116.063 214.267 115.254 216.892 114.058C219.502 112.875 221.914 111.298 224.044 109.382C224.316 109.137 224.582 108.887 224.842 108.631C225.152 108.327 224.675 107.851 224.366 108.155C222.314 110.154 219.959 111.817 217.387 113.08C214.827 114.34 212.095 115.217 209.28 115.685C206.456 116.161 203.577 116.211 200.738 115.832C199.322 115.641 197.924 115.337 196.556 114.923C194.985 114.412 193.444 113.814 191.94 113.131C188.876 111.815 185.472 110.526 182.105 111.434C181.719 111.541 181.341 111.675 180.975 111.837C180.579 112.009 180.921 112.589 181.315 112.418L181.314 112.418Z" fill="#CFCFCF"/>
<path d="M224.664 112.659C226.596 112.659 228.163 111.093 228.163 109.161C228.163 107.228 226.596 105.662 224.664 105.662C222.732 105.662 221.165 107.228 221.165 109.161C221.165 111.093 222.732 112.659 224.664 112.659Z" fill="#00E6D3"/>
<path d="M236.489 106.549L231.364 109.15C229.535 110.079 227.77 109.92 227.094 107.983C226.933 107.522 226.873 107.032 226.919 106.546C226.966 106.06 227.116 105.589 227.361 105.167C227.606 104.744 227.939 104.38 228.338 104.098C228.737 103.817 229.192 103.624 229.671 103.535L234.542 102.625L255.403 95.7042L268.04 86.7439L272.673 94.1242L258.071 102.003L236.489 106.549Z" fill="#FCC5A7"/>
<path d="M260.413 192.934L256.492 192.28L256.926 184.873H261.066L260.413 192.934Z" fill="#FFB8B8"/>
<path d="M298.47 185.699L294.676 186.883L291.727 180.075L295.421 178.21L298.47 185.699Z" fill="#FFB8B8"/>
<path d="M296.357 179.209L291.564 181.17L268.691 151.108L261.503 186.399L256.71 185.528C253.636 155.103 251.129 124.07 254.205 109.392L271.959 108.63L280.019 134.335L283.94 151.762L296.357 179.209Z" fill="#007256"/>
<path d="M260.198 198.924C259.481 199.077 258.733 198.998 258.065 198.697L255.735 197.649C253.782 197.549 252.452 197.937 251.364 196.518C251.057 196.113 250.865 195.632 250.806 195.127C250.748 194.622 250.825 194.11 251.031 193.645C251.235 193.179 251.56 192.775 251.972 192.475C252.384 192.175 252.868 191.991 253.375 191.94L256.574 189.924L256.742 191.435C258.204 192.264 259.94 191.906 261.78 191.099L262.784 194.614C262.914 195.067 262.949 195.542 262.887 196.009C262.826 196.477 262.669 196.926 262.426 197.33C262.183 197.734 261.86 198.084 261.477 198.358C261.094 198.632 260.658 198.825 260.197 198.924H260.198Z" fill="#E7F5FF"/>
<path d="M300.022 191.714C299.394 192.092 298.662 192.26 297.932 192.192L295.388 191.957C293.508 192.497 292.377 193.297 290.887 192.308C290.465 192.024 290.127 191.632 289.907 191.173C289.688 190.714 289.595 190.205 289.638 189.698C289.68 189.191 289.856 188.703 290.148 188.286C290.44 187.869 290.838 187.537 291.301 187.324L293.672 184.379L294.322 185.754C295.974 186.062 297.499 185.16 298.978 183.8L301.069 186.798C301.338 187.184 301.525 187.622 301.619 188.084C301.712 188.546 301.71 189.022 301.612 189.483C301.513 189.944 301.321 190.38 301.048 190.764C300.774 191.148 300.425 191.471 300.021 191.714H300.022Z" fill="#E7F5FF"/>
<path d="M265.424 77.6952C269.755 77.6952 273.266 74.1842 273.266 69.8531C273.266 65.5219 269.755 62.0109 265.424 62.0109C261.093 62.0109 257.582 65.5219 257.582 69.8531C257.582 74.1842 261.093 77.6952 265.424 77.6952Z" fill="#FCC5A7"/>
<path d="M275.009 86.409L264.77 84.2306L263.463 75.7348L270.652 74.21L275.009 86.409Z" fill="#FCC5A7"/>
<path d="M272.177 109.718H253.878L258.003 99.3627C257.704 95.7995 259.213 93.1787 261.375 90.8971L264.117 84.0126C268.548 81.0967 271.888 81.3145 275.445 85.1017C279.661 91.0731 276.743 100.049 272.177 109.718Z" fill="#F7F3E9"/>
<path d="M263.899 131.72L263.379 137.443C263.193 139.486 262.12 140.897 260.12 140.44C259.644 140.331 259.198 140.121 258.81 139.823C258.423 139.526 258.105 139.148 257.877 138.716C257.65 138.285 257.518 137.809 257.492 137.321C257.465 136.834 257.544 136.346 257.723 135.892L259.543 131.283L264.771 109.935L263.899 94.4681H272.613L271.524 111.024L263.899 131.72Z" fill="#FCC5A7"/>
<path d="M273.266 94.9049H263.247L263.949 88.3679C263.995 87.2372 264.463 86.1646 265.259 85.3608C266.055 84.5569 267.124 84.0799 268.254 84.0235C268.853 83.9935 269.452 84.0826 270.016 84.2856C270.58 84.4887 271.098 84.8016 271.541 85.2063C271.983 85.611 272.341 86.0994 272.594 86.6433C272.846 87.1872 272.988 87.7758 273.012 88.375L273.266 94.9049Z" fill="#F7F3E9"/>
<path d="M275.13 61.7893C276.758 61.7893 278.077 60.4696 278.077 58.8416C278.077 57.2136 276.758 55.8939 275.13 55.8939C273.502 55.8939 272.182 57.2136 272.182 58.8416C272.182 60.4696 273.502 61.7893 275.13 61.7893Z" fill="#536287"/>
<path d="M272.092 58.1202C272.141 57.3723 272.473 56.671 273.02 56.1591C273.567 55.6472 274.289 55.3632 275.039 55.365C274.978 55.3574 274.918 55.3479 274.855 55.3438C274.083 55.3076 273.328 55.5761 272.752 56.0914C272.176 56.6068 271.825 57.3278 271.776 58.0991C271.726 58.8704 271.981 59.6304 272.487 60.2153C272.992 60.8002 273.707 61.1632 274.477 61.2261C274.539 61.2302 274.6 61.2286 274.662 61.2286C273.918 61.1344 273.239 60.7605 272.762 60.183C272.284 59.6055 272.045 58.8678 272.092 58.1202Z" fill="#536287"/>
<path d="M272.076 59.3798C269.447 57.1989 261.907 59.9706 261.42 61.4368C257.865 61.9212 255.174 63.9954 255.174 67.6833C257.287 68.5492 259.691 68.4435 262.289 67.6833C266.432 71.0589 266.715 75.3023 264.196 80.1764L267.296 80.2383L271.137 74.624L271.321 80.319L278.425 80.1764V72.0144C278.448 69.3008 277.823 66.6209 276.603 64.1972C275.496 62.0464 273.778 60.7917 272.076 59.3798Z" fill="#536287"/>
<path d="M265.461 73.7981C266.239 73.7981 266.87 72.9145 266.87 71.8246C266.87 70.7347 266.239 69.8512 265.461 69.8512C264.682 69.8512 264.051 70.7347 264.051 71.8246C264.051 72.9145 264.682 73.7981 265.461 73.7981Z" fill="#FCC5A7"/>
<path d="M88.1002 74.3289C88.1002 74.3289 88.9487 59.6421 93.354 62.9791C97.7592 66.3162 91.4302 75.6908 91.4302 75.6908L88.1002 74.3289Z" fill="#FCC5A7"/>
<path d="M71.7112 117.894C71.7112 117.894 81.4964 128.879 76.0216 129.634C70.5469 130.389 68.3923 119.285 68.3923 119.285L71.7112 117.894Z" fill="#FCC5A7"/>
<path d="M58.9432 65.8951C60.1713 66.2182 61.2766 66.8971 62.1202 67.8463C62.9638 68.7956 63.5081 69.9729 63.6848 71.2305L66.7973 93.3845L71.1607 111.056C71.1607 111.056 73.3424 113.02 72.4698 114.111C71.5971 115.202 73.5607 119.783 73.5607 119.783L68.1063 121.529C68.1063 121.529 67.4517 116.947 66.361 116.729C65.4022 116.537 54.6705 87.8688 52.0839 80.9237C51.7271 79.966 51.5254 79.4214 51.5254 79.4214C51.5254 79.4214 51.9609 64.8043 58.9432 65.8951Z" fill="#E6ECE6"/>
<path d="M59.9387 181.426L63.2877 187.363C65.8821 192.902 63.5766 193.908 57.2156 191.163L55.7656 184.152L59.9387 181.426Z" fill="#FCC5A7"/>
<path d="M61.6293 189.317C61.6293 189.317 63.2196 186.728 63.7949 187.161C64.3703 187.594 66.7426 189.472 66.7426 189.472L69.8328 192.432C69.8328 192.432 80.2738 193.536 73.6394 197.194C67.0049 200.853 63.3385 197.819 63.3385 197.819C63.3385 197.819 54.0464 198.302 54.1963 195.71C54.3461 193.117 57.343 189.015 57.343 189.015C57.343 189.015 61.1199 191.549 61.6293 189.317Z" fill="#E7F5FF"/>
<path d="M53.6568 181.426L50.7243 189.173L44.0774 186.394L47.5847 180.589L53.6568 181.426Z" fill="#FCC5A7"/>
<path d="M48.7667 186.564C48.7667 186.564 51.2602 185.006 51.5719 185.629C51.8836 186.252 53.1301 188.901 53.1301 188.901L54.5326 192.797C54.5326 192.797 63.1035 198.251 55.7791 198.563C48.4548 198.875 46.585 194.667 46.585 194.667C46.585 194.667 38.3258 191.083 39.5724 188.901C40.8189 186.72 45.1823 184.457 45.1823 184.457C45.1823 184.457 47.364 188.278 48.7667 186.564Z" fill="#E7F5FF"/>
<path d="M45.0723 114.318L48.213 152.323C48.213 152.323 48.3178 175.041 51.6679 179.438C55.018 183.836 55.1228 186.033 55.1228 186.033L62.0325 182.473C62.0325 182.473 58.4731 176.542 59.2057 175.634C59.6574 175.058 59.9789 174.391 60.1479 173.679L58.2635 150.228L61.8232 109.397L45.0723 114.318Z" fill="#004145"/>
<path d="M71.6644 114.422L73.3395 149.39C73.3395 149.39 58.0542 181.007 56.3792 181.845C55.8801 182.103 55.4376 182.458 55.078 182.89C54.7184 183.321 54.4489 183.82 54.2855 184.358L45.0726 182.054L49.2604 175.354L58.4732 152.95C58.4732 152.95 59.9394 152.322 60.3576 150.228C60.7757 148.134 61.6139 148.134 59.5199 147.715C57.4259 147.296 57.4262 145.202 57.4262 145.202L50.5164 113.376L71.6644 114.422Z" fill="#004145"/>
<path d="M72.3938 52.5291C73.1347 47.9632 70.0339 43.6612 65.468 42.9203C60.9021 42.1794 56.6 45.2802 55.8591 49.8461C55.1182 54.412 58.219 58.714 62.7849 59.4549C67.3508 60.1958 71.6529 57.0951 72.3938 52.5291Z" fill="#FCC5A7"/>
<path d="M56.6931 51.7117C56.6931 51.7117 56.0651 62.3902 55.2269 63.4372C54.3887 64.4842 64.021 64.2749 64.021 64.2749C64.021 64.2749 63.393 55.2714 64.021 54.4337C64.6491 53.5961 56.6931 51.7117 56.6931 51.7117Z" fill="#FCC5A7"/>
<path d="M59.7511 53.656C60.4595 53.6136 61.1511 53.8531 61.8543 53.9465C64.3708 54.2805 66.9889 52.4545 67.5444 49.9773C67.589 49.6475 67.6873 49.3272 67.8355 49.0292C68.2227 48.3968 69.1049 48.2762 69.832 48.4218C70.5592 48.5673 71.2486 48.9075 71.989 48.9464C73.1324 49.0064 74.2302 48.3026 74.84 47.3332C75.4159 46.3332 75.6608 45.1767 75.5397 44.029L74.9904 44.6041C74.7677 44.1329 74.6817 43.6086 74.7423 43.0909C74.4518 43.0136 74.1464 43.0121 73.8552 43.0866C73.564 43.1611 73.2968 43.3091 73.0792 43.5164C72.5959 43.5677 72.9605 42.6204 72.6016 42.2924C72.4269 42.1853 72.2188 42.1467 72.0173 42.1838C70.989 42.1938 70.1573 41.4072 69.3471 40.774C67.9432 39.6795 66.3015 38.9306 64.5547 38.588C63.3936 38.3615 62.159 38.3251 61.058 38.7574C60.1688 39.1563 59.3663 39.7253 58.6957 40.4324C56.9718 42.0887 55.4453 44.0377 54.7282 46.3191C54.1452 48.1878 54.1286 50.1873 54.6806 52.0654C54.9695 53.0407 55.8406 56.381 57.1154 56.4587C58.7188 56.5559 57.757 53.7749 59.7511 53.656Z" fill="#3F4D6D"/>
<path d="M72.2917 116.726C72.2917 116.726 48.631 114.632 44.235 116.726C44.235 116.726 45.8533 110.722 45.4351 110.095C45.131 109.636 45.97 92.5356 45.7067 82.6711C45.5573 77.1048 44.273 71.6689 48.0065 67.5363C49.2772 66.1325 50.6946 64.9541 52.1907 64.3785C52.1907 64.3785 51.7725 60.4006 53.866 60.1915C53.866 60.1915 61.8244 59.3525 64.7541 61.8669C65.6909 62.6651 66.2801 65.098 66.3426 67.1942C64.8926 74.3244 65.4058 82.2367 66.7363 90.4449C66.8177 90.9662 66.9073 91.4902 66.9969 92.0143C68.4089 100.155 70.5431 108.548 72.2917 116.726Z" fill="#F8F1F1"/>
<path d="M63.2179 66.923L66.2186 67.2445C66.2186 67.2445 69.1641 72.9592 68.9501 74.151C68.7361 75.3427 68.2713 74.6194 69.5961 76.5263C70.9208 78.4332 74.6839 83.3627 75.1496 84.0863C75.6152 84.81 88.3155 75.12 87.5259 72.2169C87.5259 72.2169 91.5369 75.0951 93.2551 75.4774C93.2551 75.4774 80.1676 92.6426 78.3427 94.8393C76.5178 97.0359 75.0507 96.5849 72.5443 95.2824C70.0378 93.9799 57.3571 80.9882 57.3571 80.9882L63.2179 66.923Z" fill="#F8F1F1"/>
<path opacity="0.1" d="M66.997 92.0148L56.5677 81.5855L59.207 80.7247L66.7364 90.4453C66.8176 90.9667 66.9074 91.4907 66.997 92.0148Z" fill="black"/>
<path d="M180.902 104.005H180.673V97.7522C180.673 97.277 180.58 96.8063 180.398 96.3672C180.216 95.9281 179.949 95.5292 179.613 95.1931C179.277 94.857 178.878 94.5904 178.439 94.4086C178 94.2267 177.529 94.1331 177.054 94.1331H163.806C162.846 94.1331 161.926 94.5144 161.247 95.1931C160.568 95.8718 160.187 96.7924 160.187 97.7522V132.057C160.187 133.017 160.568 133.938 161.247 134.616C161.926 135.295 162.846 135.676 163.806 135.676H177.054C178.014 135.676 178.934 135.295 179.613 134.616C180.292 133.938 180.673 133.017 180.673 132.057V108.456H180.901L180.902 104.005Z" fill="#3F3D56"/>
<path d="M179.903 97.9647V132.22C179.903 132.937 179.618 133.624 179.111 134.131C178.604 134.638 177.917 134.923 177.2 134.923H163.888C163.533 134.923 163.182 134.853 162.854 134.717C162.526 134.581 162.228 134.382 161.977 134.131C161.726 133.88 161.527 133.582 161.392 133.254C161.256 132.926 161.186 132.575 161.186 132.22V97.9647C161.186 97.2482 161.471 96.5609 161.978 96.0542C162.484 95.5475 163.172 95.2628 163.888 95.2628H165.503C165.424 95.4578 165.394 95.6692 165.415 95.8786C165.437 96.0879 165.51 96.2887 165.627 96.4634C165.745 96.638 165.903 96.7811 166.089 96.8802C166.274 96.9792 166.482 97.0311 166.692 97.0314H174.282C174.493 97.0318 174.7 96.9803 174.886 96.8814C175.072 96.7825 175.231 96.6393 175.348 96.4645C175.466 96.2897 175.539 96.0886 175.56 95.879C175.581 95.6694 175.551 95.4578 175.471 95.2628H177.2C177.917 95.2628 178.604 95.5474 179.111 96.0541C179.618 96.5608 179.903 97.248 179.903 97.9647Z" fill="white"/>
<path d="M177.383 112.801H161.909V116.976H177.383V112.801Z" fill="#00E6D3"/>
<path d="M177.997 116.239H163.014C162.916 116.239 162.822 116.201 162.753 116.131C162.684 116.062 162.645 115.969 162.645 115.871V112.187C162.645 112.089 162.684 111.995 162.753 111.926C162.822 111.857 162.916 111.818 163.014 111.818H177.997C178.095 111.818 178.188 111.857 178.258 111.926C178.327 111.995 178.365 112.089 178.365 112.187V115.871C178.365 115.969 178.327 116.062 178.258 116.131C178.188 116.201 178.095 116.239 177.997 116.239ZM163.014 112.064C162.981 112.064 162.95 112.077 162.927 112.1C162.904 112.123 162.891 112.154 162.891 112.187V115.871C162.891 115.904 162.904 115.935 162.927 115.958C162.95 115.981 162.981 115.994 163.014 115.994H177.997C178.03 115.994 178.061 115.981 178.084 115.958C178.107 115.935 178.12 115.904 178.12 115.871V112.187C178.12 112.154 178.107 112.123 178.084 112.1C178.061 112.077 178.03 112.064 177.997 112.064H163.014Z" fill="#3F3D56"/>
<path d="M165.593 115.134H163.628V115.38H165.593V115.134Z" fill="#3F3D56"/>
<path d="M168.295 115.134H166.33V115.38H168.295V115.134Z" fill="#3F3D56"/>
<path d="M170.997 115.134H169.032V115.38H170.997V115.134Z" fill="#3F3D56"/>
<path d="M173.699 115.134H171.734V115.38H173.699V115.134Z" fill="#3F3D56"/>
<path d="M176.4 115.134H174.435V115.38H176.4V115.134Z" fill="#3F3D56"/>
<path opacity="0.07" d="M179.903 128.737V132.22C179.903 132.937 179.618 133.624 179.111 134.131C178.604 134.638 177.917 134.923 177.2 134.923H163.888C163.533 134.923 163.182 134.853 162.854 134.717C162.526 134.581 162.228 134.382 161.977 134.131C161.726 133.88 161.527 133.582 161.392 133.254C161.256 132.927 161.186 132.575 161.186 132.22V116.198L179.903 128.737Z" fill="black"/>
<path d="M168.295 103.835C169.041 103.835 169.646 103.231 169.646 102.484C169.646 101.738 169.041 101.133 168.295 101.133C167.549 101.133 166.944 101.738 166.944 102.484C166.944 103.231 167.549 103.835 168.295 103.835Z" fill="#00C9A4"/>
<path d="M174.927 130.977C175.673 130.977 176.278 130.372 176.278 129.626C176.278 128.88 175.673 128.275 174.927 128.275C174.181 128.275 173.576 128.88 173.576 129.626C173.576 130.372 174.181 130.977 174.927 130.977Z" fill="#00C9A4"/>
<path d="M111.068 14.5763L111.068 14.9017L102.156 14.9017C101.478 14.9017 100.807 15.0351 100.182 15.2944C99.5557 15.5536 98.987 15.9336 98.508 16.4126C98.029 16.8916 97.649 17.4603 97.3897 18.0862C97.1305 18.712 96.9971 19.3829 96.9971 20.0603L96.9971 38.9434C96.9971 40.3115 97.5406 41.6236 98.508 42.591C99.4754 43.5584 100.788 44.1019 102.156 44.1019L151.052 44.1019C152.42 44.1019 153.732 43.5584 154.7 42.591C155.667 41.6236 156.21 40.3115 156.21 38.9434L156.21 20.0605C156.21 18.6923 155.667 17.3802 154.7 16.4128C153.732 15.4454 152.42 14.9019 151.052 14.9019L117.413 14.9019L117.413 14.5765L111.068 14.5763Z" fill="#3F3D56"/>
<path d="M102.459 15.9996L151.284 15.9996C152.306 15.9996 153.286 16.4055 154.008 17.128C154.731 17.8506 155.137 18.8305 155.137 19.8523L155.137 38.8262C155.137 39.3321 155.037 39.8329 154.843 40.3003C154.65 40.7676 154.366 41.1922 154.008 41.5498C153.65 41.9075 153.226 42.1911 152.758 42.3846C152.291 42.578 151.79 42.6775 151.284 42.6773L102.459 42.6773C101.437 42.6773 100.458 42.2716 99.7355 41.5494C99.0133 40.8271 98.6075 39.8476 98.6075 38.8262L98.6075 36.5243C98.8854 36.6372 99.1868 36.6802 99.4851 36.6494C99.7835 36.6186 100.07 36.5149 100.319 36.3476C100.568 36.1803 100.772 35.9543 100.913 35.6897C101.054 35.425 101.128 35.1297 101.128 34.8298L101.128 24.0117C101.129 23.7114 101.055 23.4156 100.915 23.1504C100.774 22.8853 100.57 22.6589 100.32 22.4914C100.071 22.3239 99.7845 22.2204 99.4857 22.19C99.187 22.1596 98.8854 22.2033 98.6075 22.3172L98.6075 19.8525C98.6075 18.8309 99.0132 17.8511 99.7354 17.1286C100.458 16.4061 101.437 16 102.459 15.9996Z" fill="white"/>
<path d="M123.605 19.5914L123.605 41.6478L129.557 41.6478L129.557 19.5914L123.605 19.5914Z" fill="#00E5D3"/>
<path d="M128.506 18.7162L128.506 40.0724C128.506 40.2117 128.451 40.3453 128.352 40.4438C128.254 40.5423 128.12 40.5976 127.981 40.5976L122.729 40.5976C122.59 40.5976 122.457 40.5423 122.358 40.4438C122.26 40.3453 122.204 40.2117 122.204 40.0724L122.204 18.7162C122.204 18.577 122.26 18.4434 122.358 18.3449C122.457 18.2464 122.59 18.1911 122.729 18.1911L127.981 18.1911C128.12 18.1911 128.254 18.2464 128.352 18.3449C128.451 18.4434 128.506 18.577 128.506 18.7162ZM122.554 40.0724C122.554 40.1189 122.573 40.1634 122.606 40.1962C122.639 40.229 122.683 40.2475 122.729 40.2475L127.981 40.2475C128.027 40.2475 128.072 40.229 128.105 40.1962C128.138 40.1634 128.156 40.1189 128.156 40.0724L128.156 18.7162C128.156 18.6698 128.138 18.6253 128.105 18.5925C128.072 18.5596 128.027 18.5412 127.981 18.5412L122.729 18.5412C122.683 18.5412 122.639 18.5596 122.606 18.5925C122.573 18.6253 122.554 18.6698 122.554 18.7162L122.554 40.0724Z" fill="#3F3D56"/>
<path d="M126.931 36.3962L126.931 39.197L127.281 39.197L127.281 36.3962L126.931 36.3962Z" fill="#3F3D56"/>
<path d="M126.931 32.5451L126.931 35.3459L127.281 35.3459L127.281 32.5451L126.931 32.5451Z" fill="#3F3D56"/>
<path d="M126.931 28.6941L126.931 31.4949L127.281 31.4949L127.281 28.6941L126.931 28.6941Z" fill="#3F3D56"/>
<path d="M126.931 24.843L126.931 27.6438L127.281 27.6438L127.281 24.843L126.931 24.843Z" fill="#3F3D56"/>
<path d="M126.931 20.9918L126.931 23.7926L127.281 23.7926L127.281 20.9918L126.931 20.9918Z" fill="#3F3D56"/>
<path opacity="0.06" d="M146.319 15.9996L151.284 15.9996C152.306 15.9996 153.286 16.4055 154.008 17.1281C154.731 17.8506 155.137 18.8305 155.137 19.8523L155.137 38.8262C155.137 39.332 155.037 39.8329 154.844 40.3002C154.65 40.7676 154.366 41.1922 154.008 41.5498C153.651 41.9074 153.226 42.1911 152.759 42.3845C152.291 42.578 151.79 42.6775 151.284 42.6773L128.447 42.6773L146.319 15.9996Z" fill="black"/>
<path d="M110.826 32.5449C110.826 31.4814 109.964 30.6193 108.901 30.6193C107.837 30.6193 106.975 31.4814 106.975 32.5449C106.975 33.6084 107.837 34.4705 108.901 34.4705C109.964 34.4705 110.826 33.6084 110.826 32.5449Z" fill="#00C9A4"/>
<path d="M149.512 23.0925C149.512 22.029 148.65 21.1669 147.587 21.1669C146.523 21.1669 145.661 22.029 145.661 23.0925C145.661 24.1559 146.523 25.0181 147.587 25.0181C148.65 25.0181 149.512 24.1559 149.512 23.0925Z" fill="#00C9A4"/>
<path d="M320.364 196.121C320.472 196.126 320.58 196.097 320.671 196.037C320.763 195.977 320.835 195.889 320.876 195.785C320.918 195.682 320.928 195.567 320.905 195.458C320.882 195.348 320.827 195.248 320.747 195.172L320.711 195.023L320.726 194.987C320.835 194.72 321.018 194.493 321.251 194.333C321.485 194.174 321.758 194.089 322.038 194.09C322.318 194.091 322.591 194.178 322.824 194.339C323.056 194.501 323.237 194.73 323.344 194.997C323.772 196.065 324.318 197.135 324.452 198.265C324.511 198.764 324.486 199.27 324.378 199.761C325.384 197.488 325.906 195.019 325.91 192.519C325.91 191.892 325.876 191.265 325.809 190.641C325.753 190.131 325.676 189.624 325.577 189.119C325.038 186.386 323.881 183.824 322.2 181.644C321.386 181.185 320.728 180.478 320.315 179.619C320.165 179.31 320.059 178.981 320 178.641C320.178 178.154 320.272 177.638 320.277 177.117C320.405 176.916 320.634 176.816 320.773 176.622C321.468 175.647 322.424 175.817 322.925 177.142C323.992 177.7 324.002 178.627 323.347 179.515C322.931 180.081 322.873 180.847 322.508 181.453C322.546 181.503 322.585 181.551 322.622 181.601C323.31 182.517 323.909 183.5 324.411 184.536C324.289 183.375 324.435 182.2 324.837 181.109C325.244 180.091 326.007 179.235 326.679 178.355C326.857 178.119 327.098 177.942 327.373 177.848C327.648 177.754 327.943 177.746 328.222 177.826C328.501 177.906 328.75 178.069 328.939 178.296C329.129 178.522 329.249 178.802 329.284 179.099L329.288 179.138C329.188 179.196 329.091 179.258 328.995 179.323C328.875 179.407 328.783 179.525 328.729 179.664C328.675 179.803 328.663 179.955 328.695 180.101C328.726 180.246 328.799 180.379 328.904 180.481C329.009 180.583 329.141 180.65 329.284 180.674L329.299 180.676C329.263 181.048 329.2 181.418 329.111 181.781C329.973 185.234 328.111 186.491 325.453 186.548C325.395 186.579 325.337 186.61 325.279 186.638C325.784 188.119 326.101 189.662 326.221 191.228C326.289 192.152 326.285 193.08 326.209 194.003L326.213 193.97C326.406 192.944 326.935 192.017 327.71 191.348C328.862 190.368 330.492 190.007 331.733 189.219C331.865 189.132 332.018 189.085 332.175 189.085C332.332 189.084 332.486 189.13 332.618 189.217C332.751 189.305 332.856 189.429 332.923 189.576C332.989 189.723 333.013 189.887 332.993 190.048L332.988 190.082C332.802 190.161 332.622 190.251 332.448 190.353C332.348 190.411 332.25 190.473 332.154 190.538C332.035 190.622 331.942 190.74 331.888 190.879C331.835 191.018 331.823 191.17 331.854 191.315C331.885 191.461 331.958 191.594 332.063 191.696C332.168 191.798 332.301 191.865 332.443 191.888L332.458 191.891L332.488 191.895C332.171 192.678 331.727 193.398 331.175 194.025C330.635 197.04 328.32 197.326 325.843 196.448C325.572 197.671 325.179 198.861 324.67 200H320.472C320.457 199.952 320.444 199.902 320.429 199.854C320.817 199.879 321.208 199.855 321.59 199.782C321.279 199.387 320.968 198.987 320.656 198.592C320.649 198.584 320.643 198.577 320.637 198.568C320.478 198.366 320.319 198.163 320.161 197.962C320.153 197.341 320.221 196.721 320.366 196.117L320.364 196.121Z" fill="#6ABD82"/>
<path d="M24.6078 195.959C24.4912 195.965 24.3757 195.934 24.277 195.872C24.1783 195.809 24.1012 195.718 24.0562 195.61C24.0111 195.502 24.0003 195.383 24.0251 195.269C24.05 195.154 24.1093 195.05 24.1951 194.971L24.2339 194.816L24.2185 194.778C24.101 194.5 23.9041 194.264 23.6526 194.097C23.4012 193.931 23.1063 193.843 22.805 193.844C22.5037 193.845 22.2094 193.935 21.9592 194.104C21.7089 194.272 21.5138 194.51 21.3984 194.789C20.9369 195.901 20.3501 197.016 20.2054 198.192C20.1418 198.713 20.1687 199.24 20.285 199.751C19.2018 197.384 18.6393 194.811 18.6358 192.207C18.6356 191.554 18.6718 190.901 18.7444 190.251C18.8043 189.72 18.8874 189.192 18.9938 188.666C19.5744 185.819 20.8209 183.15 22.631 180.879C23.5071 180.401 24.2156 179.664 24.6612 178.77C24.8226 178.448 24.9367 178.105 25 177.751C24.808 177.243 24.7071 176.706 24.7019 176.164C24.5643 175.954 24.3177 175.85 24.1674 175.648C23.4187 174.632 22.3891 174.809 21.8504 176.19C20.7011 176.771 20.6898 177.737 21.3951 178.662C21.8439 179.251 21.9056 180.049 22.2992 180.681C22.2585 180.733 22.2164 180.783 22.1761 180.835C21.4357 181.788 20.7904 182.812 20.2494 183.892C20.381 182.682 20.224 181.459 19.7913 180.322C19.3528 179.262 18.531 178.37 17.807 177.453C17.6155 177.207 17.3555 177.023 17.0599 176.925C16.7642 176.827 16.4461 176.819 16.1459 176.902C15.8456 176.985 15.5766 177.155 15.3729 177.391C15.1692 177.627 15.0399 177.918 15.0014 178.228L14.9972 178.268C15.1048 178.329 15.2101 178.393 15.3131 178.462C15.442 178.549 15.5418 178.672 15.5995 178.817C15.6572 178.961 15.6701 179.12 15.6365 179.271C15.6029 179.423 15.5244 179.561 15.4111 179.668C15.2979 179.774 15.1553 179.844 15.0019 179.868L14.986 179.871C15.0243 180.259 15.0921 180.644 15.1886 181.021C14.2601 184.618 16.265 185.928 19.1272 185.988C19.1904 186.02 19.2522 186.052 19.3144 186.081C18.7709 187.624 18.43 189.232 18.3003 190.863C18.2269 191.825 18.2312 192.792 18.3134 193.753L18.3087 193.719C18.1013 192.65 17.5318 191.685 16.6965 190.987C15.4558 189.966 13.7013 189.591 12.3648 188.77C12.2225 188.679 12.0572 188.63 11.8883 188.63C11.7193 188.629 11.5538 188.677 11.4111 188.768C11.2685 188.859 11.1548 188.989 11.0833 189.142C11.0118 189.295 10.9855 189.466 11.0076 189.634L11.0132 189.669C11.2128 189.751 11.4071 189.845 11.5949 189.951C11.7026 190.011 11.8079 190.076 11.9108 190.144C12.0397 190.231 12.1396 190.354 12.1973 190.499C12.2549 190.643 12.2678 190.802 12.2342 190.954C12.2006 191.105 12.1221 191.244 12.0089 191.35C11.8957 191.457 11.753 191.526 11.5996 191.55L11.5837 191.553L11.5514 191.557C11.8922 192.373 12.3706 193.123 12.9657 193.776C13.5464 196.917 16.0399 197.214 18.7079 196.3C19 197.574 19.4234 198.814 19.9715 200H24.4918C24.5081 199.95 24.5226 199.898 24.5386 199.848C24.1201 199.874 23.7 199.849 23.2876 199.773C23.6232 199.361 23.9583 198.945 24.2938 198.533C24.3013 198.525 24.3083 198.517 24.3149 198.509C24.4852 198.298 24.657 198.087 24.8268 197.877C24.8361 197.23 24.762 196.584 24.6064 195.955L24.6078 195.959Z" fill="#6ABD82"/>
<path d="M6.0439 199.806L338.015 199.91C338.279 199.907 338.529 199.863 338.713 199.788C338.897 199.713 339 199.612 339 199.507C339 199.402 338.897 199.302 338.713 199.226C338.529 199.151 338.279 199.107 338.015 199.104L6.0439 199C5.90825 198.999 5.7732 199.008 5.64673 199.027C5.52026 199.047 5.40495 199.076 5.30761 199.114C5.21028 199.151 5.1329 199.196 5.08006 199.246C5.02723 199.296 5 199.349 5 199.403C5 199.457 5.02723 199.51 5.08006 199.56C5.1329 199.61 5.21028 199.654 5.30761 199.692C5.40495 199.73 5.52026 199.759 5.64673 199.779C5.7732 199.798 5.90825 199.807 6.0439 199.806V199.806Z" fill="#CACACA"/>
</svg>
