<svg width="28" height="26" viewBox="0 0 28 26" fill="none" xmlns="http://www.w3.org/2000/svg">
<path d="M23.2627 11.8434V2.80723C23.2627 2.32793 23.0723 1.86825 22.7334 1.52933C22.3945 1.1904 21.9348 1 21.4555 1H3.38316C2.90385 1 2.44418 1.1904 2.10525 1.52933C1.76633 1.86825 1.57593 2.32793 1.57593 2.80723V20.8796C1.57593 21.3589 1.76633 21.8186 2.10525 22.1575C2.44418 22.4964 2.90385 22.6868 3.38316 22.6868H12.4193" stroke="white" stroke-width="2" stroke-linecap="round" stroke-linejoin="round"/>
<path d="M20.5518 23.5904C22.5481 23.5904 24.1663 21.9722 24.1663 19.976C24.1663 17.9798 22.5481 16.3615 20.5518 16.3615C18.5556 16.3615 16.9374 17.9798 16.9374 19.976C16.9374 21.9722 18.5556 23.5904 20.5518 23.5904Z" stroke="white" stroke-width="1.5"/>
<path d="M23.5638 22.3856L26.5759 24.7953" stroke="white" stroke-width="1.5" stroke-linecap="round" stroke-linejoin="round"/>
<path d="M16.9375 7.3646V6.42169H8.80493V7.3646H11.6005C12.1615 7.36612 12.7022 7.55926 13.1195 7.90711C13.5367 8.25496 13.8011 8.73317 13.8624 9.25041H8.80493V10.1933H13.8624C13.8011 10.7106 13.5367 11.1888 13.1195 11.5366C12.7022 11.8845 12.1615 12.0776 11.6005 12.0791H8.80493V13.1847L13.6931 17.2651L14.3732 16.5645L10.1295 13.022H11.6005C12.4321 13.0209 13.2327 12.7291 13.8427 12.2049C14.4527 11.6806 14.8272 10.9623 14.8916 10.1933H16.9375V9.25041H14.8916C14.8333 8.54249 14.5107 7.8756 13.9793 7.3646H16.9375Z" fill="#00E5D3"/>
</svg>
