<svg width="291" height="211" viewBox="0 0 291 211" fill="none" xmlns="http://www.w3.org/2000/svg">
<path opacity="0.45" d="M124.588 197.33C179.079 197.33 223.253 153.156 223.253 98.665C223.253 44.1738 179.079 0 124.588 0C70.0965 0 25.9227 44.1738 25.9227 98.665C25.9227 153.156 70.0965 197.33 124.588 197.33Z" fill="#30D5AD"/>
<path opacity="0.45" d="M39.1486 211C60.7697 211 78.2971 208.196 78.2971 204.736C78.2971 201.277 60.7697 198.472 39.1486 198.472C17.5274 198.472 0 201.277 0 204.736C0 208.196 17.5274 211 39.1486 211Z" fill="#30D5AD"/>
<path opacity="0.45" d="M230.13 204.633C263.585 204.633 290.705 200.294 290.705 194.941C290.705 189.588 263.585 185.249 230.13 185.249C196.676 185.249 169.556 189.588 169.556 194.941C169.556 200.294 196.676 204.633 230.13 204.633Z" fill="#30D5AD"/>
<path d="M216.672 101.782C216.672 101.782 217.187 103.502 214.264 105.049C211.341 106.596 210.482 112.441 213.921 114.16C217.359 115.879 218.391 118.113 216.672 119.662C214.952 121.21 211.857 125.334 215.984 126.366C220.11 127.397 220.625 129.461 219.422 130.32C218.22 131.178 222.173 128.772 222.173 128.772C222.173 128.772 222.861 132.899 226.471 131.867C230.081 130.836 240.223 111.239 235.066 108.488C229.909 105.738 216.672 101.782 216.672 101.782Z" fill="#21325E"/>
<path d="M222.902 118.382C222.902 118.382 224.685 124.623 221.565 125.068C219.629 125.37 217.794 126.134 216.217 127.296L222.012 134.874H232.711L239.398 128.188C239.398 128.188 230.482 121.501 232.265 117.489C234.048 113.476 222.902 118.382 222.902 118.382Z" fill="#FFB9B9"/>
<path d="M222.902 118.382C222.902 118.382 224.685 124.623 221.565 125.068C219.629 125.37 217.794 126.134 216.217 127.296L222.012 134.874H232.711L239.398 128.188C239.398 128.188 230.482 121.501 232.265 117.489C234.048 113.476 222.902 118.382 222.902 118.382Z" fill="#FCC5A7"/>
<path d="M225.577 195.949L235.83 199.515L242.963 199.961L242.517 193.72L227.806 189.368L225.577 195.949Z" fill="#FCC5A7"/>
<path d="M238.727 194.612C238.727 194.612 238.727 200.853 239.619 200.853C240.51 200.853 252.547 199.515 256.113 200.853C259.679 202.19 265.029 197.286 262.354 194.612C259.679 191.937 255.316 187.925 252.593 188.816C249.87 189.708 238.727 191.937 238.727 191.937V194.612Z" fill="#E0E4E3"/>
<path d="M205.962 188.816C205.962 188.816 200.613 199.515 204.179 200.407C207.746 201.299 211.758 199.961 212.203 199.515C212.649 199.069 218.89 197.286 219.782 198.178C220.673 199.069 220.673 194.612 220.673 194.612L205.962 188.816Z" fill="#E0E4E3"/>
<path d="M224.428 149.412C224.428 149.412 214.415 102.487 151.745 68.4464" stroke="#30D5AD" stroke-miterlimit="10"/>
<path d="M210.42 174.105C210.42 174.105 201.95 185.696 208.191 188.816C214.432 191.937 244.3 191.938 246.529 188.816C248.758 185.695 249.65 175.888 246.529 174.997C243.408 174.105 210.42 174.105 210.42 174.105Z" fill="#2F2E41"/>
<path opacity="0.2" d="M210.42 174.105C210.42 174.105 201.95 185.696 208.191 188.816C214.432 191.937 244.3 191.938 246.529 188.816C248.758 185.695 249.65 175.888 246.529 174.997C243.408 174.105 210.42 174.105 210.42 174.105Z" fill="black"/>
<path d="M226.468 121.502C232.131 121.502 236.722 116.911 236.722 111.248C236.722 105.586 232.131 100.995 226.468 100.995C220.806 100.995 216.215 105.586 216.215 111.248C216.215 116.911 220.806 121.502 226.468 121.502Z" fill="#FCC5A7"/>
<path d="M210.42 127.297L219.336 125.514C219.336 125.514 221.565 132.646 228.698 131.309C235.83 129.971 237.613 125.514 237.613 125.514C237.613 125.514 242.963 127.743 243.409 127.743C243.854 127.743 249.65 129.971 249.65 131.309C249.65 132.646 242.963 146.02 242.963 146.02L243.855 170.093L210.866 169.201L213.095 145.575L210.42 127.297Z" fill="#F3ACE4"/>
<path d="M205.516 138.888C205.516 138.888 202.841 162.515 204.625 164.298C206.408 166.081 213.54 170.984 213.54 170.984V165.635L209.974 158.948L213.54 143.346L205.516 138.888Z" fill="#FFB9B9"/>
<path d="M251.657 138.219C251.657 138.219 250.096 162.515 250.096 163.406C250.096 164.298 246.084 167.418 244.746 167.418C243.409 167.418 242.517 165.189 242.517 165.189L245.639 161.623L243.41 143.345L251.657 138.219Z" fill="#FFB9B9"/>
<path d="M247.421 172.322C247.421 172.322 267.481 161.177 267.927 172.322C268.373 183.466 257.674 187.924 257.674 187.924C257.674 187.924 230.035 196.212 228.921 193.183C227.807 190.153 225.577 185.25 227.36 184.804C229.143 184.358 231.372 183.466 232.264 184.358C233.155 185.25 244.299 177.671 244.299 177.671L247.421 172.322Z" fill="#2F2E41"/>
<path opacity="0.2" d="M256.783 170.985C256.783 170.985 252.771 172.768 251.433 174.106C250.096 175.444 244.301 177.672 244.301 177.672" stroke="black" stroke-miterlimit="10"/>
<path d="M213.095 128.188L210.42 127.296C210.42 127.296 200.613 137.549 203.733 140.224C206.854 142.899 208.637 143.79 209.529 144.682C210.42 145.574 214.878 146.019 214.878 146.019L213.095 128.188Z" fill="#F3ACE4"/>
<path d="M245.638 130.418L249.65 131.309C249.65 131.309 252.771 137.996 253.662 138.888C254.553 139.78 252.325 139.334 250.987 141.117C249.65 142.9 248.312 146.02 245.638 146.02C242.963 146.02 239.396 141.562 239.396 141.562L245.638 130.418Z" fill="#F3ACE4"/>
<path d="M211.312 176.334C211.312 176.334 194.372 164.298 188.576 173.212C182.781 182.126 213.541 194.164 217.999 195.948C222.457 197.731 226.469 199.514 226.469 199.514C226.469 199.514 230.481 189.706 230.481 187.923C230.481 186.14 227.36 186.14 226.469 186.14C225.578 186.14 221.565 185.248 220.673 183.911C219.782 182.574 211.312 176.334 211.312 176.334Z" fill="#2F2E41"/>
<path opacity="0.2" d="M201.95 173.213C201.95 173.213 206.408 176.78 210.42 177.671C214.432 178.563 215.77 180.793 215.77 180.793" stroke="black" stroke-miterlimit="10"/>
<path d="M208.237 156.452L208.593 175.327C208.604 175.95 208.862 176.544 209.31 176.978C209.757 177.412 210.358 177.652 210.982 177.645L246.107 177.25C246.706 177.244 247.279 177.01 247.712 176.597C248.145 176.183 248.405 175.621 248.439 175.024L249.506 156.543C249.524 156.222 249.477 155.901 249.367 155.598C249.257 155.296 249.086 155.019 248.865 154.785C248.644 154.551 248.378 154.365 248.082 154.238C247.787 154.11 247.469 154.045 247.147 154.045H210.599C210.285 154.045 209.974 154.107 209.685 154.229C209.395 154.35 209.133 154.528 208.913 154.752C208.693 154.976 208.52 155.242 208.404 155.534C208.287 155.826 208.231 156.138 208.237 156.452V156.452Z" fill="white"/>
<path d="M227.016 98.3689C227.016 98.3689 227.588 100.273 224.35 101.987C221.113 103.701 220.16 110.176 223.969 112.08C227.778 113.984 228.92 116.46 227.016 118.174C225.112 119.888 221.684 124.459 226.254 125.601C230.825 126.743 231.396 129.029 230.063 129.981C228.731 130.933 233.11 128.267 233.11 128.267C233.11 128.267 233.872 132.837 237.872 131.695C241.871 130.552 245.86 109.782 241.403 104.433C237.258 99.4587 227.016 98.3689 227.016 98.3689Z" fill="#21325E"/>
<path d="M225.8 96.4085C225.8 93.6186 234.148 95.6231 237.727 99.5187C240.205 102.217 243.969 106.274 240.815 109.135C237.66 111.996 246.221 115.746 248.517 116.883C250.813 118.02 255.346 121.497 251.253 123.829C247.16 126.162 247.226 128.517 248.766 129.074C250.307 129.631 245.37 128.245 245.37 128.245C245.37 128.245 245.869 132.851 241.71 132.83C237.551 132.808 225.619 109.95 228.469 103.597C231.119 97.6898 225.8 96.4085 225.8 96.4085Z" fill="#21325E"/>
<path d="M227.608 95.7972C216.445 95.1251 215.326 103.527 215.326 103.527C215.403 108.39 223.124 106.02 225.269 106.745C227.856 104.884 232.844 101.362 236.41 98.8489C233.821 97.0256 230.77 95.968 227.608 95.7972Z" fill="#21325E"/>
<path d="M154.328 67.4233L154.453 67.9378L151.918 68.5525L152.717 71.0361L152.213 71.1977L151.24 68.1727L154.328 67.4233Z" fill="#30D5AD"/>
<path d="M18.1123 197.359C18.1123 203.303 14.5794 205.378 10.2207 205.378C10.1196 205.378 10.0189 205.377 9.91834 205.375C9.71651 205.37 9.51627 205.361 9.31868 205.348C5.38504 205.07 2.32907 202.888 2.32907 197.36C2.32907 191.64 9.63901 184.422 10.1879 183.887L10.2196 183.857C10.2196 183.857 18.1123 191.415 18.1123 197.359Z" fill="#30D5AD"/>
<path d="M9.93312 204.469L12.8195 200.436L9.92598 204.912L9.91937 205.375C9.71754 205.37 9.5173 205.361 9.31971 205.348L9.63078 199.402L9.6284 199.356L9.63369 199.347L9.66305 198.786L6.76129 194.299L9.67098 198.365L9.6776 198.484L9.91275 193.991L7.42946 189.355L9.94238 193.203L10.1871 183.888V183.857V183.887L10.1482 191.23L12.6206 188.321L10.1381 191.865L10.0728 195.886L12.3812 192.025L10.063 196.478L10.0265 198.715L13.3777 193.341L10.0141 199.495L9.93312 204.469Z" fill="white"/>
<path d="M55.7531 195.819L57.4413 194.565C57.4413 194.565 58.5586 200.808 57.3117 201.742C56.0648 202.676 51.3889 204.236 51.3889 206.107C51.3889 207.977 40.7902 210.471 40.4786 207.665C40.167 204.859 41.4137 203.301 41.4137 203.301C41.4137 203.301 46.4011 198.313 47.0246 197.378C47.6481 196.443 49.2066 194.572 49.2066 194.572L55.7531 195.819Z" fill="#EAF1E6"/>
<path d="M30.8162 118.2C30.8162 118.2 30.863 118.475 30.944 118.976C31.0188 119.422 31.1217 120.052 31.2463 120.828C32.5557 128.817 36.3743 152.337 36.1156 153.113C35.804 154.048 33.6217 157.478 36.1156 158.413C36.3555 158.503 36.6144 158.796 36.8917 159.257C37.4271 160.251 37.8686 161.293 38.2103 162.368C39.6971 166.683 41.2871 173.587 42.2066 178.369C42.6087 180.47 42.883 182.16 42.9642 183.045C42.9923 183.25 42.9954 183.457 42.9734 183.662C42.6618 184.909 44.8438 189.273 45.7789 190.52C46.714 191.767 48.2728 193.014 47.9609 194.26C47.6491 195.507 55.7541 198.936 56.69 196.754C57.6259 194.572 57.6251 193.325 57.9369 192.702C58.2488 192.078 58.5604 187.714 57.0019 187.091C55.4433 186.468 56.3784 175.558 54.8199 173.375C54.2993 172.649 53.5044 170.189 52.672 167.231C52.3448 166.072 52.0141 164.837 51.6901 163.6C50.3746 158.528 49.2089 153.425 49.2089 153.425L49.5176 116.953L32.3729 114.771L31.9333 115.741L31.0572 117.664L30.8162 118.2Z" fill="#3F3939"/>
<path d="M29.8802 178.052C29.8802 178.052 27.3863 175.558 26.1396 178.052C24.893 180.546 23.6458 190.209 21.4638 192.391C19.2818 194.573 16.4763 205.485 19.5934 206.107C22.7104 206.729 26.1396 205.171 26.4518 203.301C26.7639 201.432 33.3096 191.768 33.3096 190.832C33.3096 189.897 28.9451 186.468 28.9451 186.468L29.8802 178.052Z" fill="#EAF1E6"/>
<path d="M68.2222 101.056C68.2222 101.056 64.1698 137.528 63.2347 140.957C62.2996 144.386 57.3119 157.478 55.7534 159.66C54.1948 161.843 44.2204 179.611 42.9727 180.546C41.725 181.481 39.2321 183.975 39.2321 183.975C39.2321 183.975 34.5563 188.651 33.9328 189.586C33.3093 190.521 28.01 187.715 27.6984 185.845C27.3868 183.975 28.01 180.858 28.3219 179.611C28.6337 178.364 27.6984 176.493 28.6335 175.558C29.5685 174.623 34.2444 169.947 34.2444 167.765C34.2444 165.583 42.3492 152.803 45.4666 149.997C48.5839 147.192 47.9604 142.516 47.9604 142.516V123.5L30.8163 118.2C30.8163 118.2 31.7513 103.238 33.9336 103.238C36.1159 103.238 64.7933 98.2501 68.2222 101.056Z" fill="#3F3939"/>
<path d="M42.9724 48.9981C48.6537 48.9981 53.2592 44.3925 53.2592 38.7113C53.2592 33.03 48.6537 28.4244 42.9724 28.4244C37.2912 28.4244 32.6856 33.03 32.6856 38.7113C32.6856 44.3925 37.2912 48.9981 42.9724 48.9981Z" fill="#FCC5A7"/>
<path d="M46.4013 46.816C46.4013 46.816 47.6483 51.4919 49.2068 52.7388C50.7653 53.9857 45.1544 59.2851 45.1544 59.2851L34.5557 59.9085L32.6853 53.9857C32.6853 53.9857 36.1142 47.1279 35.1792 42.7636C34.2441 38.3993 46.4013 46.816 46.4013 46.816Z" fill="#FCC5A7"/>
<path d="M50.7656 52.1152C50.7656 52.1152 47.9601 52.4268 47.3367 53.3622C46.7132 54.2975 42.3492 57.1027 38.9202 56.4795C35.4913 55.8563 33.3093 54.921 32.6858 55.2326C32.0624 55.5442 30.8162 62.0904 30.8162 62.0904L34.2444 72.0651L33.6201 99.4974L32.685 106.979C32.685 106.979 30.8146 104.485 38.296 106.044C45.7773 107.603 55.4407 104.797 58.558 104.485C61.6754 104.174 66.9747 103.238 67.2871 101.368C67.5995 99.4974 66.352 92.6388 66.352 92.6388L61.3645 71.7533L58.2467 60.5322L50.7656 52.1152Z" fill="white"/>
<path d="M47.817 50.7083C47.817 50.7083 50.4538 49.3098 51.388 50.5567C52.3223 51.8037 64.1687 53.6741 64.1687 54.6091C64.1687 55.5442 66.6626 80.794 66.0391 82.976C65.4157 85.158 67.2861 87.6518 67.2861 87.6518L69.4681 97.0036C69.4681 97.0036 75.3909 114.772 72.897 115.395C70.4031 116.019 68.2211 115.395 67.2861 115.395C66.351 115.395 66.6626 103.55 64.1687 100.433C61.6749 97.3152 58.2467 89.5233 57.6235 87.9627C57.0003 86.402 49.2071 64.8967 49.5176 62.4021C49.8282 59.9074 47.817 50.7083 47.817 50.7083Z" fill="#D0F4FF"/>
<path d="M34.8676 52.1152C34.8676 52.1152 32.3738 52.1152 32.0622 52.7387C31.7506 53.3622 28.6332 57.4146 27.3863 58.3496C26.1394 59.2847 21.7754 63.3361 21.7754 64.2725C21.7754 65.2089 30.8163 72.0651 30.8163 72.0651C30.8163 72.0651 34.5568 90.4568 32.6867 96.6917C30.8166 102.927 28.0098 117.889 29.2556 118.824C30.5015 119.759 33.3081 120.071 33.3081 118.824C33.3081 117.577 35.1785 104.173 36.737 101.368C38.2955 98.5621 42.9714 80.794 41.1015 75.8062C39.2317 70.8185 34.8676 52.1152 34.8676 52.1152Z" fill="#D0F4FF"/>
<path d="M76.0152 82.9757C76.0152 82.9757 76.3268 92.6391 72.8979 97.6268C69.4689 102.615 67.2869 108.225 67.2869 108.225C67.2869 108.225 61.676 106.666 60.7406 104.796C59.8053 102.925 53.8822 104.485 53.8822 103.86C53.8822 103.236 61.0507 100.119 61.6754 99.4956C62.3002 98.8719 64.4809 98.8722 65.7278 97.6252C66.9748 96.3783 67.2864 93.5728 67.2864 93.5728L68.5333 85.468L76.0152 82.9757Z" fill="#9F616A"/>
<path d="M50.0575 32.3684C50.849 32.2964 51.665 32.2173 52.3644 31.8393C53.9316 30.9929 54.3483 28.5873 53.1542 27.2656C52.8253 26.9293 52.4574 26.6335 52.0583 26.3844L49.6888 24.7709C48.6408 24.0567 47.5681 23.3327 46.3458 22.9962C45.2404 22.692 44.0726 22.7233 42.9282 22.7944C40.7063 22.9325 38.4714 23.2176 36.3817 23.9847C34.292 24.7518 32.3431 26.035 31.0773 27.866C29.071 30.7688 29.0435 34.6839 30.1486 38.0351C31.2538 41.3863 33.3525 44.3042 35.4207 47.1636L36.4939 41.9275C36.5894 41.4611 36.7131 40.9488 37.1009 40.6739C38.0651 39.988 39.2435 41.3963 40.4275 41.3881C41.1877 41.3823 41.826 40.757 42.1141 40.0534C42.4021 39.3498 42.4212 38.5708 42.4878 37.8135C42.6291 36.2094 43.1896 33.9779 44.7098 33.0929C46.1244 32.2692 48.4664 32.5128 50.0575 32.3684Z" fill="#365D6A"/>
<path opacity="0.1" d="M49.4806 118.452C49.4806 118.452 48.4278 148.905 47.8044 149.841C47.1809 150.776 47.8044 118.356 47.8044 118.356L49.4806 118.452Z" fill="black"/>
<path d="M61.6759 54.6088H64.1698C64.1698 54.6088 74.7685 68.948 73.5215 69.8833C72.2746 70.8187 73.5215 73.3123 73.5215 73.3123L76.0154 77.9881C76.0154 77.9881 79.1327 80.7936 78.1974 81.4171C77.2621 82.0406 76.0154 84.5344 76.0154 84.5344C76.0154 84.5344 69.781 83.5994 67.9106 87.3399L63.8677 82.2347L61.6759 54.6088Z" fill="#D0F4FF"/>
<path d="M62.5568 59.2208L53.9996 62.7545L60.5847 78.7012L69.1419 75.1676L62.5568 59.2208Z" fill="#2F2E41"/>
<path d="M61.5541 68.5739C62.4993 68.1836 62.9748 67.1632 62.6162 66.2948C62.2576 65.4264 61.2007 65.0389 60.2555 65.4292C59.3103 65.8195 58.8347 66.8399 59.1933 67.7083C59.5519 68.5767 60.6088 68.9642 61.5541 68.5739Z" fill="#6C63FF"/>
<path d="M55.4428 79.547C55.4428 79.547 32.9974 98.2505 29.2556 92.3274C25.5137 86.4044 33.308 81.4172 33.308 81.4172C33.308 81.4172 40.1659 81.7288 47.9591 76.7413L55.752 73.3123C55.752 73.3123 62.8675 63.1549 65.2908 67.0229C67.714 70.8909 61.1537 77.6224 55.4428 79.547Z" fill="#FCC5A7"/>
<path d="M25.2042 63.0257L21.7753 64.2727V73.6244L20.5284 75.4948C20.5284 75.4948 20.84 79.2356 21.7753 80.1707C22.7106 81.1058 24.5808 80.7942 23.9573 82.9762C23.5826 84.3989 23.4769 85.8791 23.6457 87.3407C23.6457 87.3407 29.2566 94.5091 29.5685 93.5751C29.8804 92.6411 34.2444 81.1063 34.8678 81.1063C35.4913 81.1063 28.6334 63.0263 28.6334 63.0263L25.2042 63.0257Z" fill="#D0F4FF"/>
<path d="M66.1961 110.251C66.1961 110.251 69.4192 107.134 67.8075 106.978C66.1958 106.822 60.5862 103.705 59.6498 105.263C58.7134 106.822 66.1961 110.251 66.1961 110.251Z" fill="#2F2E41"/>
<path d="M127.497 50.7871C129.981 50.7871 131.994 49.7213 131.994 48.4065C131.994 47.0917 129.981 46.0258 127.497 46.0258C125.014 46.0258 123.001 47.0917 123.001 48.4065C123.001 49.7213 125.014 50.7871 127.497 50.7871Z" fill="#21325E"/>
<path d="M144.691 56.3422C134.551 52.5126 124.411 52.5126 114.272 56.3422V43.9098C124.191 40.9167 134.772 40.9167 144.691 43.9098V56.3422Z" stroke="#EFA92B" stroke-width="1.5" stroke-miterlimit="10"/>
<path d="M140.459 53.7713C133.14 51.0073 125.822 51.0073 118.504 53.7713V44.7986C125.663 42.6384 133.3 42.6384 140.459 44.7986V53.7713Z" stroke="#EFA92B" stroke-width="1.5" stroke-miterlimit="10"/>
<path d="M129.084 49.7293C131.568 49.7293 133.581 48.6634 133.581 47.3486C133.581 46.0338 131.568 44.968 129.084 44.968C126.601 44.968 124.588 46.0338 124.588 47.3486C124.588 48.6634 126.601 49.7293 129.084 49.7293Z" stroke="#EFA92B" stroke-width="2" stroke-miterlimit="10"/>
<path d="M130.804 65.6982C133.238 65.2015 134.998 63.7543 134.735 62.4658C134.472 61.1773 132.286 60.5354 129.852 61.0321C127.418 61.5288 125.658 62.976 125.921 64.2645C126.184 65.553 128.371 66.1949 130.804 65.6982Z" fill="#21325E"/>
<path d="M148.761 67.7003C138.06 65.9758 128.125 68.0038 118.956 73.7842L116.469 61.6029C125.589 56.6865 135.957 54.5701 146.274 55.519L148.761 67.7003Z" stroke="#EFA92B" stroke-width="1.5" stroke-miterlimit="10"/>
<path d="M144.1 66.0281C136.376 64.7835 129.206 66.2471 122.589 70.4191L120.794 61.6276C127.376 58.0792 134.859 56.5518 142.306 57.2366L144.1 66.0281Z" stroke="#EFA92B" stroke-width="1.5" stroke-miterlimit="10"/>
<path d="M132.148 64.344C134.582 63.8473 136.342 62.4001 136.079 61.1116C135.816 59.8231 133.629 59.1813 131.196 59.678C128.762 60.1747 127.002 61.6219 127.265 62.9104C127.528 64.1989 129.714 64.8407 132.148 64.344Z" stroke="#EFA92B" stroke-width="2.0004" stroke-miterlimit="10"/>
<path d="M133.881 78.4726C133.973 77.161 132.038 75.9579 129.561 75.7855C127.083 75.6131 125.001 76.5366 124.91 77.8482C124.818 79.1599 126.753 80.3629 129.23 80.5353C131.708 80.7078 133.79 79.7842 133.881 78.4726Z" fill="#21325E"/>
<path d="M145.996 87.2707C136.147 82.7464 126.031 82.0425 115.65 85.159L116.513 72.7566C126.616 70.4593 137.173 71.194 146.86 74.8688L145.996 87.2707Z" stroke="#EFA92B" stroke-width="1.5" stroke-miterlimit="10"/>
<path d="M141.953 84.4123C134.844 81.1469 127.544 80.6388 120.051 82.8881L120.674 73.9368C127.966 72.2788 135.584 72.8089 142.576 75.461L141.953 84.4123Z" stroke="#EFA92B" stroke-width="1.5" stroke-miterlimit="10"/>
<path d="M135.538 77.5278C135.63 76.2162 133.695 75.0131 131.218 74.8407C128.74 74.6683 126.658 75.5918 126.567 76.9034C126.475 78.215 128.41 79.4181 130.887 79.5905C133.365 79.7629 135.447 78.8394 135.538 77.5278Z" stroke="#EFA92B" stroke-width="2" stroke-miterlimit="10"/>
<path d="M109.754 56.6308C109.754 56.6308 90.3121 53.9711 76.4297 62.1063" stroke="#30D5AD" stroke-miterlimit="10"/>
<path d="M76.8974 59.3734L77.4023 59.5321L76.613 62.0186L79.1508 62.6241L79.0272 63.1391L75.9369 62.4008L76.8974 59.3734Z" fill="#30D5AD"/>
</svg>
