<svg width="23" height="21" viewBox="0 0 23 21" fill="none" xmlns="http://www.w3.org/2000/svg">
<g clip-path="url(#clip0_125_1306)">
<path d="M21.7007 6.18962C21.2052 5.5685 20.5125 5.13517 19.7372 4.96135L18.3476 2.37928C18.0354 1.83857 17.5875 1.38872 17.0482 1.07423C16.5088 0.759745 15.8967 0.591512 15.2724 0.586176C14.6938 0.578735 14.124 0.727399 13.6227 1.01652L6.45033 4.91652H4.26275C3.80556 4.92009 3.35366 5.01468 2.93343 5.19478C2.5132 5.37488 2.13304 5.63688 1.81516 5.96549C1.17351 6.60935 0.807046 7.47728 0.793091 8.38617L0.793091 16.6165C0.800061 17.5348 1.16705 18.4136 1.81516 19.0641C2.13528 19.3878 2.51644 19.6449 2.93657 19.8203C3.3567 19.9957 3.80746 20.0861 4.26275 20.0862H18.9931C19.9126 20.0838 20.7937 19.7175 21.4439 19.0673C22.0941 18.4171 22.4604 17.536 22.4627 16.6165V8.38617C22.4711 7.58777 22.2017 6.81128 21.7007 6.18962ZM14.6627 2.92618C14.8446 2.8093 15.0562 2.74707 15.2724 2.74687C15.5067 2.74692 15.7364 2.81211 15.9358 2.93514C16.1347 3.05745 16.2936 3.23503 16.3931 3.44618L17.1731 4.91652H10.9779L14.6627 2.92618ZM20.2931 14.2944H18.3834C17.9364 14.2944 17.5077 14.1169 17.1916 13.8008C16.8755 13.4847 16.6979 13.056 16.6979 12.6089C16.6958 12.3872 16.7383 12.1674 16.823 11.9625C16.9078 11.7576 17.0329 11.5719 17.191 11.4165C17.3466 11.258 17.5321 11.132 17.7368 11.0458C17.9415 10.9596 18.1613 10.915 18.3834 10.9144H20.2931V14.2944ZM20.2931 8.85238H18.3834C17.42 8.89949 16.5117 9.31536 15.8465 10.0138C15.1814 10.7123 14.8103 11.6399 14.8103 12.6044C14.8103 13.569 15.1814 14.4966 15.8465 15.1951C16.5117 15.8935 17.42 16.3094 18.3834 16.3565H20.2931V16.6165C20.2864 16.9524 20.1518 17.2731 19.9165 17.5131C19.6777 17.7498 19.3563 17.8848 19.02 17.8896H4.26275C3.91796 17.8896 3.5873 17.7527 3.34351 17.5089C3.09971 17.2651 2.96275 16.9344 2.96275 16.5896V8.38617C2.96488 8.21872 3.00003 8.05334 3.06619 7.89949C3.13234 7.74565 3.22819 7.60636 3.34826 7.48962C3.58715 7.25285 3.90851 7.11788 4.24481 7.11307H18.9931C19.1622 7.1107 19.3301 7.14182 19.4872 7.20462C19.6442 7.26743 19.7872 7.36069 19.9081 7.47903C20.0289 7.59737 20.1252 7.73844 20.1912 7.89413C20.2573 8.04982 20.2919 8.21705 20.2931 8.38617V8.85238Z" fill="white"/>
<path d="M18.5986 13.3083C18.76 13.3083 18.9177 13.2604 19.0519 13.1708C19.1861 13.0811 19.2906 12.9537 19.3524 12.8046C19.4141 12.6556 19.4303 12.4915 19.3988 12.3332C19.3673 12.175 19.2896 12.0296 19.1755 11.9155C19.0614 11.8014 18.9161 11.7237 18.7578 11.6922C18.5995 11.6607 18.4355 11.6769 18.2864 11.7387C18.1373 11.8004 18.0099 11.905 17.9203 12.0391C17.8306 12.1733 17.7828 12.3311 17.7828 12.4924C17.7828 12.7088 17.8687 12.9163 18.0217 13.0693C18.1747 13.2223 18.3823 13.3083 18.5986 13.3083Z" fill="#00E6D3"/>
<path d="M12.9862 8.97793H6.21721C5.61808 8.97793 5.13239 9.46362 5.13239 10.0628C5.13239 10.6619 5.61808 11.1476 6.21721 11.1476H12.9862C13.5853 11.1476 14.071 10.6619 14.071 10.0628C14.071 9.46362 13.5853 8.97793 12.9862 8.97793Z" fill="#00E5D3"/>
<path d="M9.74066 12.5014H6.21721C5.61808 12.5014 5.13239 12.9871 5.13239 13.5862C5.13239 14.1853 5.61808 14.671 6.21721 14.671H9.74066C10.3398 14.671 10.8255 14.1853 10.8255 13.5862C10.8255 12.9871 10.3398 12.5014 9.74066 12.5014Z" fill="#00E5D3"/>
</g>
<defs>
<clipPath id="clip0_125_1306">
<rect width="21.6697" height="19.5" fill="white" transform="translate(0.793091 0.586207)"/>
</clipPath>
</defs>
</svg>
