<svg width="40" height="13" viewBox="0 0 40 13" fill="none" xmlns="http://www.w3.org/2000/svg">
<path d="M17.3404 12.5965H14.0765L16.1164 0.22113H19.3806L17.3404 12.5965ZM11.3307 0.22113L8.21898 8.73299L7.85077 6.90006L7.85111 6.90072L6.75285 1.33539C6.75285 1.33539 6.62005 0.22113 5.20456 0.22113H0.0603623L0 0.430674C0 0.430674 1.57311 0.753762 3.41415 1.84518L6.24983 12.5968H9.65057L14.8434 0.22113H11.3307ZM37.003 12.5965H40L37.387 0.220799H34.7632C33.5516 0.220799 33.2565 1.14306 33.2565 1.14306L28.3887 12.5965H31.7911L32.4715 10.7583H36.6207L37.003 12.5965ZM33.4115 8.2189L35.1264 3.58774L36.0912 8.2189H33.4115ZM28.6439 3.19712L29.1097 0.539584C29.1097 0.539584 27.6724 0 26.174 0C24.5543 0 20.7079 0.698811 20.7079 4.09687C20.7079 7.29399 25.2223 7.33372 25.2223 9.01305C25.2223 10.6924 21.173 10.3915 19.8367 9.33249L19.3514 12.1112C19.3514 12.1112 20.8089 12.81 23.0355 12.81C25.2629 12.81 28.6231 11.6716 28.6231 8.5731C28.6231 5.35546 24.0681 5.05587 24.0681 3.65693C24.0684 2.25765 27.2472 2.4374 28.6439 3.19712Z" fill="#2566AF"/>
<path d="M10.8901 9.57192L9.36677 1.85233C9.36677 1.85233 9.18257 0.306763 7.21916 0.306763H0.0837275L0 0.597418C0 0.597418 3.42957 1.29903 6.71912 3.92779C9.86448 6.44037 10.8901 9.57192 10.8901 9.57192Z" fill="#E6A540"/>
</svg>
